<svg width="159" height="31" viewBox="0 0 159 31" fill="none" xmlns="http://www.w3.org/2000/svg">
<path d="M57.9357 11.2222H60.337L56.068 24.3378H53.9928L50.6725 15.8733C50.5144 15.4689 50.3464 14.9393 50.1685 14.2844C49.9906 14.92 49.8029 15.4785 49.6053 15.96L46.3739 24.3378H44.4172L40 11.2222H42.5495L45.1584 19.4267C45.1979 19.5615 45.2473 19.7541 45.3066 20.0044C45.3857 20.2548 45.4548 20.5148 45.5141 20.7844C45.5932 21.0348 45.6426 21.1889 45.6624 21.2467C46.0181 20.0526 46.2059 19.4459 46.2256 19.4267L49.2495 11.2222H51.2951L54.3486 19.3978L54.9711 21.2756C55.1095 20.6207 55.2874 19.9563 55.5048 19.2822L57.9357 11.2222Z" fill="white"/>
<path d="M73.1202 20.9867L73.8613 22.8067C72.5767 23.943 70.9066 24.5111 68.8512 24.5111C66.6772 24.5111 64.9478 23.8948 63.6632 22.6622C62.3587 21.4296 61.7065 19.783 61.7065 17.7222C61.7065 15.777 62.3192 14.1593 63.5446 12.8689C64.7502 11.5785 66.4301 10.9333 68.5844 10.9333C70.3631 10.9333 71.8355 11.4919 73.0016 12.6089C74.1874 13.7067 74.7803 15.1319 74.7803 16.8844C74.7803 17.443 74.7309 17.963 74.6321 18.4444H64.3747C64.4735 19.6578 64.9379 20.6111 65.768 21.3044C66.6179 21.9978 67.7049 22.3444 69.0291 22.3444C70.7683 22.3444 72.132 21.8919 73.1202 20.9867ZM68.4658 13.1C67.2997 13.1 66.3313 13.4178 65.5605 14.0533C64.8095 14.6889 64.3648 15.5267 64.2264 16.5667H72.3197C72.2605 15.4881 71.8849 14.6407 71.1932 14.0244C70.5212 13.4081 69.6121 13.1 68.4658 13.1Z" fill="white"/>
<path d="M77.9979 23.0089V4H80.3695V12.4644C80.8636 12.0022 81.4862 11.6363 82.2372 11.3667C83.008 11.0778 83.7689 10.9333 84.5199 10.9333C86.4766 10.9333 88.0181 11.54 89.1447 12.7533C90.291 13.9474 90.8641 15.5363 90.8641 17.52C90.8641 19.6578 90.1922 21.3622 88.8482 22.6333C87.5043 23.8852 85.7058 24.5111 83.4527 24.5111C81.2194 24.5111 79.4011 24.0104 77.9979 23.0089ZM83.9863 13.1C83.2946 13.1 82.6127 13.2637 81.9408 13.5911C81.2688 13.9185 80.745 14.3133 80.3695 14.7756V21.4489C81.2787 22.0459 82.3459 22.3444 83.5713 22.3444C84.9745 22.3444 86.1208 21.9207 87.0102 21.0733C87.8996 20.2259 88.3442 19.0993 88.3442 17.6933C88.3442 16.2681 87.949 15.1511 87.1584 14.3422C86.3679 13.5141 85.3105 13.1 83.9863 13.1Z" fill="white"/>
<path d="M96.64 30H94.2683V11.2222H96.64V12.7533C97.1143 12.2141 97.7665 11.7807 98.5966 11.4533C99.4267 11.1067 100.286 10.9333 101.176 10.9333C103.073 10.9333 104.565 11.5496 105.652 12.7822C106.779 13.9956 107.342 15.5748 107.342 17.52C107.342 19.5037 106.7 21.1696 105.415 22.5178C104.15 23.8467 102.48 24.5111 100.405 24.5111C98.8041 24.5111 97.5491 24.2126 96.64 23.6156V30ZM100.494 13.1C98.9128 13.1 97.6282 13.697 96.64 14.8911V21.3333C97.6875 22.0074 98.8733 22.3444 100.197 22.3444C101.601 22.3444 102.717 21.9111 103.547 21.0444C104.397 20.1585 104.822 19.0126 104.822 17.6067C104.822 16.2393 104.437 15.1511 103.666 14.3422C102.895 13.5141 101.838 13.1 100.494 13.1Z" fill="white"/>
<path d="M111.809 22.6044C110.504 21.2948 109.852 19.6674 109.852 17.7222C109.852 15.7578 110.504 14.14 111.809 12.8689C113.133 11.5785 114.852 10.9333 116.967 10.9333C119.082 10.9333 120.791 11.5785 122.096 12.8689C123.42 14.14 124.082 15.7578 124.082 17.7222C124.082 19.6867 123.42 21.3141 122.096 22.6044C120.791 23.8756 119.082 24.5111 116.967 24.5111C114.872 24.5111 113.153 23.8756 111.809 22.6044ZM113.676 14.4C112.807 15.2474 112.372 16.3548 112.372 17.7222C112.372 19.0896 112.797 20.197 113.647 21.0444C114.516 21.9111 115.623 22.3444 116.967 22.3444C118.311 22.3444 119.408 21.9207 120.258 21.0733C121.127 20.2067 121.562 19.0896 121.562 17.7222C121.562 16.3933 121.127 15.2859 120.258 14.4C119.408 13.5333 118.311 13.1 116.967 13.1C115.623 13.1 114.526 13.5333 113.676 14.4Z" fill="white"/>
<path d="M130.528 24.2222H128.156V11.2222H130.528V24.2222ZM127.86 6.34C127.86 5.93556 128.008 5.60815 128.305 5.35778C128.601 5.08815 128.967 4.95333 129.401 4.95333C129.816 4.95333 130.162 5.08815 130.439 5.35778C130.716 5.60815 130.854 5.93556 130.854 6.34C130.854 6.78296 130.716 7.14889 130.439 7.43778C130.162 7.70741 129.816 7.84222 129.401 7.84222C128.967 7.84222 128.601 7.70741 128.305 7.43778C128.008 7.14889 127.86 6.78296 127.86 6.34Z" fill="white"/>
<path d="M137.808 24.2222H135.437V11.2222H137.808V12.8111C138.302 12.2719 138.945 11.8385 139.735 11.5111C140.546 11.1644 141.356 10.9911 142.166 10.9911C145.862 10.9911 147.71 12.8978 147.71 16.7111V24.2222H145.338V17.1444C145.338 14.4867 144.083 13.1578 141.573 13.1578C140.071 13.1578 138.816 13.7163 137.808 14.8333V24.2222Z" fill="white"/>
<path d="M151.411 19.2822V7.61111H153.782V11.2222H158.674V13.3889H153.782V19.0511C153.782 21.2081 154.573 22.2867 156.154 22.2867C156.925 22.2867 157.626 22.0459 158.259 21.5644L159 23.3556C158.071 24.0874 156.935 24.4533 155.591 24.4533C154.148 24.4533 153.091 24.0296 152.419 23.1822C151.747 22.3348 151.411 21.0348 151.411 19.2822Z" fill="white"/>
<path fill-rule="evenodd" clip-rule="evenodd" d="M13.4484 28.4565C13.4484 27.4363 12.7133 26.5806 11.7529 26.2367C7.37727 24.6697 4.24685 20.4863 4.24685 15.5718C4.24685 9.3172 9.3172 4.24685 15.5718 4.24685C21.8264 4.24685 26.8967 9.3172 26.8967 15.5718C26.8967 20.4863 23.7663 24.6697 19.3907 26.2367C18.4303 26.5806 17.6952 27.4363 17.6952 28.4565V28.5674C17.6952 29.8542 18.8385 30.855 20.0705 30.4838C26.4772 28.5537 31.1436 22.6077 31.1436 15.5718C31.1436 6.97173 24.1718 0 15.5718 0C6.97173 0 0 6.97173 0 15.5718C0 22.6077 4.66633 28.5537 11.073 30.4838C12.3051 30.855 13.4484 29.8542 13.4484 28.5674V28.4565Z" fill="white"/>
<path fill-rule="evenodd" clip-rule="evenodd" d="M13.4484 28.3123V31C5.85283 29.9643 0 23.4516 0 15.5718C0 6.97173 6.97173 0 15.5718 0C24.1718 0 31.1436 6.97173 31.1436 15.5718C31.1436 23.4516 25.2907 29.9643 17.6952 31V28.3123H19.8186V26.0735C23.969 24.3935 26.8967 20.3245 26.8967 15.5718C26.8967 9.3172 21.8264 4.24685 15.5718 4.24685C9.3172 4.24685 4.24685 9.3172 4.24685 15.5718C4.24685 20.3245 7.17459 24.3935 11.3249 26.0735V28.3123H13.4484Z" fill="white"/>
</svg>
