<svg width="53" height="26" viewBox="0 0 53 26" fill="none" xmlns="http://www.w3.org/2000/svg">
<path d="M2.69515 21.5781C2.69515 24.7051 4.27326 25.8449 7.0788 25.8449H9.4752V22.7179H8.30622C6.66966 22.7179 6.05595 21.9873 6.05595 20.2046V16.7269C6.05595 14.4766 5.09154 13.5414 3.86412 13.3953C5.17922 13.22 6.05595 11.9633 6.05595 10.0637V6.64447C6.05595 4.71567 6.58199 4.1604 8.13088 4.1604H9.4752V1.00417H7.28337C3.86412 1.00417 2.69515 2.49461 2.69515 5.4755V8.74863C2.69515 11.3496 1.11703 11.9633 0.0649558 11.9633V14.8857C1.23393 14.8565 2.69515 15.441 2.69515 17.7497V21.5781ZM11.5006 10.2391C12.465 9.8007 13.4294 9.33311 14.9491 9.33311C16.9071 9.33311 17.4916 10.5313 17.4039 12.7231C16.761 12.2555 15.592 11.8756 14.423 11.8756C11.7636 11.8756 9.63022 13.2492 9.63022 16.1424C9.63022 18.6849 11.3545 20.1753 13.7509 20.1753C15.5335 20.1753 16.9363 19.474 17.6377 18.4803V20H20.5601V11.9925C20.5601 8.51483 19.1866 6.52757 15.2997 6.52757C13.5755 6.52757 11.7928 7.11206 10.6531 7.78422L11.5006 10.2391ZM14.8614 17.3406C13.8093 17.3406 12.991 16.7853 12.991 15.7917C12.991 14.6812 13.9847 14.1551 15.0952 14.1551C16.0596 14.1551 16.8194 14.3597 17.4039 14.7981V16.1424C16.9948 16.7269 16.2642 17.3406 14.8614 17.3406ZM22.5442 25.8449H25.905V19.6785C26.6648 20.1169 27.8046 20.3215 28.9735 20.3215C33.1819 20.3215 35.9289 17.2237 35.9289 13.22C35.9289 9.33311 33.591 6.52757 29.9672 6.52757C28.2722 6.52757 26.7233 7.22896 25.905 8.10569V6.84904H22.5442V25.8449ZM28.9151 9.6838C31.1361 9.6838 32.3636 11.2035 32.3636 13.3076C32.3636 15.4994 31.0192 17.1945 28.6813 17.1945C27.5708 17.1945 26.8109 17.0191 25.905 16.4346V11.1158C26.7233 10.2098 27.7753 9.6838 28.9151 9.6838ZM37.8758 20H41.2366V6.84904H37.8758V20ZM37.5251 2.1147C37.5251 3.45902 38.4895 4.21885 39.6292 4.21885C40.5936 4.21885 41.5581 3.45902 41.5581 2.1147C41.5581 0.916499 40.5936 0.156667 39.6292 0.156667C38.4895 0.156667 37.5251 0.916499 37.5251 2.1147ZM49.5171 17.7497C49.5171 15.441 50.9783 14.8565 52.1473 14.8857V11.9633C51.0952 11.9633 49.5171 11.3496 49.5171 8.74863V5.4755C49.5171 2.49461 48.3774 1.00417 44.9289 1.00417H42.7371V4.1604H44.0814C45.6303 4.1604 46.1563 4.71567 46.1563 6.64447V10.0637C46.1563 11.9633 47.0331 13.22 48.3481 13.3953C47.1207 13.5414 46.1563 14.4766 46.1563 16.7269V20.2046C46.1563 21.9873 45.5426 22.7179 43.906 22.7179H42.7371V25.8449H45.1627C47.939 25.8449 49.5171 24.7051 49.5171 21.5781V17.7497Z" fill="#1F4CE4"/>
</svg>
