<svg width="15" height="15" viewBox="0 0 15 15" fill="none" xmlns="http://www.w3.org/2000/svg">
<mask id="mask0" mask-type="alpha" maskUnits="userSpaceOnUse" x="2" y="2" width="11" height="11">
<path fill-rule="evenodd" clip-rule="evenodd" d="M7.05806 12.3169C7.30214 12.561 7.69786 12.561 7.94194 12.3169L12.3169 7.94194C12.561 7.69786 12.561 7.30214 12.3169 7.05806C12.0729 6.81398 11.6771 6.81398 11.4331 7.05806L8.125 10.3661L8.125 3.125C8.125 2.77982 7.84518 2.5 7.5 2.5C7.15482 2.5 6.875 2.77982 6.875 3.125L6.875 10.3661L3.56694 7.05806C3.32287 6.81398 2.92714 6.81398 2.68306 7.05806C2.43898 7.30214 2.43898 7.69786 2.68306 7.94194L7.05806 12.3169Z" fill="#061938"/>
</mask>
<g mask="url(#mask0)">
<rect x="15" y="15" width="15" height="15" transform="rotate(-180 15 15)" fill="#1A191B"/>
</g>
</svg>
