<svg width="40" height="40" viewBox="0 0 40 40" fill="none" xmlns="http://www.w3.org/2000/svg">
<mask id="mask0" mask-type="alpha" maskUnits="userSpaceOnUse" x="2" y="3" width="37" height="34">
<path fill-rule="evenodd" clip-rule="evenodd" d="M7.12225 6.5485C6.2181 6.5485 5.48515 7.28146 5.48515 8.18561V24.5567C5.48515 25.4608 6.2181 26.1938 7.12225 26.1938H33.3159C34.2201 26.1938 34.953 25.4608 34.953 24.5567V8.18561C34.953 7.28146 34.2201 6.5485 33.3159 6.5485H7.12225ZM2.21094 8.18561C2.21094 5.47316 4.40981 3.27429 7.12225 3.27429H33.3159C36.0284 3.27429 38.2272 5.47316 38.2272 8.18561V24.5567C38.2272 27.2691 36.0284 29.468 33.3159 29.468H7.12225C4.40981 29.468 2.21094 27.2691 2.21094 24.5567V8.18561Z" fill="#061938"/>
<path fill-rule="evenodd" clip-rule="evenodd" d="M12.0332 34.3793C12.0332 33.4751 12.7662 32.7422 13.6703 32.7422H26.7671C27.6713 32.7422 28.4043 33.4751 28.4043 34.3793C28.4043 35.2834 27.6713 36.0164 26.7671 36.0164H13.6703C12.7662 36.0164 12.0332 35.2834 12.0332 34.3793Z" fill="#061938"/>
<path fill-rule="evenodd" clip-rule="evenodd" d="M20.2172 26.1937C21.1213 26.1937 21.8543 26.9267 21.8543 27.8308V34.3792C21.8543 35.2834 21.1213 36.0164 20.2172 36.0164C19.313 36.0164 18.5801 35.2834 18.5801 34.3792V27.8308C18.5801 26.9267 19.313 26.1937 20.2172 26.1937Z" fill="#061938"/>
</mask>
<g mask="url(#mask0)">
<rect x="0.574219" width="39.2905" height="39.2905" fill="#1F4CE4"/>
</g>
</svg>
