<svg width="38" height="37" viewBox="0 0 38 37" fill="none" xmlns="http://www.w3.org/2000/svg">
<path d="M36.9027 27.2032C36.6946 27.9496 36.2889 28.626 35.7282 29.1609C35.1675 29.6958 34.4728 30.0693 33.7174 30.242C33.0082 30.431 32.2635 30.443 31.5486 30.277C30.8336 30.111 30.1703 29.7722 29.6169 29.2901H27.6582V34.7819C27.6582 35.2674 27.4653 35.733 27.122 36.0763C26.7787 36.4196 26.3131 36.6125 25.8276 36.6125H17.4801V34.6537C17.9685 34.1037 18.3141 33.442 18.4865 32.7269C18.6589 32.0118 18.6527 31.2653 18.4686 30.5532C18.2816 29.8116 17.8995 29.1335 17.3619 28.5895C16.8243 28.0455 16.1509 27.6553 15.4115 27.4595C14.7481 27.273 14.051 27.24 13.373 27.3629C12.6949 27.4858 12.0538 27.7615 11.4981 28.169C10.9424 28.5765 10.4868 29.1051 10.1657 29.7149C9.84469 30.3246 9.66667 30.9994 9.64515 31.6882C9.63145 32.7852 10.0375 33.8461 10.7801 34.6537V36.6125H2.32278C1.83728 36.6125 1.37166 36.4196 1.02836 36.0763C0.685053 35.733 0.492188 35.2674 0.492188 34.7819V23.5969H2.43261C3.24412 24.3333 4.3024 24.7383 5.39817 24.7319C6.50495 24.7386 7.5748 24.3342 8.40035 23.5969C9.1163 22.9674 9.61587 22.1283 9.82821 21.1989C9.89716 20.8491 9.93392 20.4937 9.93804 20.1371C9.92959 19.799 9.89285 19.4623 9.82821 19.1303C9.59684 18.1279 9.03318 17.2332 8.22888 16.5918C7.42458 15.9503 6.42694 15.5998 5.39817 15.5973C4.30401 15.5996 3.24875 16.0034 2.43261 16.7322H0.492188V11.2405C0.492188 10.755 0.685053 10.2893 1.02836 9.94603C1.37166 9.60273 1.83728 9.40986 2.32278 9.40986H10.6886V7.48774C10.1879 6.94463 9.83028 6.28538 9.64811 5.56948C9.46594 4.85359 9.46492 4.1036 9.64515 3.38722C9.82054 2.62428 10.2016 1.924 10.7471 1.36245C11.2925 0.800893 11.9814 0.399539 12.7388 0.201986C13.4154 -0.00732115 14.1317 -0.0547768 14.83 0.0634418C15.5282 0.18166 16.189 0.462247 16.7589 0.882596C17.3289 1.30294 17.7921 1.8513 18.1114 2.48348C18.4306 3.11566 18.5968 3.81398 18.5967 4.52218C18.6082 5.61551 18.2098 6.67348 17.4801 7.48774V9.44647H25.8276C26.3131 9.44647 26.7787 9.63934 27.122 9.98264C27.4653 10.3259 27.6582 10.7916 27.6582 11.2771V22.462H29.6169C30.4245 21.7193 31.4854 21.3133 32.5825 21.327C33.2914 21.3299 33.9899 21.4988 34.6218 21.8202C35.2538 22.1416 35.8017 22.6065 36.2216 23.1777C36.6416 23.7489 36.9219 24.4105 37.0402 25.1096C37.1585 25.8086 37.1114 26.5256 36.9027 27.2032Z" fill="#1F4CE4"/>
</svg>
