<svg width="180" height="36" viewBox="0 0 180 36" fill="none" xmlns="http://www.w3.org/2000/svg">
<path d="M65.5878 12.7044H68.3063L63.4734 27.5522H61.1241L57.3653 17.9698C57.1863 17.512 56.9961 16.9124 56.7947 16.1711C56.5934 16.8906 56.3808 17.5229 56.1571 18.0679L52.4989 27.5522H50.2838L45.2832 12.7044H48.1695L51.1229 21.9925C51.1676 22.1451 51.2236 22.3631 51.2907 22.6466C51.3802 22.93 51.4585 23.2243 51.5256 23.5296C51.6151 23.813 51.671 23.9874 51.6934 24.0528C52.0962 22.7011 52.3087 22.0143 52.3311 21.9925L55.7543 12.7044H58.0701L61.5269 21.9598L62.2317 24.0856C62.3883 23.3443 62.5897 22.5921 62.8358 21.8289L65.5878 12.7044Z" fill="#1F4CE4"/>
<path d="M82.7778 23.7585L83.6168 25.8189C82.1625 27.1053 80.2718 27.7484 77.9449 27.7484C75.4838 27.7484 73.526 27.0507 72.0717 25.6554C70.595 24.26 69.8566 22.3958 69.8566 20.0629C69.8566 17.8608 70.5502 16.0294 71.9374 14.5686C73.3023 13.1078 75.2041 12.3774 77.6429 12.3774C79.6565 12.3774 81.3234 13.0097 82.6435 14.2742C83.986 15.517 84.6572 17.1304 84.6572 19.1145C84.6572 19.7468 84.6012 20.3354 84.4894 20.8805H72.8772C72.989 22.2541 73.5148 23.3333 74.4545 24.1183C75.4166 24.9032 76.6472 25.2956 78.1463 25.2956C80.1152 25.2956 81.659 24.7832 82.7778 23.7585ZM77.5086 14.8302C76.1885 14.8302 75.0922 15.19 74.2196 15.9095C73.3694 16.6289 72.866 17.5774 72.7094 18.7547H81.8716C81.8045 17.5338 81.3794 16.5744 80.5963 15.8767C79.8355 15.1791 78.8063 14.8302 77.5086 14.8302Z" fill="#1F4CE4"/>
<path d="M88.2996 26.0478V4.52832H90.9845V14.1107C91.5439 13.5874 92.2487 13.1732 93.0989 12.8679C93.9715 12.5409 94.8329 12.3774 95.6831 12.3774C97.8982 12.3774 99.6434 13.0642 100.919 14.4378C102.216 15.7895 102.865 17.5883 102.865 19.834C102.865 22.2541 102.105 24.1837 100.583 25.6227C99.0616 27.0398 97.0256 27.7484 94.4749 27.7484C91.9466 27.7484 89.8882 27.1816 88.2996 26.0478ZM95.079 14.8302C94.2959 14.8302 93.524 15.0155 92.7633 15.3862C92.0026 15.7568 91.4097 16.2038 90.9845 16.7271V24.2818C92.0138 24.9577 93.222 25.2956 94.6092 25.2956C96.1977 25.2956 97.4954 24.816 98.5023 23.8566C99.5091 22.8973 100.013 21.6218 100.013 20.0302C100.013 18.4168 99.5651 17.1522 98.6701 16.2365C97.7751 15.299 96.5781 14.8302 95.079 14.8302Z" fill="#1F4CE4"/>
<path d="M109.404 33.9623H106.719V12.7044H109.404V14.4378C109.941 13.8273 110.679 13.3367 111.619 12.9661C112.559 12.5736 113.532 12.3774 114.539 12.3774C116.687 12.3774 118.376 13.0751 119.607 14.4705C120.882 15.844 121.52 17.6319 121.52 19.834C121.52 22.0797 120.792 23.9656 119.338 25.4918C117.906 26.9962 116.016 27.7484 113.666 27.7484C111.854 27.7484 110.433 27.4105 109.404 26.7346V33.9623ZM113.767 14.8302C111.977 14.8302 110.523 15.5061 109.404 16.8579V24.151C110.59 24.9141 111.932 25.2956 113.431 25.2956C115.02 25.2956 116.284 24.805 117.224 23.8239C118.186 22.821 118.667 21.5237 118.667 19.9321C118.667 18.3841 118.231 17.1522 117.358 16.2365C116.485 15.299 115.288 14.8302 113.767 14.8302Z" fill="#1F4CE4"/>
<path d="M126.576 25.59C125.099 24.1074 124.361 22.265 124.361 20.0629C124.361 17.839 125.099 16.0076 126.576 14.5686C128.075 13.1078 130.022 12.3774 132.416 12.3774C134.81 12.3774 136.745 13.1078 138.222 14.5686C139.721 16.0076 140.47 17.839 140.47 20.0629C140.47 22.2868 139.721 24.1292 138.222 25.59C136.745 27.0289 134.81 27.7484 132.416 27.7484C130.044 27.7484 128.098 27.0289 126.576 25.59ZM128.69 16.3019C127.706 17.2612 127.214 18.5149 127.214 20.0629C127.214 21.6109 127.695 22.8646 128.657 23.8239C129.641 24.805 130.894 25.2956 132.416 25.2956C133.937 25.2956 135.179 24.816 136.141 23.8566C137.125 22.8755 137.618 21.6109 137.618 20.0629C137.618 18.5585 137.125 17.3048 136.141 16.3019C135.179 15.3208 133.937 14.8302 132.416 14.8302C130.894 14.8302 129.653 15.3208 128.69 16.3019Z" fill="#1F4CE4"/>
<path d="M147.768 27.4214H145.083V12.7044H147.768V27.4214ZM144.747 7.17738C144.747 6.71951 144.915 6.34886 145.251 6.06543C145.586 5.76019 146 5.60757 146.492 5.60757C146.962 5.60757 147.354 5.76019 147.667 6.06543C147.98 6.34886 148.137 6.71951 148.137 7.17738C148.137 7.67884 147.98 8.0931 147.667 8.42014C147.354 8.72539 146.962 8.87801 146.492 8.87801C146 8.87801 145.586 8.72539 145.251 8.42014C144.915 8.0931 144.747 7.67884 144.747 7.17738Z" fill="#1F4CE4"/>
<path d="M156.01 27.4214H153.325V12.7044H156.01V14.5032C156.569 13.8927 157.296 13.4021 158.191 13.0315C159.108 12.639 160.026 12.4428 160.943 12.4428C165.127 12.4428 167.219 14.6013 167.219 18.9183V27.4214H164.534V19.4088C164.534 16.4 163.113 14.8956 160.272 14.8956C158.571 14.8956 157.151 15.5279 156.01 16.7925V27.4214Z" fill="#1F4CE4"/>
<path d="M171.408 21.8289V8.61637H174.093V12.7044H179.631V15.1572H174.093V21.5673C174.093 24.0092 174.988 25.2302 176.778 25.2302C177.651 25.2302 178.445 24.9577 179.161 24.4126L180 26.4403C178.949 27.2688 177.662 27.683 176.141 27.683C174.507 27.683 173.31 27.2034 172.55 26.244C171.789 25.2847 171.408 23.813 171.408 21.8289Z" fill="#1F4CE4"/>
<path fill-rule="evenodd" clip-rule="evenodd" d="M15.2246 32.2149C15.2246 31.06 14.3924 30.0913 13.3052 29.7019C8.35162 27.9279 4.80775 23.192 4.80775 17.6284C4.80775 10.5478 10.5478 4.80775 17.6284 4.80775C24.7091 4.80775 30.4491 10.5478 30.4491 17.6284C30.4491 23.192 26.9052 27.9279 21.9517 29.7019C20.8645 30.0913 20.0323 31.06 20.0323 32.2149V32.3405C20.0323 33.7972 21.3266 34.9302 22.7214 34.51C29.9742 32.3249 35.2569 25.5936 35.2569 17.6284C35.2569 7.89252 27.3643 0 17.6284 0C7.89252 0 0 7.89252 0 17.6284C0 25.5936 5.28264 32.3249 12.5355 34.51C13.9303 34.9302 15.2246 33.7971 15.2246 32.3404V32.2149Z" fill="#1F4CE4"/>
<path fill-rule="evenodd" clip-rule="evenodd" d="M15.2246 32.0517V35.0943C6.62584 33.9219 0 26.5489 0 17.6284C0 7.89252 7.89252 0 17.6284 0C27.3643 0 35.2569 7.89252 35.2569 17.6284C35.2569 26.5489 28.631 33.9219 20.0323 35.0943V32.0517H22.4362V29.5172C27.1347 27.6153 30.4491 23.0089 30.4491 17.6284C30.4491 10.5478 24.7091 4.80776 17.6284 4.80776C10.5478 4.80776 4.80775 10.5478 4.80775 17.6284C4.80775 23.0089 8.12217 27.6153 12.8207 29.5172V32.0517H15.2246Z" fill="#1F4CE4"/>
</svg>
