<svg width="39" height="39" viewBox="0 0 39 39" fill="none" xmlns="http://www.w3.org/2000/svg">
<mask id="mask0" mask-type="alpha" maskUnits="userSpaceOnUse" x="0" y="0" width="39" height="39">
<path fill-rule="evenodd" clip-rule="evenodd" d="M19.5 16.25C17.7051 16.25 16.25 17.7051 16.25 19.5C16.25 21.2949 17.7051 22.75 19.5 22.75C21.2949 22.75 22.75 21.2949 22.75 19.5C22.75 17.7051 21.2949 16.25 19.5 16.25ZM13 19.5C13 15.9101 15.9101 13 19.5 13C23.0899 13 26 15.9101 26 19.5C26 23.0899 23.0899 26 19.5 26C15.9101 26 13 23.0899 13 19.5Z" fill="#061938"/>
<path fill-rule="evenodd" clip-rule="evenodd" d="M19.5 3.25C19.069 3.25 18.6557 3.4212 18.351 3.72595C18.0462 4.0307 17.875 4.44402 17.875 4.875V5.15773C17.8716 5.99755 17.6228 6.81805 17.1591 7.51825C16.6954 8.21844 16.0371 8.76777 15.2651 9.0986C15.1277 9.15749 14.9832 9.197 14.8356 9.21629C14.1342 9.46192 13.3792 9.52246 12.6441 9.38919C11.7975 9.23568 11.0163 8.83207 10.4012 8.2304L10.3884 8.21787L10.291 8.1203C10.14 7.96921 9.96017 7.84871 9.7629 7.76694C9.56563 7.68516 9.35417 7.64307 9.14062 7.64307C8.92708 7.64307 8.71562 7.68516 8.51835 7.76694C8.32108 7.84871 8.14186 7.96857 7.99094 8.11966L7.98966 8.12094C7.83857 8.27186 7.71871 8.45108 7.63694 8.64835C7.55516 8.84562 7.51307 9.05707 7.51307 9.27063C7.51307 9.48417 7.55516 9.69563 7.63694 9.8929C7.71871 10.0902 7.83857 10.2694 7.98966 10.4203L8.10047 10.5311C8.70214 11.1462 9.10568 11.9275 9.25919 12.7741C9.40964 13.6039 9.31308 14.4592 8.98211 15.234C8.68057 16.0247 8.15259 16.7093 7.4637 17.2021C6.76088 17.7047 5.9231 17.9844 5.05925 18.0046L5.02125 18.005H4.875C4.44402 18.005 4.0307 18.1762 3.72595 18.481C3.4212 18.7857 3.25 19.199 3.25 19.63C3.25 20.061 3.4212 20.4743 3.72595 20.779C4.0307 21.0838 4.44402 21.255 4.875 21.255H5.15773C5.99755 21.2584 6.81805 21.5072 7.51825 21.9709C8.21601 22.433 8.76395 23.0884 9.09515 23.8568C9.43976 24.6419 9.54218 25.5121 9.38919 26.3559C9.23568 27.2025 8.83207 27.9837 8.2304 28.5988L8.21786 28.6116L8.12029 28.7091C7.96921 28.86 7.84871 29.0398 7.76694 29.2371C7.68516 29.4344 7.64307 29.6458 7.64307 29.8594C7.64307 30.0729 7.68516 30.2844 7.76694 30.4817C7.84871 30.6789 7.96857 30.8581 8.11966 31.0091L8.12094 31.0103C8.27185 31.1614 8.45107 31.2813 8.64835 31.3631C8.84562 31.4448 9.05708 31.4869 9.27063 31.4869C9.48417 31.4869 9.69563 31.4448 9.8929 31.3631C10.0902 31.2813 10.2694 31.1614 10.4203 31.0103L10.5311 30.8995C11.1462 30.2979 11.9275 29.8943 12.7741 29.7408C13.6039 29.5904 14.4592 29.6869 15.234 30.0179C16.0247 30.3194 16.7093 30.8474 17.2021 31.5363C17.7047 32.2391 17.9844 33.0769 18.0046 33.9408L18.005 33.9787V34.125C18.005 34.556 18.1762 34.9693 18.481 35.274C18.7857 35.5788 19.199 35.75 19.63 35.75C20.061 35.75 20.4743 35.5788 20.779 35.274C21.0838 34.9693 21.255 34.556 21.255 34.125V33.8488L21.255 33.8423C21.2584 33.0025 21.5072 32.1819 21.9709 31.4818C22.433 30.7839 23.0885 30.236 23.857 29.9048C24.6421 29.5602 25.5122 29.4578 26.3559 29.6108C27.2025 29.7643 27.9837 30.1679 28.5988 30.7696L28.6116 30.7821L28.709 30.8797C28.86 31.0308 29.0398 31.1513 29.2371 31.2331C29.4344 31.3148 29.6458 31.3569 29.8594 31.3569C30.0729 31.3569 30.2844 31.3148 30.4817 31.2331C30.6789 31.1513 30.8581 31.0314 31.0091 30.8803L31.0103 30.8791C31.1614 30.7281 31.2813 30.5489 31.3631 30.3517C31.4448 30.1544 31.4869 29.9429 31.4869 29.7294C31.4869 29.5158 31.4448 29.3044 31.3631 29.1071C31.2813 28.9098 31.1614 28.7306 31.0103 28.5797L30.8995 28.4689C30.2979 27.8538 29.8943 27.0725 29.7408 26.2259C29.5878 25.3822 29.6902 24.5121 30.0348 23.727C30.366 22.9585 30.9139 22.303 31.6118 21.8409C32.3119 21.3772 33.1325 21.1284 33.9723 21.125L33.9787 21.125L34.125 21.125C34.556 21.125 34.9693 20.9538 35.274 20.649C35.5788 20.3443 35.75 19.931 35.75 19.5C35.75 19.069 35.5788 18.6557 35.274 18.351C34.9693 18.0462 34.556 17.875 34.125 17.875H33.8488L33.8423 17.875C33.0025 17.8716 32.1819 17.6228 31.4818 17.1591C30.7816 16.6954 30.2322 16.0371 29.9014 15.2651C29.8425 15.1277 29.803 14.9832 29.7837 14.8356C29.5381 14.1342 29.4775 13.3792 29.6108 12.6441C29.7643 11.7975 30.1679 11.0163 30.7696 10.4012L30.7821 10.3884L30.8797 10.291C31.0308 10.14 31.1513 9.96017 31.2331 9.7629C31.3148 9.56563 31.3569 9.35417 31.3569 9.14062C31.3569 8.92708 31.3148 8.71562 31.2331 8.51835C31.1513 8.32108 31.0314 8.14186 30.8803 7.99094L30.8791 7.98966C30.7281 7.83857 30.5489 7.71871 30.3517 7.63694C30.1544 7.55516 29.9429 7.51307 29.7294 7.51307C29.5158 7.51307 29.3044 7.55516 29.1071 7.63694C28.9098 7.71872 28.7306 7.83857 28.5797 7.98966L28.4689 8.10047C27.8538 8.70214 27.0725 9.10568 26.2259 9.25919C25.3821 9.41218 24.5119 9.30976 23.7268 8.96515C22.9584 8.63395 22.303 8.08601 21.8409 7.38825C21.3772 6.68805 21.1284 5.86755 21.125 5.02773L21.125 5.02125V4.875C21.125 4.44402 20.9538 4.0307 20.649 3.72595C20.3443 3.4212 19.931 3.25 19.5 3.25ZM31.525 24.375L33.0117 25.0311C32.9264 25.2242 32.901 25.4384 32.9387 25.646C32.9759 25.8514 33.0732 26.0411 33.218 26.1912L33.3072 26.2803C33.307 26.2801 33.3074 26.2805 33.3072 26.2803C33.7601 26.7329 34.1201 27.271 34.3653 27.8625C34.6107 28.4544 34.7369 29.0887 34.7369 29.7294C34.7369 30.37 34.6107 31.0044 34.3653 31.5962C34.12 32.188 33.7604 32.7257 33.3072 33.1784L32.1588 32.0287L33.3084 33.1772C32.8557 33.6304 32.318 33.99 31.7262 34.2353C31.1344 34.4807 30.5 34.6069 29.8594 34.6069C29.2187 34.6069 28.5844 34.4807 27.9925 34.2353C27.401 33.9901 26.8636 33.6308 26.4109 33.1778C26.4112 33.178 26.4107 33.1776 26.4109 33.1778L26.3212 33.0881C26.1711 32.9432 25.9814 32.8459 25.776 32.8087C25.5684 32.771 25.3542 32.7964 25.1611 32.8816L25.1452 32.8887C24.9558 32.9698 24.7943 33.1045 24.6806 33.2762C24.5673 33.4473 24.5063 33.6477 24.505 33.8528V34.125C24.505 35.4179 23.9914 36.6579 23.0771 37.5721C22.1629 38.4864 20.9229 39 19.63 39C18.3371 39 17.0971 38.4864 16.1829 37.5721C15.2686 36.6579 14.755 35.4179 14.755 34.125V34.0021C14.7473 33.7954 14.6791 33.5954 14.5586 33.427C14.4353 33.2546 14.263 33.1233 14.0641 33.0501C14.032 33.0383 14.0002 33.0255 13.9689 33.0117C13.7758 32.9264 13.5616 32.901 13.354 32.9387C13.1486 32.9759 12.9588 33.0732 12.8087 33.2181L12.7197 33.3072C12.7199 33.307 12.7195 33.3074 12.7197 33.3072C12.2671 33.7601 11.729 34.1201 11.1375 34.3653C10.5456 34.6107 9.91128 34.7369 9.27063 34.7369C8.62997 34.7369 7.9956 34.6107 7.40379 34.3653C6.81254 34.1202 6.27533 33.7611 5.82284 33.3084C5.36958 32.8557 5.01 32.318 4.76467 31.7262C4.51934 31.1344 4.39307 30.5 4.39307 29.8594C4.39307 29.2187 4.51934 28.5844 4.76467 27.9925C5.01 27.4007 5.36958 26.8631 5.82284 26.4103L5.91193 26.3212C6.05684 26.1711 6.15409 25.9814 6.19133 25.776C6.22898 25.5684 6.20356 25.3542 6.11835 25.1611L6.11131 25.1452C6.03016 24.9558 5.89551 24.7943 5.72376 24.6806C5.55269 24.5673 5.35233 24.5063 5.14719 24.505H4.875C3.58207 24.505 2.34209 23.9914 1.42785 23.0771C0.513615 22.1629 0 20.9229 0 19.63C0 18.3371 0.513615 17.0971 1.42785 16.1829C2.34209 15.2686 3.58207 14.755 4.875 14.755H4.99791C5.20461 14.7473 5.40461 14.6791 5.57302 14.5586C5.74541 14.4353 5.87672 14.263 5.94988 14.0641C5.9617 14.032 5.97453 14.0002 5.98835 13.9689C6.07356 13.7758 6.09898 13.5616 6.06133 13.354C6.02409 13.1486 5.92683 12.9589 5.78191 12.8088L5.69284 12.7197C5.23958 12.2669 4.88001 11.7293 4.63467 11.1375C4.38934 10.5456 4.26307 9.91128 4.26307 9.27063C4.26307 8.62997 4.38934 7.99561 4.63467 7.40379C4.87989 6.81225 5.23924 6.27482 5.6922 5.8222C6.14482 5.36924 6.68225 5.00989 7.27379 4.76467C7.86561 4.51934 8.49997 4.39307 9.14062 4.39307C9.78128 4.39307 10.4156 4.51934 11.0075 4.76467C11.5993 5.01001 12.1369 5.36958 12.5897 5.82284L12.6788 5.91191C12.8289 6.05683 13.0186 6.15409 13.224 6.19133C13.4316 6.22898 13.6458 6.20356 13.8389 6.11835C13.9429 6.07242 14.0513 6.03767 14.162 6.01449C14.2753 5.93758 14.3731 5.839 14.4494 5.72376C14.5627 5.55269 14.6237 5.35233 14.625 5.14719V4.875C14.625 3.58207 15.1386 2.34209 16.0529 1.42785C16.9671 0.513615 18.2071 0 19.5 0C20.7929 0 22.0329 0.513615 22.9471 1.42785C23.8614 2.34209 24.375 3.58207 24.375 4.875V5.01719C24.3763 5.22233 24.4373 5.42269 24.5506 5.59376C24.6643 5.76551 24.8258 5.90025 25.0151 5.9814L25.0312 5.98826C25.2242 6.07348 25.4384 6.09898 25.646 6.06133C25.8514 6.02409 26.0411 5.92684 26.1912 5.78193L26.2803 5.69284C26.7331 5.23958 27.2707 4.88 27.8625 4.63467C28.4544 4.38934 29.0887 4.26307 29.7294 4.26307C30.37 4.26307 31.0044 4.38934 31.5962 4.63467C32.188 4.88001 32.7257 5.23958 33.1784 5.69284C33.6311 6.14533 33.9902 6.68253 34.2353 7.27379C34.4807 7.8656 34.6069 8.49997 34.6069 9.14062C34.6069 9.78128 34.4807 10.4156 34.2353 11.0075C33.9901 11.599 33.6308 12.1364 33.1778 12.589C33.178 12.5888 33.1776 12.5893 33.1778 12.589L33.0881 12.6788C32.9432 12.8289 32.8459 13.0186 32.8087 13.224C32.771 13.4316 32.7964 13.6458 32.8816 13.8389C32.9276 13.9429 32.9623 14.0513 32.9855 14.162C33.0624 14.2753 33.161 14.3731 33.2762 14.4494C33.4473 14.5627 33.6477 14.6237 33.8528 14.625H34.125C35.4179 14.625 36.6579 15.1386 37.5721 16.0529C38.4864 16.9671 39 18.2071 39 19.5C39 20.7929 38.4864 22.0329 37.5721 22.9471C36.6579 23.8614 35.4179 24.375 34.125 24.375H33.9828C33.7777 24.3763 33.5773 24.4373 33.4062 24.5506C33.2345 24.6643 33.0997 24.8258 33.0186 25.0151L31.525 24.375Z" fill="#061938"/>
</mask>
<g mask="url(#mask0)">
<rect width="39" height="39" fill="#1F4CE4"/>
</g>
</svg>
