<svg width="53" height="32" viewBox="0 0 53 32" fill="none" xmlns="http://www.w3.org/2000/svg">
<path fill-rule="evenodd" clip-rule="evenodd" d="M47.516 0H4.86315C2.16386 0 -0.0212667 2.23958 0.000156186 4.95753V21.4826C0.000156186 24.2223 2.18529 26.4401 4.88457 26.4401H25.0863L34.3196 31.6586L32.2201 26.4401H47.516C50.2154 26.4401 52.4004 24.2223 52.4004 21.4826V4.95753C52.4004 2.21783 50.2154 0 47.516 0ZM3.96348 3.82686C3.36364 3.87035 2.91375 4.08779 2.61383 4.5009C2.31392 4.89229 2.20681 5.39239 2.27107 5.95772C3.53502 14.1116 4.71327 19.6127 5.80584 22.4611C6.2343 23.5047 6.72702 24.0049 7.30544 23.9615C8.20519 23.8961 9.27633 22.6351 10.5403 20.1781C11.2044 18.7864 12.2327 16.6991 13.6252 13.9158C14.782 18.0253 16.3672 21.113 18.3596 23.1786C18.9167 23.7657 19.4951 24.0266 20.052 23.9831C20.5448 23.9396 20.9303 23.6787 21.1874 23.2003C21.4017 22.7872 21.4874 22.3088 21.4445 21.7652C21.316 19.7866 21.5088 17.0252 22.0444 13.481C22.6013 9.82808 23.2869 7.1971 24.1224 5.63157C24.2938 5.30542 24.358 4.97926 24.3366 4.58788C24.2938 4.08777 24.0795 3.67465 23.6725 3.3485C23.2655 3.02235 22.8155 2.87015 22.3228 2.91363C21.7016 2.95712 21.2303 3.26152 20.909 3.87035C19.5808 6.32736 18.6381 10.3064 18.0812 15.8293C17.2671 13.7419 16.5815 11.2849 16.0459 8.393C15.8103 7.11014 15.2319 6.50131 14.2893 6.56655C13.6466 6.61003 13.111 7.0449 12.6826 7.87115L7.99097 16.9382C7.21975 13.7854 6.49137 9.9368 5.82726 5.39239C5.6773 4.26173 5.05603 3.73988 3.96348 3.82686ZM45.2453 5.39246C46.7664 5.71862 47.9018 6.54487 48.6729 7.91471C49.3585 9.08887 49.7012 10.5022 49.7012 12.1982C49.7012 14.4377 49.1443 16.4816 48.0302 18.3516C46.7449 20.526 45.0739 21.6131 42.9959 21.6131C42.6318 21.6131 42.2461 21.5696 41.839 21.4826C40.3181 21.1565 39.1826 20.3303 38.4113 18.9605C37.7259 17.7645 37.3831 16.3295 37.3831 14.6552C37.3831 12.4156 37.9401 10.3717 39.0541 8.52354C40.3609 6.34918 42.0319 5.262 44.0885 5.262C44.4526 5.262 44.8383 5.30549 45.2453 5.39246ZM44.3456 17.1557C45.1382 16.4382 45.6738 15.3727 45.9737 13.9377C46.0594 13.4376 46.1236 12.894 46.1236 12.3286C46.1236 11.6981 45.9951 11.024 45.738 10.35C45.4167 9.50199 44.9882 9.04538 44.474 8.93666C43.7029 8.78445 42.9531 9.21933 42.2461 10.2848C41.6677 11.111 41.3034 11.9808 41.1107 12.8722C41.0035 13.3724 40.9607 13.916 40.9607 14.4595C40.9607 15.0901 41.0892 15.7641 41.3463 16.4382C41.6677 17.2861 42.0961 17.7427 42.6103 17.8515C43.1458 17.9602 43.7242 17.7211 44.3456 17.1557ZM35.2408 7.91471C34.4695 6.54487 33.3127 5.71862 31.8131 5.39246C31.406 5.30549 31.0205 5.262 30.6562 5.262C28.5997 5.262 26.9288 6.34918 25.6219 8.52354C24.5079 10.3717 23.951 12.4156 23.951 14.6552C23.951 16.3295 24.2938 17.7645 24.9792 18.9605C25.7505 20.3303 26.8859 21.1565 28.4069 21.4826C28.8139 21.5696 29.1995 21.6131 29.5638 21.6131C31.6417 21.6131 33.3127 20.526 34.5981 18.3516C35.7121 16.4816 36.269 14.4377 36.269 12.1982C36.269 10.5022 35.9262 9.08887 35.2408 7.91471ZM32.5414 13.9377C32.2416 15.3727 31.706 16.4382 30.9133 17.1557C30.2921 17.7211 29.7137 17.9602 29.1781 17.8515C28.6639 17.7427 28.2355 17.2861 27.9142 16.4382C27.6571 15.7641 27.5285 15.0901 27.5285 14.4595C27.5285 13.916 27.5714 13.3724 27.6786 12.8722C27.8713 11.9808 28.2355 11.111 28.8139 10.2848C29.5209 9.21933 30.2707 8.78445 31.0419 8.93666C31.556 9.04538 31.9845 9.50199 32.3058 10.35C32.5629 11.024 32.6915 11.6981 32.6915 12.3286C32.6915 12.894 32.6486 13.4376 32.5414 13.9377Z" fill="#1F4CE4"/>
</svg>
