<svg width="188" height="188" viewBox="0 0 188 188" fill="none" xmlns="http://www.w3.org/2000/svg">
<rect width="187.523" height="187.523" rx="12.5015" fill="#E9EDFC"/>
<path d="M36.589 113.241C36.589 114.732 35.245 115.53 33.712 115.53C32.473 115.53 30.94 114.921 30.079 113.787L29.05 115.005C29.785 116.391 31.885 117.21 33.691 117.21C36.358 117.21 38.479 115.635 38.479 113.22C38.479 108.201 31.297 109.566 31.297 105.933C31.297 104.631 32.305 103.77 33.943 103.77C35.224 103.77 36.148 104.19 36.925 104.967L37.891 103.623C37.051 102.699 35.539 102.09 33.838 102.09C31.045 102.09 29.407 103.812 29.407 105.933C29.407 110.805 36.589 109.65 36.589 113.241ZM41.0374 121.2H42.7174V116.559C43.3894 117 44.3764 117.21 45.3844 117.21C48.3454 117.21 50.2984 115.005 50.2984 112.128C50.2984 109.335 48.6184 107.34 45.9304 107.34C44.6284 107.34 43.3684 107.907 42.7174 108.663V107.55H41.0374V121.2ZM45.4474 108.915C47.4004 108.915 48.5134 110.28 48.5134 112.191C48.5134 114.186 47.2534 115.635 45.2374 115.635C44.3344 115.635 43.5574 115.467 42.7174 114.9V110.217C43.3054 109.482 44.3344 108.915 45.4474 108.915ZM60.1613 114.648C59.5523 115.215 58.4813 115.635 57.2633 115.635C55.4153 115.635 54.1133 114.585 53.9663 112.8H61.2323C61.2953 112.506 61.3373 112.128 61.3373 111.666C61.3373 109.062 59.3843 107.34 56.9483 107.34C53.8403 107.34 52.0763 109.524 52.0763 112.275C52.0763 115.257 54.0713 117.21 57.1373 117.21C58.3973 117.21 59.7623 116.811 60.6863 115.971L60.1613 114.648ZM56.8643 108.915C58.5023 108.915 59.5103 109.881 59.5943 111.435H53.8613C54.0503 109.986 55.1423 108.915 56.8643 108.915ZM70.9484 114.648C70.3394 115.215 69.2684 115.635 68.0504 115.635C66.2024 115.635 64.9004 114.585 64.7534 112.8H72.0194C72.0824 112.506 72.1244 112.128 72.1244 111.666C72.1244 109.062 70.1714 107.34 67.7354 107.34C64.6274 107.34 62.8634 109.524 62.8634 112.275C62.8634 115.257 64.8584 117.21 67.9244 117.21C69.1844 117.21 70.5494 116.811 71.4734 115.971L70.9484 114.648ZM67.6514 108.915C69.2894 108.915 70.2974 109.881 70.3814 111.435H64.6484C64.8374 109.986 65.9294 108.915 67.6514 108.915ZM81.3336 117H83.0136V102.3H81.3336V108.012C80.6826 107.55 79.9476 107.34 78.9396 107.34C75.9576 107.34 73.7736 109.398 73.7736 112.338C73.7736 115.257 75.5586 117.168 78.3306 117.168C79.6116 117.168 80.6406 116.559 81.3336 115.803V117ZM78.6456 115.593C76.8816 115.593 75.5586 114.375 75.5586 112.296C75.5586 110.217 77.1336 108.915 79.0026 108.915C79.7796 108.915 80.5356 109.146 81.3336 109.65V114.333C80.7456 114.984 79.7376 115.593 78.6456 115.593ZM29.05 136.65C29.05 141.123 32.284 144.21 36.547 144.21C40.81 144.21 44.044 141.018 44.044 136.65C44.044 132.177 40.81 129.09 36.547 129.09C32.179 129.09 29.05 132.387 29.05 136.65ZM30.94 136.65C30.94 133.227 33.355 130.77 36.547 130.77C39.697 130.77 42.154 133.227 42.154 136.65C42.154 139.968 39.907 142.53 36.547 142.53C33.397 142.53 30.94 139.989 30.94 136.65ZM46.6155 148.2H48.2955V143.559C48.9675 144 49.9545 144.21 50.9625 144.21C53.9235 144.21 55.8765 142.005 55.8765 139.128C55.8765 136.335 54.1965 134.34 51.5085 134.34C50.2065 134.34 48.9465 134.907 48.2955 135.663V134.55H46.6155V148.2ZM51.0255 135.915C52.9785 135.915 54.0915 137.28 54.0915 139.191C54.0915 141.186 52.8315 142.635 50.8155 142.635C49.9125 142.635 49.1355 142.467 48.2955 141.9V137.217C48.8835 136.482 49.9125 135.915 51.0255 135.915ZM58.0745 140.409C58.0745 142.824 58.9145 144.168 61.0355 144.168C62.0855 144.168 62.9465 143.79 63.4505 143.37L62.9255 142.068C62.5895 142.32 62.0855 142.593 61.4345 142.593C60.2375 142.593 59.7545 141.732 59.7545 140.241V136.125H63.2195V134.55H59.7545V131.925H58.0745V140.409ZM66.1498 144H67.8298V134.55H66.1498V144ZM65.9398 131.001C65.9398 131.694 66.4438 132.093 67.0318 132.093C67.5568 132.093 68.0608 131.694 68.0608 131.001C68.0608 130.392 67.5568 129.993 67.0318 129.993C66.4438 129.993 65.9398 130.392 65.9398 131.001ZM85.3349 137.805C85.3349 135.222 84.0329 134.382 82.2899 134.382C80.8619 134.382 79.6439 135.054 78.9719 136.02C78.6149 135.033 77.5859 134.382 76.1159 134.382C74.8979 134.382 73.6799 134.928 72.9869 135.747V134.55H71.3069V144H72.9869V137.238C73.4699 136.545 74.3729 135.957 75.4649 135.957C76.7879 135.957 77.4809 136.755 77.4809 137.91V144H79.1609V137.994C79.1609 137.784 79.1609 137.49 79.1399 137.322C79.5809 136.545 80.4839 135.957 81.6179 135.957C82.9829 135.957 83.6549 136.713 83.6549 138.267V144H85.3349V137.805ZM88.6263 144H90.3063V134.55H88.6263V144ZM88.4163 131.001C88.4163 131.694 88.9203 132.093 89.5083 132.093C90.0333 132.093 90.5373 131.694 90.5373 131.001C90.5373 130.392 90.0333 129.993 89.5083 129.993C88.9203 129.993 88.4163 130.392 88.4163 131.001ZM93.5315 136.125H99.1175L93.2165 142.824V144H101.406V142.425H95.5895L101.511 135.726V134.55H93.5315V136.125ZM104.48 136.545C105.236 136.146 105.929 135.852 107.084 135.852C108.953 135.852 109.226 137.07 109.226 138.834C108.596 138.372 107.609 138.225 106.874 138.225C104.837 138.225 103.304 139.296 103.304 141.228C103.304 143.055 104.48 144.147 106.202 144.147C107.756 144.147 108.659 143.496 109.226 142.782V144H110.822V138.204C110.822 135.747 109.877 134.34 107.189 134.34C106.013 134.34 104.879 134.676 104.039 135.201L104.48 136.545ZM106.79 142.635C105.698 142.635 105.089 142.047 105.089 141.144C105.089 140.052 106.097 139.59 107.105 139.59C107.924 139.59 108.638 139.8 109.226 140.22V141.417C108.743 141.984 108.029 142.635 106.79 142.635ZM113.425 140.409C113.425 142.824 114.265 144.168 116.386 144.168C117.436 144.168 118.297 143.79 118.801 143.37L118.276 142.068C117.94 142.32 117.436 142.593 116.785 142.593C115.588 142.593 115.105 141.732 115.105 140.241V136.125H118.57V134.55H115.105V131.925H113.425V140.409ZM121.5 144H123.18V134.55H121.5V144ZM121.29 131.001C121.29 131.694 121.794 132.093 122.382 132.093C122.907 132.093 123.411 131.694 123.411 131.001C123.411 130.392 122.907 129.993 122.382 129.993C121.794 129.993 121.29 130.392 121.29 131.001ZM126.028 139.275C126.028 142.11 128.044 144.21 131.068 144.21C134.092 144.21 136.108 142.11 136.108 139.275C136.108 136.44 134.092 134.34 131.068 134.34C128.044 134.34 126.028 136.44 126.028 139.275ZM127.813 139.275C127.813 137.28 129.22 135.915 131.068 135.915C132.958 135.915 134.323 137.301 134.323 139.275C134.323 141.291 132.958 142.635 131.068 142.635C129.178 142.635 127.813 141.249 127.813 139.275ZM138.532 144H140.212V137.175C140.821 136.482 141.808 135.957 142.879 135.957C144.643 135.957 145.546 136.881 145.546 138.855V144H147.226V138.54C147.226 135.579 145.756 134.382 143.299 134.382C142.06 134.382 140.863 134.991 140.212 135.705V134.55H138.532V144Z" fill="#1F4CE4"/>
<path d="M51.4828 40L45.6263 59.808H32.1465L51.4828 40Z" fill="#1F4CE4"/>
<path d="M33.3492 79.616L39.2057 59.808L52.6855 59.808L33.3492 79.616Z" fill="#1F4CE4"/>
</svg>
