<svg width="62" height="60" viewBox="0 0 62 60" fill="none" xmlns="http://www.w3.org/2000/svg">
<g clip-path="url(#clip0)">
<path d="M10.8974 0H50.641C56.6667 0 61.5385 4.8718 61.5385 10.8974V49.1026C61.5385 55.1282 56.6667 60 50.641 60H10.8974C4.87179 60 0 55.1282 0 49.1026V10.8974C0 4.8718 4.87179 0 10.8974 0Z" fill="#470137"/>
<path d="M32.3595 15.7694L24.6672 28.4617L32.8723 41.9232C32.9236 42.0258 32.9493 42.1284 32.9236 42.2309C32.898 42.3335 32.7954 42.2566 32.6416 42.2822H26.7698C26.3595 42.2822 26.0775 42.2566 25.898 42.0001C25.3595 40.9232 24.7954 39.8719 24.257 38.795C23.7185 37.7437 23.1287 36.6668 22.5134 35.5643C21.898 34.4617 21.2826 33.3591 20.6672 32.2309H20.6159C20.0775 33.3335 19.4877 34.436 18.898 35.5386C18.3082 36.6412 17.7185 37.7437 17.1544 38.8207C16.5646 39.8976 15.9749 41.0001 15.3852 42.0514C15.2826 42.3078 15.0775 42.3335 14.7954 42.3335H9.15439C9.05183 42.3335 8.9749 42.3848 8.9749 42.2566C8.94926 42.154 8.9749 42.0514 9.02619 41.9745L17.0005 28.8976L9.23131 15.7437C9.15439 15.6412 9.12875 15.5386 9.18003 15.4873C9.23131 15.4104 9.33388 15.3848 9.43644 15.3848H15.257C15.3852 15.3848 15.5134 15.4104 15.6159 15.436C15.7185 15.4873 15.7954 15.5643 15.8723 15.6668C16.3595 16.7694 16.9236 17.8719 17.5134 18.9745C18.1287 20.0771 18.7185 21.154 19.3595 22.2309C19.9749 23.3078 20.539 24.3848 21.0775 25.4873H21.1287C21.6672 24.3591 22.2313 23.2566 22.7954 22.1796C23.3595 21.1027 23.9493 20.0258 24.539 18.9489C25.1287 17.8719 25.6928 16.7694 26.257 15.7181C26.2826 15.6155 26.3339 15.513 26.4108 15.4617C26.5134 15.4104 26.6159 15.3848 26.7441 15.4104H32.1544C32.2826 15.3848 32.4108 15.4617 32.4364 15.5899C32.4621 15.6155 32.4108 15.7181 32.3595 15.7694Z" fill="#FF61F6"/>
<path d="M44.206 42.8206C42.3086 42.8462 40.4111 42.4616 38.6932 41.6667C37.0778 40.9231 35.7445 39.6923 34.8214 38.1795C33.8727 36.6154 33.4111 34.6667 33.4111 32.3334C33.3855 30.4359 33.8727 28.5641 34.8214 26.9231C35.7957 25.2565 37.206 23.8718 38.8983 22.9488C40.6932 21.9488 42.847 21.4616 45.3855 21.4616C45.5137 21.4616 45.6932 21.4616 45.9239 21.4872C46.1547 21.5129 46.4111 21.5129 46.7188 21.5385V13.4359C46.7188 13.2565 46.7957 13.1539 46.9752 13.1539H52.1803C52.3086 13.1282 52.4111 13.2308 52.4368 13.3334C52.4368 13.359 52.4368 13.3847 52.4368 13.3847V37.7949C52.4368 38.2564 52.4624 38.7693 52.488 39.3334C52.5393 39.8718 52.565 40.3847 52.5906 40.8206C52.5906 41 52.5137 41.1539 52.3342 41.2308C51.0009 41.7949 49.5906 42.2052 48.1547 42.4616C46.847 42.6924 45.5393 42.8206 44.206 42.8206ZM46.7188 37.6923V26.4103C46.488 26.359 46.2573 26.3077 46.0265 26.2821C45.7445 26.2565 45.4624 26.2308 45.1803 26.2308C44.1803 26.2308 43.1803 26.4359 42.2829 26.8975C41.4111 27.3334 40.6675 27.9744 40.1034 28.7949C39.5393 29.6154 39.2573 30.718 39.2573 32.0513C39.2316 32.9488 39.3855 33.8462 39.6932 34.6924C39.9496 35.3847 40.3342 36 40.847 36.5129C41.3342 36.9744 41.9239 37.3334 42.5906 37.5385C43.2829 37.7693 44.0009 37.8718 44.7188 37.8718C45.1034 37.8718 45.4624 37.8462 45.7957 37.8206C46.1291 37.8462 46.4111 37.7949 46.7188 37.6923Z" fill="#FF61F6"/>
</g>
<defs>
<clipPath id="clip0">
<rect width="61.5385" height="60" fill="white"/>
</clipPath>
</defs>
</svg>
