<svg width="102" height="33" viewBox="0 0 102 33" fill="none" xmlns="http://www.w3.org/2000/svg">
<g clip-path="url(#clip0)">
<path fill-rule="evenodd" clip-rule="evenodd" d="M0 29.009C0 30.8754 1.51326 32.3887 3.37969 32.3887H98.0109C99.8774 32.3887 101.391 30.8754 101.391 29.009V3.37969C101.391 1.51326 99.8774 0 98.0109 0H3.37969C1.51326 0 0 1.51326 0 3.37969V29.009Z" fill="#CC0000"/>
<path d="M16.1699 21.5271C16.206 20.9323 16.242 20.049 16.242 19.274V8.73047H17.8099V14.2098H17.846C18.4047 13.2364 19.4141 12.6056 20.8198 12.6056C22.9828 12.6056 24.5147 14.4078 24.4966 17.0575C24.4966 20.1755 22.5319 21.7256 20.5855 21.7256C19.3237 21.7256 18.3146 21.239 17.6657 20.0854H17.6116L17.5395 21.5274H16.1699V21.5271ZM17.8099 18.0305C17.8099 18.2288 17.846 18.4271 17.882 18.6073C18.1884 19.7068 19.1077 20.4639 20.261 20.4639C21.9193 20.4639 22.9107 19.112 22.9107 17.1115C22.9107 15.3631 22.0095 13.867 20.3154 13.867C19.2339 13.867 18.2245 14.6061 17.9 15.8137C17.864 15.994 17.8099 16.2103 17.8099 16.4626V18.0305Z" fill="white"/>
<path d="M31.7361 21.5275L31.6099 20.428H31.5558C31.0691 21.1129 30.1318 21.7258 28.8881 21.7258C27.122 21.7258 26.2207 20.482 26.2207 19.2203C26.2207 17.1116 28.0953 15.958 31.4657 15.9761V15.7958C31.4657 15.0748 31.2674 13.7773 29.4832 13.7773C28.6721 13.7773 27.8249 14.0297 27.2124 14.4262L26.8519 13.381C27.5729 12.9124 28.618 12.606 29.7176 12.606C32.3853 12.606 33.0339 14.4262 33.0339 16.1746V19.4369C33.0339 20.1939 33.0699 20.9327 33.1781 21.5275H31.7361ZM31.5017 17.0756C29.7713 17.0395 27.8069 17.346 27.8069 19.04C27.8069 20.0675 28.4919 20.5539 29.303 20.5539C30.4386 20.5539 31.1593 19.8329 31.4116 19.0941C31.4657 18.9319 31.5017 18.7516 31.5017 18.5894V17.0756Z" fill="white"/>
<path d="M35.8574 8.73047H37.4433V21.5274H35.8574V8.73047Z" fill="white"/>
<path d="M40.0707 19.9048C40.5393 20.2112 41.3682 20.5357 42.1613 20.5357C43.3149 20.5357 43.8556 19.9589 43.8556 19.2379C43.8556 18.4808 43.405 18.0662 42.2334 17.6336C40.6655 17.0751 39.9265 16.2099 39.9265 15.1645C39.9265 13.7585 41.062 12.6052 42.9366 12.6052C43.8199 12.6052 44.5947 12.8576 45.0813 13.146L44.6848 14.2996C44.3423 14.0833 43.7114 13.7949 42.9006 13.7949C41.9633 13.7949 41.4406 14.3356 41.4406 14.9845C41.4406 15.7055 41.963 16.03 43.0986 16.4626C44.6127 17.0394 45.3875 17.7964 45.3875 19.0942C45.3875 20.6261 44.1978 21.7076 42.1252 21.7076C41.1699 21.7076 40.287 21.4732 39.6738 21.113L40.0707 19.9048Z" fill="white"/>
<path d="M52.7104 21.5275L52.5842 20.428H52.5301C52.0435 21.1129 51.1062 21.7258 49.8627 21.7258C48.0966 21.7258 47.1953 20.482 47.1953 19.2203C47.1953 17.1116 49.0699 15.958 52.4403 15.9761V15.7958C52.4403 15.0748 52.242 13.7773 50.4576 13.7773C49.6467 13.7773 48.7995 14.0297 48.1867 14.4262L47.8262 13.381C48.5472 12.9124 49.5926 12.606 50.6919 12.606C53.3596 12.606 54.0082 14.4262 54.0082 16.1746V19.4369C54.0082 20.1939 54.0442 20.9327 54.1524 21.5275H52.7104ZM52.4761 17.0756C50.7457 17.0395 48.7812 17.346 48.7812 19.04C48.7812 20.0675 49.4662 20.5539 50.2773 20.5539C51.4126 20.5539 52.1339 19.8329 52.386 19.0941C52.44 18.9319 52.4761 18.7516 52.4761 18.5894V17.0756Z" fill="white"/>
<path d="M56.8162 15.1652C56.8162 14.264 56.7982 13.525 56.7441 12.8042H58.1321L58.2042 14.2102H58.258C58.7449 13.381 59.5558 12.606 60.9978 12.606C62.1874 12.606 63.0887 13.327 63.4672 14.3544H63.5032C63.7736 13.8677 64.1161 13.4892 64.4766 13.2188C64.999 12.8223 65.5758 12.606 66.405 12.606C67.5586 12.606 69.271 13.363 69.271 16.3909V21.5278H67.7208V16.5889C67.7208 14.9126 67.108 13.9035 65.8282 13.9035C64.9272 13.9035 64.2242 14.5704 63.9539 15.3455C63.8818 15.5618 63.8277 15.8502 63.8277 16.1383V21.5275H62.2778V16.3005C62.2778 14.9126 61.665 13.9035 60.4573 13.9035C59.4659 13.9035 58.7452 14.6963 58.4926 15.4894C58.4027 15.7237 58.3664 15.9941 58.3664 16.2645V21.5275H56.8165V15.1652H56.8162Z" fill="white"/>
<path d="M73.8768 10.3529C73.8946 10.8937 73.4983 11.3263 72.8674 11.3263C72.3089 11.3263 71.9121 10.8937 71.9121 10.3529C71.9121 9.79417 72.3267 9.36157 72.9035 9.36157C73.4983 9.36157 73.8768 9.79417 73.8768 10.3529ZM72.1104 21.5276V12.8041H73.6966V21.5276H72.1104Z" fill="white"/>
<path d="M82.5981 20.1752H82.562C82.0934 21.0404 81.1203 21.7253 79.7144 21.7253C77.6778 21.7253 76.0195 19.9591 76.0195 17.3095C76.0195 14.0472 78.1282 12.6052 79.967 12.6052C81.3186 12.6052 82.2198 13.2721 82.6524 14.119H82.6885L82.7423 12.8035H84.2384C84.2023 13.5425 84.1846 14.2996 84.1846 15.2005V25.0954H82.5984V20.1752H82.5981ZM82.5981 16.3361C82.5981 16.1198 82.5803 15.8675 82.526 15.6692C82.2917 14.6958 81.4445 13.8667 80.2551 13.8667C78.6151 13.8667 77.6235 15.2546 77.6235 17.2191C77.6235 18.9495 78.4526 20.4636 80.2008 20.4636C81.2282 20.4636 82.1114 19.8327 82.4716 18.7332C82.5437 18.5169 82.5978 18.2104 82.5978 17.9761V16.3361H82.5981Z" fill="white"/>
<path d="M88.8461 13.8939C88.8461 14.651 88.231 15.2585 87.4506 15.2585C86.6699 15.2585 86.0469 14.6513 86.0469 13.8939C86.0469 13.1448 86.6699 12.5378 87.4506 12.5378C88.2313 12.5378 88.8461 13.1448 88.8461 13.8939ZM86.4648 13.9018C86.4648 14.4696 86.8825 14.9191 87.4506 14.9191C88.0184 14.9191 88.4363 14.4693 88.4363 13.8937C88.4363 13.3338 88.0184 12.8764 87.4427 12.8764C86.8828 12.8767 86.4648 13.334 86.4648 13.9018ZM87.2771 14.5406H86.8907V13.2867C86.9774 13.271 87.1824 13.2473 87.4427 13.2473C87.7266 13.2473 87.8528 13.2867 87.9474 13.3419C88.0262 13.3971 88.0814 13.4918 88.0814 13.6179C88.0814 13.7441 87.9632 13.8545 87.7897 13.9018V13.9176C87.9319 13.9649 88.0105 14.0595 88.0502 14.2409C88.0896 14.4223 88.1133 14.4933 88.1369 14.5403H87.7032C87.6638 14.493 87.6401 14.3826 87.6165 14.2725C87.5928 14.1463 87.5294 14.0829 87.4035 14.0829H87.2774V14.5406H87.2771ZM87.2928 13.823H87.4035C87.5455 13.823 87.6401 13.768 87.6401 13.6734C87.6401 13.5709 87.5531 13.5154 87.4193 13.5154C87.372 13.5154 87.3247 13.5233 87.2931 13.5233V13.823H87.2928Z" fill="white"/>
</g>
<defs>
<clipPath id="clip0">
<rect width="101.391" height="32.3887" fill="white"/>
</clipPath>
</defs>
</svg>
