<svg width="130" height="30" viewBox="0 0 130 30" fill="none" xmlns="http://www.w3.org/2000/svg">
<path d="M35.7677 14.1838C37.7444 14.1838 39.0713 15.0773 39.8836 16.1875V0.373867C39.8836 0.0760063 39.5316 -0.113541 39.2879 0.0760067L19.7645 14.3462H20.279C22.3099 14.3462 23.3388 15.646 23.3388 17.054C23.3388 18.1643 22.7702 18.9766 21.9849 19.3286C21.8495 19.3828 21.8495 19.5723 21.9849 19.6265C22.8785 20.0056 23.5284 20.9533 23.5284 22.0906C23.5284 23.7153 22.4723 24.988 20.4415 24.988H14.8904C14.7821 24.988 14.6738 24.9067 14.6738 24.7713V18.0559L0.132804 28.6977C-0.1109 28.9143 -0.00258803 29.2934 0.322351 29.2934H39.5316C39.7211 29.2934 39.8565 29.158 39.8565 28.9685V23.5799C38.8005 24.5547 37.4195 25.1775 35.7407 25.1775C32.5996 25.1775 30.0542 23.0113 30.0542 19.6806C30.0813 16.3229 32.6537 14.1838 35.7677 14.1838ZM27.9963 24.7984C27.9963 24.9067 27.915 24.988 27.8067 24.988H25.9383C25.83 24.988 25.7488 24.9067 25.7488 24.7984V14.5358C25.7488 14.4275 25.83 14.3462 25.9383 14.3462H27.8067C27.915 14.3462 27.9963 14.4275 27.9963 14.5358V24.7984Z" fill="white"/>
<path d="M17.1639 18.57H19.7905C20.5487 18.57 21.0361 18.1368 21.0361 17.4598C21.0361 16.8099 20.5487 16.3496 19.7905 16.3496H17.0556C17.0014 16.3496 16.9473 16.4038 16.9473 16.4579V18.3805C16.9473 18.4888 17.0556 18.57 17.1639 18.57Z" fill="white"/>
<path d="M17.1639 23.0113H19.8988C20.7382 23.0113 21.2527 22.5509 21.2527 21.7927C21.2527 21.1158 20.7653 20.5742 19.8988 20.5742H17.1639C17.0556 20.5742 16.9473 20.6555 16.9473 20.7908V22.7946C16.9473 22.9029 17.0556 23.0113 17.1639 23.0113Z" fill="white"/>
<path d="M38.1778 17.406C37.6633 16.7291 36.7968 16.1875 35.7679 16.1875C33.8182 16.1875 32.4102 17.6768 32.4102 19.6806C32.4102 21.6844 33.8182 23.1737 35.7679 23.1737C36.6614 23.1737 37.5009 22.7946 37.9612 22.4155C37.9883 22.3884 38.0153 22.3343 38.0153 22.2801V21.2511C38.0153 21.1699 37.9341 21.0887 37.8529 21.0887H35.4429C35.3075 21.0887 35.2263 20.9803 35.2263 20.872V19.3557C35.2263 19.2203 35.3346 19.139 35.4429 19.139H39.9108V16.7291L38.4757 17.5143C38.3674 17.5414 38.232 17.4873 38.1778 17.406Z" fill="white"/>
<path d="M41.5625 19.6805C41.5625 16.404 43.9183 14.1836 46.9511 14.1836C48.9278 14.1836 50.2005 15.1855 50.9586 16.404C51.0128 16.4852 50.9857 16.6206 50.8774 16.6477L49.6589 17.2976C49.5776 17.3517 49.4693 17.3247 49.4423 17.2434C48.9278 16.4311 47.98 15.8354 46.9511 15.8354C44.9202 15.8354 43.4038 17.433 43.4038 19.6805C43.4038 21.9009 44.9202 23.5256 46.9511 23.5256C47.98 23.5256 48.9278 22.9299 49.4423 22.1175C49.4964 22.0363 49.5776 22.0092 49.6589 22.0634L50.8774 22.6862C50.9857 22.7403 51.0128 22.8486 50.9586 22.9569C50.1734 24.1755 48.9007 25.2044 46.9511 25.2044C43.9183 25.1773 41.5625 22.9299 41.5625 19.6805Z" fill="white"/>
<path d="M52.0137 19.6803C52.0137 17.0267 53.5301 14.9687 55.8046 14.373C59.6768 13.344 63.224 16.9725 62.3846 21.0072C61.8701 23.4984 59.8934 25.2043 57.2668 25.2043C54.1799 25.1772 52.0137 22.8485 52.0137 19.6803ZM60.6516 19.6803C60.6516 17.487 59.2977 15.8352 57.2398 15.8352C55.1547 15.8352 53.8279 17.487 53.8279 19.6803C53.8279 21.8737 55.1547 23.5254 57.2398 23.5254C59.3248 23.5254 60.6516 21.8466 60.6516 19.6803Z" fill="white"/>
<path d="M73.5406 24.8528V16.7564L70.3183 24.9069C70.3183 24.934 70.2641 24.9611 70.237 24.9611H69.5601C69.533 24.9611 69.4788 24.934 69.4788 24.9069L66.2295 16.7564V24.8528C66.2295 24.934 66.1753 24.9881 66.0941 24.9881H64.4694C64.3881 24.9881 64.334 24.934 64.334 24.8528V14.4547C64.334 14.3735 64.3881 14.3193 64.4694 14.3193H66.7981C66.9064 14.3193 66.9876 14.3735 67.0418 14.4818L69.885 21.7929L72.7011 14.4818C72.7282 14.3735 72.8365 14.3193 72.9449 14.3193H75.2736C75.3548 14.3193 75.409 14.3735 75.409 14.4547V24.8528C75.409 24.934 75.3548 24.9881 75.2736 24.9881H73.6489C73.6218 24.9881 73.5406 24.934 73.5406 24.8528Z" fill="white"/>
<path d="M91.9551 24.7979V14.5352C91.9551 14.4269 92.0363 14.3457 92.1446 14.3457H99.0496C99.1579 14.3457 99.2391 14.4269 99.2391 14.5352V15.7808C99.2391 15.8892 99.1579 15.9704 99.0496 15.9704H94.013C93.9047 15.9704 93.8235 16.0516 93.8235 16.1599V18.5157C93.8235 18.6241 93.9047 18.7053 94.013 18.7053H98.9413C99.0496 18.7053 99.1308 18.7865 99.1308 18.8948V20.1404C99.1308 20.2488 99.0496 20.33 98.9413 20.33H94.013C93.9047 20.33 93.8235 20.4112 93.8235 20.5195V23.092C93.8235 23.2003 93.9047 23.2815 94.013 23.2815H99.0496C99.1579 23.2815 99.2391 23.3627 99.2391 23.4711V24.7167C99.2391 24.825 99.1579 24.9062 99.0496 24.9062H92.1446C92.0363 24.9874 91.9551 24.9062 91.9551 24.7979Z" fill="white"/>
<path d="M107.904 24.8791L105.656 21.0882C105.629 21.034 105.548 21.0069 105.494 21.0069H103.923C103.815 21.0069 103.734 21.0882 103.734 21.1965V24.7979C103.734 24.9062 103.653 24.9874 103.544 24.9874H102.082C101.974 24.9874 101.893 24.9062 101.893 24.7979V14.5352C101.893 14.4269 101.974 14.3457 102.082 14.3457H106.577C108.689 14.3457 110.07 15.6996 110.07 17.6763C110.07 19.4364 108.987 20.4383 107.796 20.7362C107.66 20.7632 107.606 20.8986 107.66 21.034C108.093 21.7381 109.447 23.9043 109.962 24.6896C110.043 24.825 109.962 24.9874 109.799 24.9874H108.093C108.012 24.9874 107.958 24.9604 107.904 24.8791ZM108.148 17.6492C108.148 16.6203 107.389 15.9704 106.333 15.9704H103.951C103.842 15.9704 103.761 16.0516 103.761 16.1599V19.1656C103.761 19.2739 103.842 19.3552 103.951 19.3552H106.333C107.389 19.3552 108.148 18.7053 108.148 17.6492Z" fill="white"/>
<path d="M122.689 24.7979V14.5352C122.689 14.4269 122.771 14.3457 122.879 14.3457H129.811C129.919 14.3457 130.001 14.4269 130.001 14.5352V15.8079C130.001 15.9162 129.919 15.9975 129.811 15.9975H124.747C124.639 15.9975 124.558 16.0787 124.558 16.187V18.5699C124.558 18.6782 124.639 18.7594 124.747 18.7594H129.676C129.784 18.7594 129.865 18.8407 129.865 18.949V20.2217C129.865 20.33 129.784 20.4112 129.676 20.4112H124.747C124.639 20.4112 124.558 20.4925 124.558 20.6008V23.2003C124.558 23.3086 124.639 23.3898 124.747 23.3898H129.811C129.919 23.3898 130.001 23.4711 130.001 23.5794V24.852C130.001 24.9604 129.919 25.0416 129.811 25.0416H122.879C122.771 24.9874 122.689 24.9062 122.689 24.7979Z" fill="white"/>
<path d="M111.424 19.6258C111.424 16.3493 113.78 14.1289 116.812 14.1289C118.789 14.1289 120.062 15.1308 120.82 16.3493C120.874 16.4306 120.847 16.5659 120.739 16.593L119.52 17.2429C119.439 17.2971 119.331 17.27 119.304 17.1887C118.789 16.3764 117.841 15.7807 116.812 15.7807C114.782 15.7807 113.265 17.3783 113.265 19.6258C113.265 21.8462 114.782 23.4709 116.812 23.4709C117.841 23.4709 118.789 22.8752 119.304 22.0628C119.358 21.9816 119.439 21.9545 119.52 22.0087L120.739 22.6315C120.847 22.6856 120.874 22.7939 120.82 22.9022C120.035 24.1208 118.762 25.1497 116.812 25.1497C113.78 25.1227 111.424 22.9022 111.424 19.6258Z" fill="white"/>
<path d="M87.3511 24.8528V16.7564L84.1288 24.9069C84.1288 24.934 84.0747 24.9611 84.0476 24.9611H83.3706C83.3435 24.9611 83.2894 24.934 83.2894 24.9069L80.04 16.7564V24.8528C80.04 24.934 79.9858 24.9881 79.9046 24.9881H78.2799C78.1987 24.9881 78.1445 24.934 78.1445 24.8528V14.4547C78.1445 14.3735 78.1987 14.3193 78.2799 14.3193H80.6087C80.717 14.3193 80.7982 14.3735 80.8524 14.4818L83.6956 21.7929L86.5117 14.4818C86.5388 14.3735 86.6471 14.3193 86.7554 14.3193H89.0841C89.1654 14.3193 89.2195 14.3735 89.2195 14.4547V24.8528C89.2195 24.934 89.1654 24.9881 89.0841 24.9881H87.4594C87.4053 24.9881 87.3511 24.934 87.3511 24.8528Z" fill="white"/>
</svg>
