<svg width="54" height="60" viewBox="0 0 54 60" fill="none" xmlns="http://www.w3.org/2000/svg">
<path d="M18.0552 41.8181C15.0531 38.7737 13.1504 34.5454 13.1927 29.9365C13.1927 25.2854 15.0954 21.0994 18.1398 18.0973C20.719 15.5181 20.7613 11.3743 18.1821 8.79507C15.6028 6.21581 11.4591 6.17353 8.83753 8.75279C3.42532 14.1227 0.0426797 21.6068 0.000396723 29.8943C-0.0418862 38.1817 3.29847 45.6658 8.71068 51.1203C11.2899 53.6996 15.4337 53.7418 18.0552 51.1626C20.5922 48.5833 20.6345 44.3973 18.0552 41.8181Z" fill="#FFD860"/>
<path d="M18.1395 18.0971C21.1839 15.095 25.4122 13.1923 30.021 13.2346C34.6721 13.2346 38.8582 15.1373 41.8602 18.1817C44.4395 20.7609 48.5832 20.8032 51.1625 18.224C53.7418 15.6447 53.784 11.501 51.2048 8.87942C45.7926 3.42492 38.3085 0.042283 30.0633 0C21.8181 0 14.2918 3.29807 8.87954 8.71029C6.30028 11.2896 6.258 15.4333 8.83726 18.0548C11.3742 20.6341 15.5603 20.6341 18.1395 18.0971Z" fill="#3AB2E6"/>
<path d="M41.8185 41.9026C38.7742 44.9047 34.5459 46.8074 29.937 46.7651C25.2859 46.7651 21.0999 44.8624 18.0978 41.818C15.5185 39.2388 11.3748 39.1965 8.79556 41.7757C6.2163 44.355 6.17402 48.4987 8.75328 51.1203C14.1655 56.5748 21.6496 59.9574 29.8948 59.9997C38.1822 60.042 45.6663 56.7016 51.1208 51.2894C53.7001 48.7101 53.7423 44.5664 51.1631 41.9449C48.5415 39.3656 44.3978 39.3233 41.8185 41.9026Z" fill="#ED5C68"/>
<path d="M18.1388 18.0973C15.5596 20.6766 11.3736 20.6343 8.79429 18.055C6.21503 15.4758 6.25732 11.2898 8.83658 8.75279C11.4158 6.17353 15.6018 6.21581 18.1811 8.79507C20.7604 11.332 20.7181 15.5181 18.1388 18.0973Z" fill="#318BC5"/>
<path d="M18.0119 51.1203C15.4326 53.6995 11.2466 53.6572 8.66734 51.078C6.08808 48.4987 6.13036 44.3127 8.70962 41.7757C11.2889 39.1965 15.4749 39.2388 18.0542 41.818C20.6334 44.3973 20.5911 48.5833 18.0119 51.1203Z" fill="#D4465F"/>
</svg>
