<svg width="100" height="56" viewBox="0 0 118 76" fill="none" xmlns="http://www.w3.org/2000/svg">
<g clip-path="url(#clip0)">
<path d="M26.8554 75.9016L4.8956 69.8054L0.00195312 14.9175H53.7747L48.8759 69.7968L26.8554 75.9016Z" fill="#264DE4"/>
<path d="M44.6823 66.3014L48.8686 19.4045H26.8887V71.2345L44.6823 66.3014Z" fill="#2965F1"/>
<path d="M11.2207 39.7611L11.8241 46.4928H26.8885V39.7611H11.2207Z" fill="#EBEBEB"/>
<path d="M10.0078 26.136L10.6198 32.8679H26.8879V26.136H26.8647H10.0078Z" fill="#EBEBEB"/>
<path d="M26.8887 57.2448L26.8592 57.2526L19.3619 55.2282L18.8827 49.8593H15.2396H12.125L13.0681 60.4292L26.8577 64.2573L26.8887 64.2487V57.2448Z" fill="#EBEBEB"/>
<path d="M12.6562 0.000374317H20.8096V3.40996H16.0658V6.81955H20.8096V10.2291H12.6562V0.000374317Z" fill="white"/>
<path d="M22.4414 0.000374317H30.5948V2.96523H25.851V3.5582H30.5948V10.3774H22.4414V7.26428H27.1852V6.67131H22.4414V0.000374317Z" fill="white"/>
<path d="M32.2246 0.000374317H40.378V2.96523H35.6342V3.5582H40.378V10.3774H32.2246V7.26428H36.9684V6.67131H32.2246V0.000374317Z" fill="white"/>
<path d="M42.5132 39.7613L43.7285 26.136H26.8652V32.8679H36.351L35.7385 39.7613H26.8652V46.493H35.1547L34.3733 55.2236L26.8652 57.2501V64.2537L40.6658 60.4289L40.767 59.2916L42.3489 41.569L42.5132 39.7613Z" fill="white"/>
<path d="M117.309 14.916L112.41 69.7954L90.3896 75.9002L68.4298 69.804L63.5361 14.916H117.309Z" fill="#E44D26"/>
<path d="M90.4229 71.2331L108.216 66.3L112.403 19.4031H90.4229V71.2331Z" fill="#F16529"/>
<path d="M80.9 32.8664H90.4231V26.1346H90.3998H73.543L73.7041 27.9406L75.3586 46.4916H90.4231V39.7599H81.5152L80.9 32.8664Z" fill="#EBEBEB"/>
<path d="M82.4159 49.8579H78.7728H75.6582L76.6013 60.4277L90.3909 64.2558L90.4219 64.2472V57.2433L90.3924 57.2512L82.8951 55.2268L82.4159 49.8579Z" fill="#EBEBEB"/>
<path d="M68.5381 -0.00106478H71.9591V3.37887H75.0885V-0.00106478H78.5096V10.2342H75.0886V6.80684H71.9592V10.2342H68.5382V-0.00106478H68.5381Z" fill="white"/>
<path d="M83.0088 3.3931H79.9971V-0.00106478H89.4431V3.3931H86.4301V10.2342H83.0089V3.3931H83.0088Z" fill="white"/>
<path d="M90.9424 -0.00106478H94.5096L96.7038 3.59531L98.8959 -0.00106478H102.464V10.2342H99.0575V5.16105L96.7038 8.80026H96.645L94.2897 5.16105V10.2342H90.9424V-0.00106478Z" fill="white"/>
<path d="M104.167 -0.00106478H107.589V6.85102H112.4V10.2342H104.167V-0.00106478Z" fill="white"/>
<path d="M90.3994 46.4913H98.6889L97.9075 55.2219L90.3994 57.2484V64.252L104.2 60.4272L104.301 59.2899L105.883 41.5673L106.047 39.7596H104.233H90.3994V46.4913Z" fill="white"/>
<path d="M90.3994 32.85V32.8664H106.638H106.66L106.795 31.3533L107.102 27.9406L107.263 26.1346H90.3994V30.3156V32.85Z" fill="white"/>
</g>
<defs>
<clipPath id="clip0">
<rect width="117.305" height="75.9004" fill="white"/>
</clipPath>
</defs>
</svg>
