<svg width="61" height="67" viewBox="0 0 61 81" fill="none" xmlns="http://www.w3.org/2000/svg">
<path d="M43.0507 17.7227C37.4424 12.1171 32.0916 6.77334 30.4991 0.746582C28.9065 6.77334 23.5548 12.1171 17.9475 17.7227C9.53641 26.1285 0 35.6551 0 49.9435C-8.44057e-08 53.9488 0.788904 57.9149 2.32167 61.6153C3.85444 65.3158 6.10105 68.6781 8.93324 71.5103C11.7654 74.3424 15.1277 76.5891 18.8282 78.1218C22.5286 79.6546 26.4947 80.4435 30.5 80.4435C34.5053 80.4435 38.4714 79.6546 42.1718 78.1218C45.8723 76.5891 49.2346 74.3424 52.0668 71.5103C54.8989 68.6781 57.1456 65.3158 58.6783 61.6153C60.2111 57.9149 61 53.9488 61 49.9435C61 35.6561 51.4644 26.1285 43.0507 17.7227H43.0507ZM12.9634 57.0505C11.0933 56.987 4.19141 45.0906 16.9956 32.4239L25.4686 41.6792C25.5413 41.7511 25.598 41.8375 25.6349 41.9328C25.6719 42.0282 25.6882 42.1302 25.6828 42.2323C25.6775 42.3344 25.6506 42.4342 25.6039 42.5252C25.5573 42.6161 25.4918 42.6962 25.412 42.76C23.3901 44.8337 14.7724 53.4755 13.7013 56.4637C13.4802 57.0804 13.1573 57.0571 12.9634 57.0505ZM30.5 72.7296C29.1225 72.7296 27.7585 72.4583 26.4858 71.9311C25.2131 71.404 24.0567 70.6313 23.0827 69.6572C22.1086 68.6832 21.3359 67.5268 20.8088 66.2541C20.2816 64.9814 20.0103 63.6174 20.0103 62.2399C20.0103 59.584 21.0661 57.2172 22.6248 55.3111C24.5163 52.9983 30.4986 46.4931 30.4986 46.4931C30.4986 46.4931 36.3894 53.0937 38.3583 55.289C40.0734 57.1956 41.0123 59.6754 40.9898 62.2399C40.9898 65.0219 39.8846 67.69 37.9174 69.6572C35.9502 71.6244 33.2821 72.7296 30.5 72.7296V72.7296ZM50.5774 55.719C50.3513 56.2134 49.8384 57.0389 49.1462 57.0641C47.9123 57.109 47.7805 56.4768 46.8685 55.1271C44.8663 52.1641 27.3932 33.9027 24.1249 30.3709C21.2502 27.2646 23.7201 25.0746 24.8658 23.927C26.3032 22.487 30.4989 18.2939 30.4989 18.2939C30.4989 18.2939 43.0095 30.1639 48.221 38.2744C53.4324 46.3849 51.6364 53.403 50.5774 55.719" fill="#009CDE"/>
</svg>
