<svg width="43" height="58" viewBox="0 0 43 58" fill="none" xmlns="http://www.w3.org/2000/svg">
<g clip-path="url(#clip0)">
<path d="M10.5056 62.9979C16.3014 62.9979 21.0053 58.2941 21.0053 52.4982V41.9985H10.5056C4.70973 41.9985 0.00585938 46.7024 0.00585938 52.4982C0.00585938 58.2941 4.70973 62.9979 10.5056 62.9979Z" fill="#09CF83"/>
<path d="M0.00585938 31.4985C0.00585938 25.7026 4.70973 20.9988 10.5056 20.9988H21.0053V41.9982H10.5056C4.70973 41.9982 0.00585938 37.2943 0.00585938 31.4985Z" fill="#A159FF"/>
<path d="M0.00585938 10.4997C0.00585938 4.70387 4.70973 0 10.5056 0H21.0053V20.9994H10.5056C4.70973 20.9994 0.00585938 16.2955 0.00585938 10.4997Z" fill="#F24D1E"/>
<path d="M21.0039 -0.000244141H31.5036C37.2994 -0.000244141 42.0033 4.70362 42.0033 10.4995C42.0033 16.2953 37.2994 20.9992 31.5036 20.9992H21.0039V-0.000244141Z" fill="#FF7262"/>
<path d="M42.0033 31.4985C42.0033 37.2943 37.2994 41.9982 31.5036 41.9982C25.7078 41.9982 21.0039 37.2943 21.0039 31.4985C21.0039 25.7026 25.7078 20.9988 31.5036 20.9988C37.2994 20.9988 42.0033 25.7026 42.0033 31.4985Z" fill="#1ABCFE"/>
</g>
<defs>
<clipPath id="clip0">
<rect width="42.0072" height="62.9982" fill="white"/>
</clipPath>
</defs>
</svg>
