<svg width="120" height="60" viewBox="0 0 120 60" fill="none" xmlns="http://www.w3.org/2000/svg">
<path d="M19.6252 44.6329L36.6823 27.5719H24.2796L13.4258 38.4296L19.6252 44.6329Z" fill="#39CEFD"/>
<path d="M4.12109 29.1246L24.2799 8.96582H36.6826L10.3244 35.3279L4.12109 29.1246Z" fill="#39CEFD"/>
<path d="M24.2794 49.2834H36.6821L25.8283 38.4296L19.625 44.6329L24.2794 49.2834Z" fill="#03569B"/>
<path d="M25.8283 38.4296L19.625 44.6329L28.8251 41.4458L25.8283 38.4296Z" fill="url(#paint0_linear)"/>
<path d="M13.4258 38.4257L19.6291 32.2224L25.8324 38.4257L19.6291 44.6329L13.4258 38.4257Z" fill="#16B9FD"/>
<path d="M36.6826 27.5718L25.8287 38.4296L36.6826 49.2873H24.2799L19.6254 44.6329L13.4222 38.4296L24.2799 27.5718H36.6826ZM24.2799 8.96582L4.12109 29.1246L10.3244 35.3279L36.6826 8.96582H24.2799Z" fill="url(#paint1_radial)"/>
<path d="M40.6104 19.7737H51.4806V21.8442H42.8879V28.2628H50.6524V30.3334H42.8879V38.4084H40.7139V19.7737H40.6104Z" fill="white"/>
<path d="M54.0684 19.7737H56.2424V38.5119H54.0684V19.7737Z" fill="white"/>
<path d="M64.4214 38.9261C62.765 38.9261 61.6262 38.4085 60.6945 37.4767C59.8663 36.545 59.4521 35.1992 59.4521 33.5427V25.1571H61.6262V33.2322C61.6262 34.4745 61.9368 35.4062 62.4544 36.0274C63.0756 36.6485 63.8003 36.9591 64.8355 36.9591C65.5602 36.9591 66.2849 36.752 66.8025 36.3379C67.4237 35.9238 67.8378 35.4062 68.1484 34.785C68.4589 34.1639 68.666 33.4392 68.666 32.7145V25.1571H70.84V38.512H68.7695V36.545H68.666C68.2519 37.1661 67.7342 37.7873 66.906 38.2014C66.1814 38.719 65.3531 38.9261 64.4214 38.9261Z" fill="white"/>
<path d="M79.5358 38.7189C79.0182 38.7189 78.5005 38.6154 77.9829 38.4084C77.5688 38.2013 77.1547 37.9943 76.8441 37.6837C76.5335 37.3731 76.223 36.959 76.0159 36.5449C75.8089 36.1308 75.7053 35.6131 75.7053 34.992V27.124H73.3242V25.157H75.7053V21.4301H77.8794V25.157H81.0887V27.124H77.8794V34.3708C77.8794 35.0955 77.9829 35.6131 78.2935 36.0273C78.6041 36.4414 79.1217 36.6484 79.7428 36.6484C80.2605 36.6484 80.7781 36.5449 81.1922 36.2343V38.4084C80.8816 38.5119 80.6746 38.6154 80.364 38.7189C80.364 38.7189 79.9499 38.7189 79.5358 38.7189Z" fill="white"/>
<path d="M88.9567 38.7189C88.439 38.7189 87.9214 38.6154 87.4038 38.4084C86.9897 38.2013 86.5756 37.9943 86.265 37.6837C85.9544 37.3731 85.6438 36.959 85.4368 36.5449C85.2297 36.1308 85.1262 35.6131 85.1262 34.992V27.124H82.9521V25.157H85.3333V21.4301H87.5073V25.157H90.7166V27.124H87.5073V34.3708C87.5073 35.0955 87.6108 35.6131 87.9214 36.0273C88.232 36.4414 88.7496 36.6484 89.3708 36.6484C89.8884 36.6484 90.406 36.5449 90.8201 36.2343V38.4084C90.5096 38.5119 90.3025 38.6154 89.9919 38.7189C89.7849 38.7189 89.3708 38.7189 88.9567 38.7189Z" fill="white"/>
<path d="M98.7917 38.926C97.5494 38.926 96.4106 38.6154 95.3753 37.9943C94.3401 37.3731 93.6154 36.5449 92.9942 35.5096C92.4766 34.4744 92.166 33.2321 92.166 31.8862C92.166 30.6439 92.4766 29.4016 92.9942 28.3663C93.5119 27.3311 94.3401 26.3993 95.2718 25.7782C96.2035 25.157 97.3423 24.8464 98.6882 24.8464C100.034 24.8464 101.173 25.157 102.105 25.7782C103.036 26.3993 103.761 27.124 104.279 28.1593C104.796 29.1945 105.107 30.3333 105.107 31.6792C105.107 31.9897 105.107 32.1968 105.003 32.4039H94.3401C94.4436 33.4391 94.6506 34.2673 95.0647 34.992C95.4789 35.7167 96.1 36.2343 96.7212 36.5449C97.4459 36.8555 98.067 37.0625 98.7917 37.0625C100.552 37.0625 101.794 36.2343 102.726 34.6814L104.589 35.6132C103.968 36.6484 103.243 37.5802 102.208 38.2013C101.38 38.6154 100.241 38.926 98.7917 38.926ZM102.622 30.4369C102.622 29.9192 102.415 29.2981 102.105 28.7804C101.794 28.2628 101.38 27.7452 100.759 27.3311C100.138 26.917 99.4129 26.7099 98.4811 26.7099C97.4459 26.7099 96.5141 27.0205 95.7894 27.7452C95.0648 28.3663 94.6506 29.2981 94.3401 30.4369H102.622Z" fill="white"/>
<path d="M107.592 25.157H109.662V27.3311H109.766C110.076 26.6064 110.491 25.9852 111.319 25.5711C112.043 25.0535 112.872 24.8464 113.7 24.8464C114.321 24.8464 114.839 24.95 115.253 25.157V27.5381C114.735 27.2275 114.114 27.124 113.389 27.124C112.768 27.124 112.147 27.3311 111.629 27.6416C111.112 28.0557 110.698 28.4699 110.283 29.091C109.973 29.7122 109.766 30.3333 109.766 31.058V38.5119H107.592V25.157Z" fill="white"/>
<defs>
<linearGradient id="paint0_linear" x1="-968.979" y1="-426.922" x2="-968.799" y2="-427.101" gradientUnits="userSpaceOnUse">
<stop stop-color="#1A237E" stop-opacity="0.4"/>
<stop offset="1" stop-color="#1A237E" stop-opacity="0"/>
</linearGradient>
<radialGradient id="paint1_radial" cx="0" cy="0" r="1" gradientUnits="userSpaceOnUse" gradientTransform="translate(-885.242 -353.706) scale(1.91488)">
<stop stop-color="white" stop-opacity="0.1"/>
<stop offset="1" stop-color="white" stop-opacity="0"/>
</radialGradient>
</defs>
</svg>
