<svg width="110" height="32" viewBox="0 0 118 32" fill="none" xmlns="http://www.w3.org/2000/svg">
<g clip-path="url(#clip0)">
<path d="M70.0216 13.7738H73.1386V24.9059H70.0216V23.4587C68.9084 25.1285 67.4612 25.2398 66.5707 25.2398C63.1197 25.2398 60.8933 22.5681 60.8933 19.3398C60.8933 16.0002 63.1197 13.4398 66.348 13.4398C67.2386 13.4398 68.9084 13.5512 69.9103 15.221V13.7738H70.0216ZM64.2329 19.3398C64.2329 21.121 65.4575 22.4568 67.3499 22.4568C69.131 22.4568 70.4669 21.121 70.4669 19.3398C70.4669 17.5587 69.2424 16.2229 67.3499 16.2229C65.5688 16.2229 64.2329 17.5587 64.2329 19.3398ZM79.2612 16.4455V24.9059H76.1442V16.4455H74.9197V13.7738H76.1442V9.9889H79.2612V13.7738H81.3763V16.4455H79.2612ZM88.7235 16.4455C87.9442 15.7776 87.2763 15.6663 86.9424 15.6663C86.1631 15.6663 85.7178 16.0002 85.7178 16.5568C85.7178 16.8908 85.8292 17.2247 86.7197 17.5587L87.499 17.7814C88.3895 18.1153 89.7254 18.4493 90.282 19.3398C90.6159 19.7851 90.8386 20.453 90.8386 21.2323C90.8386 22.2342 90.5046 23.2361 89.6141 24.0153C88.7235 24.7946 87.6103 25.2398 86.2744 25.2398C83.9367 25.2398 82.7122 24.1266 81.9329 23.3474L83.6027 21.4549C84.2707 22.1229 85.1612 22.7908 86.0518 22.7908C86.9424 22.7908 87.6103 22.3455 87.6103 21.5663C87.6103 20.8983 87.0537 20.5644 86.6084 20.453L85.9405 20.2304C85.1612 19.8964 84.2707 19.5625 83.6027 18.8946C83.0461 18.338 82.7122 17.67 82.7122 16.7795C82.7122 15.6663 83.2688 14.7757 83.8254 14.2191C84.7159 13.5512 85.8292 13.4398 86.7197 13.4398C87.499 13.4398 88.8348 13.5512 90.282 14.6644L88.7235 16.4455ZM95.5141 15.221C96.6273 13.6625 98.1858 13.4398 99.0763 13.4398C102.305 13.4398 104.531 16.0002 104.531 19.3398C104.531 22.6795 102.305 25.2398 98.965 25.2398C98.2971 25.2398 96.6273 25.1285 95.4027 23.4587V24.9059H92.3971V6.20399H95.5141V15.221ZM95.1801 19.3398C95.1801 21.121 96.4046 22.4568 98.2971 22.4568C100.078 22.4568 101.414 21.121 101.414 19.3398C101.414 17.5587 100.19 16.2229 98.2971 16.2229C96.4046 16.2229 95.1801 17.5587 95.1801 19.3398ZM109.652 23.2361L104.308 13.7738H107.982L111.433 20.1191L114.55 13.7738H118.112L109.207 30.8059H105.644L109.652 23.2361ZM60.1141 15.6663H52.3216V18.7832H56.4405C55.7725 20.8983 54.2141 22.3455 51.3197 22.3455C48.0914 22.3455 45.7537 19.6738 45.7537 16.4455C45.7537 13.2172 47.9801 10.4342 51.2084 10.4342C52.9895 10.4342 54.7707 11.3247 55.8839 12.7719L58.4442 11.1021C56.7744 8.76437 54.1027 7.42852 51.2084 7.42852C46.3103 7.42852 42.3027 11.4361 42.3027 16.4455C42.3027 21.4549 46.0876 25.4625 51.2084 25.4625C56.3292 25.4625 60.1141 21.4549 60.1141 16.4455C60.2254 16.1115 60.1141 15.8889 60.1141 15.6663Z" fill="white"/>
<path d="M27.8304 16H20.038V18.2264H25.3814C24.6021 21.566 22.1531 24.3491 18.9247 25.4623L6.12286 12.6604C7.45871 8.76415 11.2436 5.98113 15.5851 5.98113C18.9247 5.98113 21.9304 7.65094 23.8229 10.2113L25.4927 8.76415C23.2663 5.75849 19.704 3.75471 15.5851 3.75471C9.79645 3.75471 4.89833 7.87358 3.67381 13.3283L18.3681 28.0226C23.7115 26.6868 27.8304 21.7887 27.8304 16ZM3.33984 16.1113C3.33984 19.2283 4.56437 22.234 6.90211 24.5717C9.23984 26.9094 12.3568 28.134 15.3625 28.134L3.33984 16.1113Z" fill="white"/>
<path d="M15.5849 0.415039C7.01321 0.415039 0 7.42825 0 15.9999C0 24.5716 7.01321 31.5849 15.5849 31.5849C24.1566 31.5849 31.1698 24.5716 31.1698 15.9999C31.1698 7.42825 24.1566 0.415039 15.5849 0.415039ZM6.90189 24.683C4.56415 22.3452 3.33962 19.2282 3.33962 16.2226L15.4736 28.2452C12.3566 28.1339 9.23962 27.0207 6.90189 24.683ZM18.2566 27.9113L3.67358 13.3282C4.89811 7.87353 9.79623 3.75466 15.5849 3.75466C19.7038 3.75466 23.266 5.75844 25.4925 8.7641L23.8226 10.2113C21.9302 7.65089 18.9245 5.98108 15.5849 5.98108C11.2434 5.98108 7.56981 8.7641 6.12264 12.6603L18.9245 25.4622C22.1528 24.349 24.6019 21.566 25.3811 18.2264H20.0377V15.9999H27.8302C27.8302 21.7886 23.7113 26.6867 18.2566 27.9113Z" fill="#663399"/>
</g>
<defs>
<clipPath id="clip0">
<rect width="118" height="31.1698" fill="white" transform="translate(0 0.415039)"/>
</clipPath>
</defs>
</svg>
