<svg width="62" height="60" viewBox="0 0 62 60" fill="none" xmlns="http://www.w3.org/2000/svg">
<g clip-path="url(#clip0)">
<path d="M10.8974 0H50.641C56.6667 0 61.5385 4.8718 61.5385 10.8974V49.1026C61.5385 55.1282 56.6667 60 50.641 60H10.8974C4.87179 60 0 55.1282 0 49.1026V10.8974C0 4.8718 4.87179 0 10.8974 0Z" fill="#49021F"/>
<path d="M22.3586 15.6922V41.9999C22.3586 42.282 22.2304 42.4102 21.9996 42.4102H16.974C16.7432 42.4102 16.6406 42.282 16.6406 41.9999V15.6922C16.6406 15.4614 16.7688 15.3589 16.9996 15.3589H21.9996C22.1534 15.3332 22.3073 15.4358 22.3329 15.6153C22.3586 15.6409 22.3586 15.6666 22.3586 15.6922Z" fill="#FF3366"/>
<path d="M37.1279 42.8203C35.2304 42.846 33.333 42.4613 31.615 41.6665C29.9997 40.9229 28.6663 39.6921 27.7433 38.1793C26.7945 36.6152 26.333 34.6665 26.333 32.3331C26.3074 30.4357 26.7945 28.5639 27.7433 26.9229C28.7176 25.2562 30.1279 23.8716 31.8202 22.9485C33.615 21.9485 35.7689 21.4613 38.3074 21.4613C38.4356 21.4613 38.615 21.4613 38.8458 21.487C39.0766 21.5126 39.333 21.5126 39.6407 21.5383V13.4357C39.6407 13.2562 39.7176 13.1536 39.8971 13.1536H45.1022C45.2304 13.128 45.333 13.2306 45.3586 13.3331C45.3586 13.3588 45.3586 13.3844 45.3586 13.3844V37.7947C45.3586 38.2562 45.3843 38.769 45.4099 39.3331C45.4612 39.8716 45.4868 40.3844 45.5125 40.8203C45.5125 40.9998 45.4356 41.1536 45.2561 41.2306C43.9227 41.7947 42.5125 42.2049 41.0766 42.4613C39.7945 42.6921 38.4612 42.8203 37.1279 42.8203ZM39.6407 37.6921V26.4101C39.4099 26.3588 39.1791 26.3075 38.9484 26.2818C38.6663 26.2562 38.3843 26.2306 38.1022 26.2306C37.1022 26.2306 36.1022 26.4357 35.2048 26.8972C34.333 27.3331 33.5894 27.9742 33.0253 28.7947C32.4612 29.6152 32.1791 30.7177 32.1791 32.0511C32.1535 32.9485 32.3074 33.846 32.615 34.6921C32.8715 35.3844 33.2561 35.9998 33.7689 36.5126C34.2561 36.9742 34.8458 37.3331 35.5125 37.5383C36.2048 37.769 36.9227 37.8716 37.6407 37.8716C38.0253 37.8716 38.3843 37.846 38.7176 37.8203C39.0509 37.846 39.3586 37.7947 39.6407 37.6921Z" fill="#FF3366"/>
</g>
<defs>
<clipPath id="clip0">
<rect width="61.5385" height="60" fill="white"/>
</clipPath>
</defs>
</svg>
