<svg width="60" height="60" viewBox="0 0 60 60" fill="none" xmlns="http://www.w3.org/2000/svg">
<path d="M54.5609 0H5.43914C2.43516 0 0 2.43516 0 5.43914V54.5609C0 57.5648 2.43516 60 5.43914 60H54.5609C57.5648 60 60 57.5648 60 54.5609V5.43914C60 2.43516 57.5648 0 54.5609 0Z" fill="#DC395F"/>
<path d="M20.0523 18.878C22.0469 18.878 23.7177 17.3147 23.7177 15.2658C23.7177 13.2183 22.0469 11.6553 20.0523 11.6553C18.0578 11.6553 16.3874 13.2183 16.3874 15.2658C16.3874 17.3145 18.0578 18.878 20.0523 18.878ZM12.4525 38.2186C12.2371 39.135 12.1291 40.1246 12.1291 40.9318C12.1291 44.1125 13.8538 46.2239 17.5192 46.2239C20.5591 46.2239 23.0235 44.4188 24.798 41.5039L23.7145 45.8522H29.7508L33.2008 32.015C34.0633 28.5115 35.7341 26.693 38.2677 26.693C40.262 26.693 41.5016 27.9333 41.5016 29.9808C41.5016 30.574 41.4477 31.2202 41.2321 31.9212L39.4532 38.2814C39.1837 39.1979 39.0763 40.1147 39.0763 40.9765C39.0763 43.996 40.8545 46.2045 44.5738 46.2045C47.7541 46.2045 50.2872 44.1572 51.6887 39.252L49.3173 38.3365C48.1314 41.6227 47.1072 42.2168 46.2986 42.2168C45.49 42.2168 45.0587 41.6782 45.0587 40.6008C45.0587 40.1157 45.167 39.5773 45.3283 38.929L47.0535 32.7326C47.4845 31.2776 47.6465 29.9874 47.6465 28.8019C47.6465 24.1664 44.8434 21.7472 41.4477 21.7472C38.2677 21.7472 35.0334 24.6157 33.4166 27.6347L34.6021 22.216H25.3855L24.0918 26.9888H28.4041L25.7486 37.62C23.6634 42.2555 19.833 42.3307 19.3523 42.2232C18.5629 42.045 18.058 41.7453 18.058 40.7196C18.058 40.1279 18.1659 39.2778 18.4354 38.2529L22.4784 22.216H12.2371L10.9434 26.9888H15.2013L12.4527 38.2186" fill="white"/>
</svg>
