<svg width="49" height="60" viewBox="0 0 49 60" fill="none" xmlns="http://www.w3.org/2000/svg">
<g clip-path="url(#clip0)">
<path d="M46.5663 70.3877H46.2334V70.2015H47.1294V70.3877H46.7989V71.3168H46.5663V70.3877ZM48.3535 70.4362H48.3482L48.0185 71.3169H47.8675L47.5399 70.4362H47.5358V71.3169H47.3166V70.2017H47.6392L47.943 70.9914L48.2458 70.2017H48.5673V71.3169H48.3533V70.4362H48.3535Z" fill="#E76F00"/>
<path d="M16.7704 47.5828C16.7704 47.5828 14.4547 48.9294 18.4185 49.3851C23.2205 49.933 25.6747 49.8544 30.9665 48.8528C30.9665 48.8528 32.3578 49.7252 34.3008 50.4808C22.4379 55.565 7.45275 50.1863 16.7704 47.5828Z" fill="white"/>
<path d="M15.322 40.9486C15.322 40.9486 12.7247 42.8712 16.6914 43.2815C21.8211 43.8107 25.8721 43.854 32.8818 42.5042C32.8818 42.5042 33.8514 43.4871 35.3759 44.0247C21.033 48.2187 5.05752 44.3554 15.322 40.9486Z" fill="white"/>
<path d="M27.5424 29.6932C30.4654 33.0585 26.7744 36.0869 26.7744 36.0869C26.7744 36.0869 34.1964 32.2554 30.7878 27.4575C27.6043 22.9832 25.1629 20.76 38.3794 13.095C38.3794 13.095 17.6339 18.2762 27.5424 29.6932Z" fill="#E76F00"/>
<path d="M43.2313 52.4902C43.2313 52.4902 44.945 53.9022 41.344 54.9946C34.4966 57.0689 12.8443 57.6953 6.82938 55.0772C4.66717 54.1366 8.72192 52.8312 9.99739 52.5573C11.3276 52.2689 12.0877 52.3226 12.0877 52.3226C9.68314 50.6287 -3.45458 55.6487 5.41442 57.0864C29.6015 61.0089 49.5051 55.3201 43.2313 52.4902Z" fill="white"/>
<path d="M17.885 34.074C17.885 34.074 6.87128 36.6899 13.9848 37.6398C16.9883 38.042 22.9758 37.951 28.553 37.4837C33.1109 37.0992 37.6877 36.2817 37.6877 36.2817C37.6877 36.2817 36.0805 36.97 34.9177 37.764C23.7335 40.7054 2.12759 39.337 8.34765 36.3283C13.608 33.7855 17.885 34.074 17.885 34.074Z" fill="white"/>
<path d="M37.6426 45.1176C49.0119 39.2097 43.7552 33.5322 40.086 34.2971C39.1867 34.4843 38.7857 34.6465 38.7857 34.6465C38.7857 34.6465 39.1196 34.1235 39.7572 33.8971C47.0159 31.3452 52.5983 41.4236 37.4141 45.4154C37.4141 45.4155 37.59 45.2582 37.6426 45.1176Z" fill="white"/>
<path d="M30.7873 0.718994C30.7873 0.718994 37.0838 7.01762 24.8153 16.7031C14.9773 24.4726 22.5719 28.9025 24.8112 33.9639C19.0686 28.7826 14.8543 24.2215 17.6816 19.9765C21.8314 13.7452 33.3278 10.724 30.7873 0.718994Z" fill="#E76F00"/>
<path d="M19.0019 61.1269C29.915 61.8255 46.6733 60.7393 47.0702 55.5756C47.0702 55.5756 46.3073 57.5331 38.0511 59.0877C28.7366 60.8406 17.2483 60.636 10.4346 59.5125C10.4347 59.5124 11.8294 60.667 19.0019 61.1269Z" fill="white"/>
<path d="M17.2123 80.8581C16.1828 81.751 15.0955 82.2523 14.1197 82.2523C12.727 82.2523 11.9745 81.4172 11.9745 80.0777C11.9745 78.6288 12.7807 77.5694 16.0152 77.5694H17.2121V80.8581H17.2123ZM20.053 84.0632V74.142C20.053 71.6075 18.6075 69.9352 15.1222 69.9352C13.0876 69.9352 11.3053 70.4376 9.85671 71.0783L10.2748 72.8345C11.4154 72.4159 12.8918 72.0262 14.3409 72.0262C16.3486 72.0262 17.2123 72.8345 17.2123 74.5057V75.7596H16.2102C11.3323 75.7596 9.13184 77.6532 9.13184 80.4953C9.13184 82.9481 10.5819 84.3423 13.3122 84.3423C15.0672 84.3423 16.3773 83.6178 17.602 82.5574L17.8243 84.0634H20.053V84.0632Z" fill="#E76F00"/>
<path d="M29.5345 84.0624H25.9915L21.7275 70.1855H24.8216L27.4674 78.7115L28.0556 81.2757C29.3941 77.5684 30.3408 73.8071 30.8143 70.1855H33.824C33.0176 74.7551 31.5666 79.7708 29.5345 84.0624Z" fill="#E76F00"/>
<path d="M43.1265 80.8581C42.095 81.751 41.0058 82.2523 40.03 82.2523C38.6397 82.2523 37.8853 81.4172 37.8853 80.0777C37.8853 78.6288 38.6935 77.5694 41.9276 77.5694H43.1265V80.8581ZM45.9669 84.0632V74.142C45.9669 71.6075 44.5178 69.9352 41.0366 69.9352C39.0005 69.9352 37.2176 70.4376 35.7696 71.0783L36.1871 72.8345C37.3282 72.4159 38.8073 72.0262 40.2553 72.0262C42.2615 72.0262 43.1265 72.8345 43.1265 74.5057V75.7596H42.1228C37.2434 75.7596 35.0439 77.6532 35.0439 80.4953C35.0439 82.9481 36.4929 84.3423 39.2227 84.3423C40.9787 84.3423 42.2883 83.6178 43.5151 82.5574L43.7382 84.0634H45.9669V84.0632Z" fill="#E76F00"/>
<path d="M6.01867 86.4198C5.20887 87.6022 3.90089 88.5376 2.46895 89.0668L1.06641 87.4163C2.15633 86.8571 3.09109 85.9538 3.52539 85.1125C3.90106 84.3643 4.05655 83.4 4.05655 81.0939V65.2513H7.07462V80.8768C7.07446 83.9599 6.82799 85.2053 6.01867 86.4198Z" fill="#E76F00"/>
</g>
<defs>
<clipPath id="clip0">
<rect width="49" height="89.8333" fill="white"/>
</clipPath>
</defs>
</svg>
