<svg width="50" height="61" viewBox="0 0 54 76" fill="none" xmlns="http://www.w3.org/2000/svg">
<g clip-path="url(#clip0)">
<path d="M0.179688 14.7534L0.188121 15.4281C0.192769 15.7992 1.26788 28.0858 2.57729 42.7315L4.95802 69.3603L15.6583 72.3562C21.5434 74.0039 26.48 75.3603 26.6284 75.3707C26.7769 75.3811 31.7786 74.0383 37.7435 72.3867C47.3069 69.7387 48.598 69.3399 48.6665 69.0121C48.7619 68.5554 53.4451 15.7235 53.4403 15.1582L53.4369 14.7534H26.8082H0.179688Z" fill="white"/>
<path d="M15.7433 72.5352L4.94789 69.5177L4.80682 68.7192C4.68141 68.0094 0 15.7227 0 15.0318C0 14.7818 2.73335 14.7534 26.8086 14.7534C52.2214 14.7534 53.617 14.7698 53.6151 15.0682C53.6066 16.3574 48.761 69.3365 48.6419 69.442C48.4914 69.5752 27.5967 75.3964 26.8985 75.4996C26.7006 75.5288 21.6808 74.1949 15.7433 72.5352ZM33.6157 61.873C37.2441 60.8723 40.2652 60.0019 40.3292 59.9388C40.3932 59.8758 40.8178 55.5735 41.2727 50.3782C41.7277 45.1829 42.1459 40.5881 42.202 40.1675L42.304 39.4029H34.4663H26.6286V42.7315V46.06H30.8603H35.0919L35.0077 46.4649C34.9614 46.6875 34.7815 48.6009 34.6078 50.7169C34.4238 52.9589 34.2056 54.6504 34.0849 54.7712C33.971 54.8851 32.2467 55.413 30.2532 55.9444L26.6286 56.9105V60.3015C26.6286 62.616 26.6905 63.6925 26.8236 63.6925C26.9308 63.6925 29.9872 62.8737 33.6157 61.873ZM42.2009 35.2197C42.0819 34.338 41.0225 22.5131 41.0225 22.0672C41.0225 21.7964 40.3997 21.7704 33.9155 21.7704H26.8086V25.2511V28.7317L30.0022 28.8548C31.7587 28.9225 33.6073 29.0255 34.1101 29.0838L35.0244 29.1897L35.2463 31.9123C35.3684 33.4097 35.5138 34.9385 35.5695 35.3096L35.6708 35.9843H38.9874H42.304L42.2009 35.2197Z" fill="#EAEBEC"/>
<path d="M15.6583 72.356L4.95807 69.3601L2.57733 42.7315C1.26792 28.0857 0.192782 15.7992 0.188135 15.4281L0.179688 14.7534H26.8083H53.437L53.4404 15.1582C53.4452 15.7235 48.7619 68.5555 48.6665 69.0121C48.598 69.3399 47.307 69.7388 37.7436 72.3868C31.7787 74.0384 26.7769 75.3812 26.6284 75.3708C26.48 75.3604 21.5434 74.0037 15.6583 72.356H15.6583ZM33.6236 62.0002C37.3224 60.9719 40.4013 60.0455 40.4654 59.9417C40.5296 59.8379 40.9715 55.3159 41.4474 49.8928C41.9233 44.4697 42.3517 39.8909 42.3993 39.7177C42.4811 39.4202 41.8518 39.4029 30.9948 39.4029H19.5037L19.993 34.2301C20.2621 31.385 20.4887 29.0499 20.4966 29.0409C20.5045 29.0319 22.1911 28.9781 24.2444 28.9214C27.6114 28.8283 34.5547 29.0969 34.787 29.3292C34.8737 29.416 35.4447 35.0171 35.4447 35.7817C35.4447 36.1587 35.4955 36.1643 38.9311 36.1643H42.4175L42.3353 35.3996C42.2901 34.979 41.9948 31.7201 41.679 28.1577L41.1049 21.6804L27.6593 21.6343C16.9626 21.5976 14.2134 21.6344 14.2122 21.8142C14.2113 21.9385 14.133 22.7285 14.038 23.5696C13.8081 25.605 12.0546 45.2714 12.0546 45.8146V46.24H23.4956H34.9365L34.8345 46.9147C34.7784 47.2858 34.6006 49.1682 34.4393 51.0979C34.278 53.0276 34.0942 54.6562 34.0307 54.7172C33.8631 54.8781 27.1325 56.6761 26.7128 56.6721C26.518 56.6703 24.7797 56.2366 22.85 55.7083L19.3415 54.748L19.2129 53.2378C19.1421 52.4072 19.0344 51.2216 18.9736 50.6031L18.8631 49.4786H15.4588H12.0546L12.0622 50.1533C12.0763 51.4151 12.8945 59.9143 13.0133 60.0331C13.1507 60.1706 26.2258 63.846 26.6284 63.8603C26.7769 63.8656 29.9247 63.0286 33.6236 62.0002H33.6236Z" fill="#F0BE25"/>
<path d="M15.6583 72.356L4.95807 69.3601L2.57733 42.7315C1.26792 28.0857 0.192782 15.7992 0.188135 15.4281L0.179688 14.7534H26.8083H53.437L53.4404 15.1582C53.4452 15.7235 48.7619 68.5555 48.6665 69.0121C48.598 69.3399 47.307 69.7388 37.7436 72.3868C31.7787 74.0384 26.7769 75.3812 26.6284 75.3708C26.48 75.3604 21.5434 74.0037 15.6583 72.356H15.6583ZM35.6128 68.3481C40.3198 67.0493 44.2593 65.8955 44.3674 65.7842C44.5356 65.6109 48.6008 21.0569 48.5845 19.5663L48.5791 19.0715H37.6937H26.8083V20.331V21.5905H20.511C15.5939 21.5905 14.2134 21.6398 14.2122 21.8154C14.2113 21.9391 14.133 22.7285 14.038 23.5696C13.8081 25.605 12.0546 45.2714 12.0546 45.8146V46.24H19.4315H26.8083V51.4577C26.8083 55.5138 26.7583 56.6748 26.5834 56.6721C26.4597 56.6702 24.7797 56.2366 22.85 55.7083L19.3415 54.748L19.2129 53.2378C19.1421 52.4072 19.0344 51.2216 18.9736 50.6031L18.8631 49.4786H15.4588H12.0546L12.0622 50.1533C12.0837 52.0832 12.9186 59.9608 13.1144 60.0818C13.2334 60.1554 16.3632 61.0547 20.0695 62.0803L26.8083 63.9451V67.3273C26.8083 69.1875 26.8638 70.7095 26.9315 70.7095C26.9993 70.7095 30.9059 69.6469 35.6128 68.3481ZM19.974 34.2784C20.2327 31.46 20.4796 29.1221 20.5226 29.0831C20.5657 29.0441 21.9976 28.9736 23.7047 28.9263L26.8083 28.8405V34.1217V39.4029H23.156H19.5037L19.974 34.2784Z" fill="#E4A126"/>
<path d="M17.0928 8.36643V6.65716H19.5217H21.9507V3.32858V0H23.66H25.3692V5.03785V10.0757H21.231H17.0928V8.36643ZM26.9886 8.72628V7.37686H29.2376C30.4746 7.37686 31.4866 7.33113 31.4866 7.27524C31.4866 7.21935 30.4746 6.07676 29.2376 4.73613L26.9886 2.29864V1.14932V0H31.6666H36.3446V1.34389V2.68777L34.1484 2.73829L31.9523 2.78881L34.2384 5.25074L36.5245 7.71267V8.89419V10.0757H31.7565H26.9886V8.72628Z" fill="white"/>
</g>
<defs>
<clipPath id="clip0">
<rect width="53.6151" height="75.5004" fill="white"/>
</clipPath>
</defs>
</svg>
