<svg width="136" height="35" viewBox="0 0 136 35" fill="none" xmlns="http://www.w3.org/2000/svg">
<g clip-path="url(#clip0)">
<path d="M65.6313 12.3657L68.8021 24.6019H66.4051L64.2924 15.7916L60.3256 24.6019H58.307L54.3573 15.843L52.1863 24.6019H49.8477L52.9842 12.3606H55.0524L59.324 21.8387L63.5802 12.3657H65.6313Z" fill="white"/>
<path d="M77.8198 17.096V15.6732H80.1259V24.6017H77.8198V23.1619C77.2103 24.1891 75.9553 24.7883 74.4299 24.7883C71.242 24.7883 69.4648 22.5506 69.4648 19.9568C69.4648 17.4641 71.1598 15.4644 74.0875 15.4644C75.7687 15.4695 77.1589 16.0413 77.8198 17.096ZM71.92 20.0801C71.92 21.7254 72.9472 23.1327 74.9538 23.1327C76.8867 23.1327 77.9379 21.7631 77.9379 20.1315C77.9379 18.4999 76.8542 17.1131 74.8562 17.1131C72.9198 17.1131 71.92 18.5033 71.92 20.0801Z" fill="white"/>
<path d="M85.3277 24.6017H83.0215V15.6733H85.3277V17.673C85.9372 16.3033 87.175 15.4695 88.5481 15.4695C89.0384 15.46 89.5265 15.5377 89.9896 15.6989L89.4983 17.411C89.1 17.3038 88.69 17.2463 88.2776 17.2398C86.6151 17.2398 85.3277 18.4931 85.3277 20.3421V24.6017Z" fill="white"/>
<path d="M91.1413 13.316C91.1375 13.1542 91.1672 12.9934 91.2286 12.8436C91.29 12.6939 91.3817 12.5585 91.498 12.4459C91.6143 12.3334 91.7526 12.2461 91.9042 12.1896C92.0559 12.133 92.2176 12.1085 92.3791 12.1175C92.544 12.1122 92.7081 12.1404 92.8617 12.2005C93.0152 12.2606 93.155 12.3513 93.2724 12.4671C93.3897 12.5828 93.4824 12.7213 93.5445 12.874C93.6067 13.0267 93.6372 13.1905 93.6341 13.3554C93.6341 13.9478 93.2266 14.5418 92.3791 14.5418C92.2157 14.549 92.0525 14.5223 91.8999 14.4634C91.7473 14.4045 91.6085 14.3147 91.4922 14.1996C91.376 14.0844 91.2848 13.9465 91.2244 13.7945C91.164 13.6424 91.1357 13.4795 91.1413 13.316ZM91.2423 15.6735H93.5485V22.2051C93.5485 22.6126 93.6341 22.9002 93.9731 22.9002C94.1209 22.8962 94.2681 22.8796 94.4131 22.8506L94.7692 24.5284C94.2828 24.7156 93.7649 24.8075 93.2437 24.7989C92.2764 24.7989 91.2423 24.5113 91.2423 22.3249V15.6735Z" fill="white"/>
<path d="M103.859 17.096V15.6732H106.163V24.6017H103.859V23.1619C103.247 24.1891 101.992 24.7883 100.467 24.7883C97.2791 24.7883 95.502 22.5506 95.502 19.9568C95.502 17.4641 97.1986 15.4644 100.125 15.4644C101.806 15.4695 103.196 16.0413 103.859 17.096ZM97.9571 20.0801C97.9571 21.7254 98.9843 23.1327 100.993 23.1327C102.926 23.1327 103.977 21.7631 103.977 20.1315C103.977 18.4999 102.891 17.1131 100.895 17.1131C98.9586 17.1131 97.9571 18.5033 97.9571 20.0801Z" fill="white"/>
<path d="M109.705 12.3657H115.233C119.878 12.3657 122.202 14.9338 122.167 18.4864C122.202 22.1828 119.64 24.6071 115.639 24.6071H109.705V12.3657ZM111.231 13.4512V23.5404H115.439C119.135 23.5404 120.543 21.0477 120.543 18.4539C120.543 15.5211 118.779 13.4512 115.439 13.4512H111.231Z" fill="white"/>
<path d="M131.592 24.6019H124.572V12.3657H130.897C133.321 12.3657 135.627 12.8246 135.593 15.5365C135.593 17.4523 134.406 17.9779 133.151 18.1816C134.932 18.334 136 19.4708 136 21.3011C136.016 24.0489 133.609 24.6019 131.592 24.6019ZM131.066 17.7023C133.49 17.7023 134.033 16.7692 134.033 15.5827C134.033 13.8022 132.948 13.3964 131.066 13.3964H126.031V17.7023H131.066ZM131.133 18.7295H126.031V23.5747H131.361C132.854 23.5747 134.43 23.0833 134.43 21.2018C134.424 19.0291 132.609 18.7415 131.133 18.7415V18.7295Z" fill="white"/>
<path d="M52.1257 1.12422C51.9855 1.00811 51.8077 0.947219 51.6258 0.953016C51.1293 0.953016 50.4873 1.29543 50.1431 1.46664C50.0832 1.49746 50.037 1.52314 50.0045 1.53683C49.4269 1.82116 48.7968 1.9832 48.1537 2.01279C47.4928 2.03334 46.9227 2.07271 46.1848 2.14805C41.7916 2.60003 39.8416 5.96255 37.9566 9.21379C36.9293 10.9824 35.8713 12.8091 34.4177 14.2267C34.1172 14.5188 33.7974 14.7905 33.4607 15.04C31.9575 16.1597 30.069 16.9524 28.5932 17.5174C27.1791 18.0567 25.6348 18.5446 24.1418 19.0137C22.7722 19.4434 21.4864 19.8492 20.2999 20.2909C19.7641 20.4895 19.3086 20.6419 18.908 20.7754C17.8277 21.135 17.047 21.3952 15.9102 22.1725C15.4667 22.4772 15.0216 22.806 14.7117 23.0525C13.8089 23.7744 13.0098 24.6172 12.3371 25.5573C11.7605 26.4234 11.0949 27.2267 10.3511 27.9542C10.1114 28.1887 9.68506 28.2966 9.04645 28.2966C8.29827 28.2966 7.39087 28.1425 6.4304 27.9781C5.44253 27.8069 4.41871 27.6357 3.54212 27.6357C2.82819 27.6357 2.28375 27.7522 1.87456 27.9884C1.87456 27.9884 1.18973 28.389 0.900391 28.9061L1.1846 29.0362C1.62534 29.2743 2.03384 29.5677 2.40017 29.9094C2.78058 30.2617 3.20464 30.5638 3.66197 30.8082C3.80807 30.8664 3.94044 30.9545 4.05061 31.0667C3.93077 31.2379 3.75442 31.4691 3.57123 31.7105C2.55768 33.0356 1.96701 33.8728 2.30601 34.3282C2.46427 34.4111 2.64103 34.4524 2.81963 34.4481C5.02821 34.4481 6.21296 33.8745 7.71446 33.1486C8.14932 32.938 8.59789 32.7206 9.11151 32.498C9.98809 32.118 10.9332 31.5102 11.933 30.8681C13.2582 30.0121 14.6278 29.1355 15.9547 28.7109C17.0477 28.377 18.1865 28.217 19.3292 28.2367C20.7382 28.2367 22.2106 28.425 23.6351 28.6065C24.6983 28.7434 25.7974 28.8838 26.876 28.9489C27.2955 28.9746 27.6841 28.9866 28.0608 28.9866C28.5658 28.9886 29.0706 28.9618 29.5725 28.9061L29.6924 28.865C30.4491 28.3993 30.8035 27.4012 31.1476 26.4356C31.3685 25.8158 31.5534 25.2577 31.841 24.8947C31.8587 24.8767 31.8782 24.8607 31.8993 24.8468C31.913 24.8391 31.9289 24.8363 31.9444 24.8388C31.9599 24.8413 31.9742 24.8489 31.9849 24.8605C31.9849 24.8605 31.9849 24.8605 31.9849 24.8878C31.8034 28.663 30.2899 31.0599 28.7525 33.1897L27.7252 34.2906C27.7252 34.2906 29.1616 34.2906 29.9783 33.9756C32.9607 33.0818 35.2138 31.1181 36.8523 27.9833C37.2565 27.1784 37.6177 26.3526 37.9343 25.5093C37.9617 25.4391 38.222 25.3107 38.1963 25.6805C38.1963 25.7884 38.1809 25.9082 38.1723 26.023C38.1723 26.0983 38.162 26.1736 38.1586 26.249C38.1158 26.7626 37.9874 27.8874 37.9874 27.8874L38.9085 27.3943C41.1342 25.9853 42.8463 23.1587 44.1406 18.7518C44.6816 16.9181 45.0771 15.0948 45.4264 13.4871C45.8441 11.5628 46.2054 9.90204 46.6248 9.26001C47.272 8.25331 48.2599 7.5719 49.2152 6.91104L49.6055 6.64053C50.804 5.79648 52.0025 4.82231 52.2661 3.00751V2.96642C52.4716 1.62757 52.3089 1.28345 52.1257 1.12422Z" fill="white"/>
</g>
<defs>
<clipPath id="clip0">
<rect width="135.1" height="33.4951" fill="white" transform="translate(0.900391 0.958984)"/>
</clipPath>
</defs>
</svg>
