<svg width="128" height="35" viewBox="0 0 128 35" fill="none" xmlns="http://www.w3.org/2000/svg">
<path d="M15.4661 13.8446C13.7048 6.0744 10.0337 4.00588 9.09722 2.54365C8.71106 1.8995 8.36897 1.22993 8.07331 0.539551C8.02384 1.22982 7.93296 1.6647 7.34622 2.18815C6.16816 3.23852 1.16482 7.31574 0.743754 16.1443C0.351448 24.3759 6.79515 29.4517 7.64649 29.9763C8.3011 30.2984 9.09837 29.9832 9.48722 29.6875C12.5935 27.5557 16.8375 21.8725 15.4696 13.8446" fill="#10AA50"/>
<path d="M8.34066 25.5925C8.17845 27.63 8.06225 28.8138 7.65039 29.9781C7.65039 29.9781 7.92075 31.9177 8.11057 33.9725H8.78244C8.9427 32.5255 9.1874 31.0892 9.51528 29.6709C8.64554 29.2429 8.37403 27.3803 8.34066 25.5925Z" fill="#B8C4C2"/>
<path d="M9.51529 29.673C8.63634 29.2669 8.38209 27.3652 8.34297 25.5935C8.56034 22.6709 8.6237 19.7389 8.5328 16.8097C8.48678 15.2727 8.55466 2.57398 8.1543 0.714844C8.42816 1.34451 8.74371 1.95523 9.09882 2.54292C10.0353 4.0063 13.7075 6.07482 15.4677 13.845C16.8391 21.8591 12.6181 27.5274 9.51529 29.673Z" fill="#12924F"/>
<path d="M125.363 26.8634C124.987 26.8633 124.619 26.752 124.306 26.5434C123.993 26.3349 123.748 26.0383 123.603 25.6911C123.458 25.3439 123.418 24.9615 123.49 24.592C123.561 24.2225 123.741 23.8824 124.005 23.6145C124.269 23.3465 124.607 23.1627 124.975 23.0861C125.344 23.0095 125.727 23.0435 126.076 23.1839C126.425 23.3244 126.725 23.5649 126.938 23.8752C127.151 24.1856 127.267 24.552 127.272 24.9283C127.279 25.182 127.234 25.4345 127.141 25.6707C127.048 25.9068 126.908 26.1217 126.73 26.3024C126.552 26.4831 126.339 26.6259 126.104 26.7223C125.869 26.8187 125.617 26.8667 125.363 26.8634ZM125.363 23.2187C125.02 23.2164 124.683 23.3163 124.396 23.5056C124.109 23.6948 123.884 23.9651 123.751 24.282C123.617 24.599 123.581 24.9484 123.646 25.286C123.712 25.6236 123.876 25.9342 124.118 26.1785C124.36 26.4228 124.669 26.5898 125.006 26.6582C125.343 26.7267 125.693 26.6937 126.011 26.5632C126.329 26.4328 126.601 26.2109 126.793 25.9256C126.985 25.6402 127.088 25.3044 127.089 24.9605C127.094 24.7319 127.052 24.5047 126.967 24.2924C126.882 24.0801 126.756 23.8871 126.595 23.7246C126.434 23.5622 126.242 23.4337 126.03 23.3468C125.819 23.2599 125.592 23.2164 125.363 23.2187ZM125.824 26.1616L125.331 25.0997H124.934V26.1616H124.646V23.7456H125.358C125.888 23.7456 126.109 23.9757 126.109 24.4209C126.109 24.7753 125.942 24.9962 125.632 25.064L126.14 26.1581L125.824 26.1616ZM124.946 24.8501H125.363C125.702 24.8501 125.831 24.735 125.831 24.4267C125.831 24.1184 125.707 24.0137 125.327 24.0137H124.946V24.8501Z" fill="white"/>
<path d="M96.9582 25.1234C97.4748 25.5365 98.5067 25.7067 99.4167 25.7067C100.596 25.7067 101.752 25.4881 102.882 24.4677C104.032 23.4219 104.824 21.8216 104.824 19.2665C104.824 16.8114 103.89 14.8188 101.973 13.6522C100.892 12.9723 99.4904 12.7043 97.8924 12.7043C97.4322 12.7043 96.9582 12.7284 96.689 12.8504C96.5786 12.9375 96.5005 13.059 96.467 13.1955C96.4187 13.6327 96.4186 16.9621 96.4186 18.9305C96.4186 20.9484 96.4187 23.7625 96.467 24.1076C96.4923 24.3998 96.6395 24.9129 96.9582 25.128V25.1234ZM92.0527 11.6113C92.4703 11.6113 94.0579 11.6838 94.7965 11.6838C96.1771 11.6838 97.1308 11.6113 99.7113 11.6113C101.874 11.6113 103.694 12.1946 104.995 13.3117C106.569 14.6738 107.411 16.5686 107.411 18.8776C107.411 22.1587 105.916 24.0547 104.412 25.1234C102.916 26.2417 100.971 26.8733 98.1996 26.8733C96.7247 26.8733 94.1925 26.825 92.0791 26.8008H92.0354C91.9365 26.6064 92.216 25.8482 92.3886 25.8287C92.9638 25.7642 93.1157 25.7412 93.3803 25.6319C93.8267 25.449 93.9314 25.2212 93.9808 24.4194C94.0545 22.9123 94.0303 21.1141 94.0303 19.072C94.0303 17.6144 94.0545 14.7705 94.0061 13.8708C93.9314 13.1184 93.6138 12.924 92.9707 12.7779C92.5147 12.681 92.0539 12.6081 91.5902 12.5593C91.5419 12.4132 91.9192 11.754 92.0423 11.6113" fill="white"/>
<path d="M113.503 12.8453C113.405 12.8694 113.282 13.1133 113.282 13.2341C113.257 14.1096 113.233 16.3933 113.233 17.9728C113.239 18.003 113.254 18.0307 113.276 18.0524C113.298 18.0741 113.325 18.0889 113.356 18.0948C113.674 18.119 114.461 18.1443 115.125 18.1443C116.059 18.1443 116.6 18.0223 116.894 17.8762C117.681 17.4874 118.045 16.636 118.045 15.7134C118.045 13.5988 116.57 12.7969 114.383 12.7969C114.087 12.7932 113.792 12.8094 113.498 12.8453H113.503ZM119.078 22.5666C119.078 20.4279 117.504 19.213 114.628 19.213C114.506 19.213 113.593 19.1889 113.375 19.2372C113.302 19.2614 113.228 19.3097 113.228 19.3591C113.228 20.8904 113.203 23.3443 113.277 24.3165C113.327 24.7295 113.623 25.3128 113.99 25.483C114.383 25.7016 115.268 25.7499 115.882 25.7499C117.578 25.7499 119.078 24.8031 119.078 22.5666ZM109.062 11.6545C109.284 11.6545 109.938 11.727 111.609 11.727C113.182 11.727 114.46 11.6787 115.981 11.6787C117.874 11.6787 120.478 12.3598 120.478 15.1784C120.478 16.5589 119.496 17.6818 118.218 18.2167C118.144 18.2409 118.144 18.2892 118.218 18.3134C120.036 18.7736 121.633 19.893 121.633 22.0317C121.633 24.122 120.331 25.4347 118.438 26.2607C117.288 26.7715 115.858 26.9407 114.412 26.9407C113.306 26.9407 110.343 26.8256 108.695 26.844C108.523 26.7715 108.853 25.9927 109 25.8719C109.377 25.8603 109.752 25.8015 110.115 25.697C110.704 25.5521 110.774 25.3622 110.848 24.4867C110.897 23.7332 110.897 21.0354 110.897 19.1153C110.897 16.4899 110.922 14.7171 110.897 13.8416C110.873 13.1616 110.627 12.9419 110.16 12.8211C109.792 12.7475 109.177 12.675 108.686 12.6025C108.563 12.4806 108.941 11.7512 109.063 11.6545" fill="white"/>
<path d="M20.91 26.863C20.8467 26.7075 20.8211 26.5391 20.8352 26.3718C20.8297 26.2577 20.8556 26.1443 20.91 26.0439C21.2279 25.9981 21.5429 25.9339 21.8534 25.8518C22.2882 25.7436 22.4516 25.5066 22.4769 24.9521C22.5482 23.6417 22.5528 21.1832 22.5275 19.4552V19.4046C22.5275 19.2182 22.5275 18.9651 22.2974 18.7868C21.893 18.5331 21.454 18.3393 20.994 18.2116C20.788 18.1506 20.6741 18.0425 20.6799 17.9159C20.6856 17.7894 20.8156 17.6398 21.0837 17.5869C21.7958 17.5144 23.6619 17.0692 24.3947 16.731C24.4702 16.8293 24.5052 16.9528 24.4925 17.0761C24.4925 17.152 24.481 17.2326 24.473 17.3154C24.4522 17.5593 24.4292 17.8365 24.4292 18.1127C24.4337 18.1462 24.4475 18.1778 24.469 18.2039C24.4905 18.2301 24.5189 18.2497 24.5509 18.2606C24.583 18.2715 24.6174 18.2732 24.6504 18.2655C24.6834 18.2579 24.7136 18.2412 24.7376 18.2173C26.1331 17.1233 27.3836 16.7333 28.0244 16.7333C29.0794 16.7333 29.9008 17.2372 30.537 18.2749C30.5516 18.2999 30.5724 18.3208 30.5974 18.3355C30.6223 18.3502 30.6507 18.3583 30.6797 18.3589C30.706 18.3586 30.7319 18.352 30.7551 18.3396C30.7784 18.3272 30.7983 18.3093 30.8131 18.2875C32.0959 17.3142 33.3671 16.7333 34.2185 16.7333C36.2295 16.7333 37.4317 18.2392 37.4317 20.7599C37.4317 21.4846 37.4248 22.4039 37.4179 23.2609C37.4121 24.0133 37.4064 24.7186 37.4064 25.2064C37.4064 25.3214 37.5651 25.6527 37.8033 25.7183C38.0978 25.8621 38.5223 25.9358 39.0596 26.0278H39.0803C39.1206 26.1728 39.0354 26.7353 38.9537 26.8504C38.8203 26.8504 38.6362 26.8389 38.4061 26.8274C37.9885 26.8067 37.4156 26.7779 36.7495 26.7779C35.4126 26.7779 34.7143 26.8032 34.047 26.8469C33.9964 26.6801 33.9792 26.1417 34.0401 26.0289C34.3165 25.9857 34.59 25.9262 34.8593 25.8506C35.2849 25.7103 35.408 25.517 35.4345 24.9521C35.4449 24.5506 35.5219 21.013 35.385 20.1731C35.2585 19.3022 34.6027 18.2829 33.1681 18.2829C32.6354 18.2829 31.776 18.505 30.9569 19.1262C30.9061 19.1838 30.8776 19.2576 30.8764 19.3344V19.3517C30.973 19.805 30.973 20.3342 30.973 21.1338C30.973 21.5939 30.973 22.0737 30.9673 22.5534C30.9615 23.529 30.9569 24.4494 30.973 25.1454C30.973 25.6194 31.2595 25.7333 31.4907 25.8242C31.6161 25.8518 31.7151 25.8759 31.8152 25.8989C32.0073 25.9461 32.2075 25.9944 32.5054 26.0416C32.5495 26.2437 32.5456 26.4533 32.4939 26.6536C32.4817 26.7288 32.4522 26.8001 32.4076 26.8619C31.6645 26.8366 30.9017 26.8147 29.8007 26.8147C29.4671 26.8147 28.9229 26.8285 28.442 26.8412C28.052 26.8515 27.6839 26.8619 27.4745 26.863C27.4179 26.7294 27.3927 26.5846 27.4009 26.4397C27.3891 26.3031 27.4158 26.166 27.4779 26.0439L27.7736 25.9898C28.0313 25.9438 28.2545 25.9047 28.4639 25.8518C28.8274 25.7367 28.9643 25.5389 28.9908 25.0752C29.0621 23.9938 29.1173 20.8772 28.9643 20.0972C28.7043 18.8455 27.9922 18.2104 26.8463 18.2104C26.1756 18.2104 25.3277 18.5337 24.6352 19.0526C24.5685 19.1174 24.5161 19.1954 24.481 19.2815C24.446 19.3676 24.4291 19.4601 24.4315 19.553C24.4315 19.9246 24.4315 20.3664 24.4315 20.8404C24.4315 22.405 24.4212 24.3527 24.4591 25.1949C24.4822 25.4549 24.5742 25.7632 25.0608 25.8759C25.1678 25.907 25.3519 25.9369 25.5659 25.9726C25.689 25.9933 25.8236 26.0151 25.9628 26.0405C26.007 26.3159 25.9846 26.598 25.8972 26.863C25.6832 26.863 25.4198 26.8492 25.1184 26.8366C24.6582 26.8159 24.0829 26.7905 23.4329 26.7905C22.6644 26.7905 22.1295 26.8159 21.7003 26.8366C21.4116 26.8504 21.1619 26.8619 20.9123 26.863" fill="white"/>
<path d="M45.5797 17.7729C45.1644 17.7642 44.756 17.8792 44.4062 18.103C43.5526 18.6219 43.1177 19.6585 43.1177 21.1817C43.1177 24.0325 44.5454 26.0239 46.5898 26.0239C47.1379 26.0413 47.6726 25.852 48.0877 25.4936C48.7158 24.9816 49.0494 23.9347 49.0494 22.469C49.0494 19.6608 47.6539 17.7729 45.5774 17.7729H45.5797ZM45.9708 27.0812C42.2779 27.0812 40.9629 24.3719 40.9629 21.8374C40.9629 20.0669 41.6865 18.6829 43.1142 17.7222C44.1142 17.1032 45.2621 16.7639 46.4379 16.7397C49.2554 16.7397 51.2238 18.7657 51.2238 21.6683C51.2238 23.6402 50.438 25.1979 48.9505 26.1712C48.2361 26.6084 46.9947 27.0812 45.9708 27.0812Z" fill="white"/>
<path d="M83.1789 17.7729C82.7629 17.7634 82.3535 17.8784 82.0032 18.103C81.1495 18.6219 80.7147 19.6585 80.7147 21.1817C80.7147 24.0325 82.1424 26.0239 84.1867 26.0239C84.7365 26.0425 85.273 25.8531 85.6892 25.4936C86.3174 24.9816 86.6499 23.9347 86.6499 22.469C86.6499 19.6608 85.2555 17.7729 83.1789 17.7729ZM83.5724 27.0812C79.8794 27.0812 78.5645 24.3719 78.5645 21.8386C78.5645 20.0657 79.2881 18.6829 80.717 17.7222C81.7163 17.1028 82.8639 16.7635 84.0395 16.7397C86.8569 16.7397 88.8254 18.7669 88.8254 21.6672C88.8254 23.6413 88.0396 25.1979 86.5521 26.17C85.8376 26.6084 84.5963 27.0812 83.5724 27.0812Z" fill="white"/>
<path d="M70.7449 17.6766C69.6071 17.6766 68.8708 18.5751 68.8708 19.966C68.8708 21.3569 69.5047 23.0101 71.2868 23.0101C71.5928 23.0101 72.1473 22.8744 72.4223 22.5718C72.8365 22.191 73.1126 21.4041 73.1126 20.5735C73.1126 18.7592 72.229 17.6766 70.7507 17.6766H70.7449ZM70.6034 27.276C70.282 27.2725 69.965 27.3518 69.6831 27.5061C68.7823 28.0814 68.3646 28.6566 68.3646 29.325C68.3646 29.9509 68.6074 30.449 69.1297 30.8908C69.7625 31.4269 70.6161 31.688 71.7378 31.688C73.9455 31.688 74.9349 30.5008 74.9349 29.325C74.9349 28.5059 74.5242 27.9571 73.6786 27.6465C73.0274 27.4083 71.9391 27.2772 70.6069 27.2772L70.6034 27.276ZM70.7541 32.9144C69.4288 32.9144 68.4739 32.6349 67.6583 32.0067C66.8645 31.3947 66.5078 30.4858 66.5078 29.8577C66.5164 29.4529 66.6708 29.0648 66.9427 28.7647C67.1728 28.5024 67.7077 28.0112 68.9445 27.161C68.9636 27.1528 68.98 27.1392 68.9914 27.1218C69.0029 27.1044 69.009 27.084 69.0089 27.0632C69.0093 27.04 69.0018 27.0173 68.9875 26.9989C68.9733 26.9805 68.9533 26.9675 68.9307 26.962C67.9125 26.572 67.6053 25.9266 67.5122 25.5814C67.5122 25.5688 67.5122 25.5492 67.5018 25.5273C67.473 25.3916 67.4454 25.2627 67.6307 25.1304C67.7733 25.0292 68.0011 24.8934 68.245 24.7496C68.5893 24.5591 68.9195 24.3441 69.2332 24.1065C69.2501 24.0884 69.2626 24.0667 69.2698 24.043C69.2769 24.0193 69.2786 23.9943 69.2746 23.9698C69.2706 23.9454 69.261 23.9222 69.2467 23.902C69.2324 23.8819 69.2136 23.8652 69.1918 23.8534C67.6847 23.3472 66.9254 22.2278 66.9254 20.5171C66.9208 19.9837 67.0449 19.4569 67.2873 18.9817C67.5296 18.5064 67.883 18.0966 68.3175 17.7871C68.9238 17.3073 70.4458 16.731 71.4318 16.731H71.4893C72.5028 16.7551 73.0746 16.968 73.8661 17.2602C74.3164 17.423 74.7935 17.4987 75.272 17.4834C76.1107 17.4834 76.4777 17.2176 76.7929 16.9081C76.844 17.0475 76.8712 17.1945 76.8734 17.343C76.8927 17.6967 76.7966 18.0472 76.5996 18.3416C76.4282 18.5797 76.0244 18.7523 75.6551 18.7523C75.6171 18.7523 75.5803 18.7523 75.54 18.7466C75.3457 18.7329 75.1531 18.7009 74.9648 18.6511L74.8705 18.6844C74.8406 18.7282 74.8601 18.7765 74.8843 18.8386C74.8902 18.8507 74.8948 18.8635 74.8981 18.8766C74.9654 19.1836 75.0112 19.495 75.035 19.8084C75.035 21.5974 74.3298 22.3762 73.567 22.9538C72.8296 23.5071 71.9538 23.8463 71.036 23.934C71.0164 23.934 70.921 23.942 70.7415 23.9581C70.6264 23.9685 70.4769 23.9823 70.455 23.9823H70.4332C70.2675 24.0283 69.8349 24.2342 69.8349 24.6173C69.8349 24.9349 70.0305 25.3295 70.9658 25.4008L71.571 25.4434C72.8043 25.5296 74.3447 25.6366 75.0695 25.8817C75.5503 26.0508 75.9655 26.3671 76.2561 26.7858C76.5468 27.2045 76.6979 27.7041 76.6882 28.2137C76.6882 29.8186 75.5469 31.3279 73.636 32.2506C72.7349 32.681 71.7482 32.9025 70.7495 32.8983" fill="white"/>
<path d="M65.0984 26.0074C64.5577 25.9349 64.1631 25.8613 63.6971 25.6427C63.6057 25.548 63.5455 25.4276 63.5246 25.2976C63.4751 24.544 63.4751 22.357 63.4751 20.9259C63.4751 19.7581 63.2795 18.74 62.7848 18.0094C62.1946 17.1823 61.3594 16.6968 60.278 16.6968C59.3196 16.6968 58.0415 17.3525 56.9854 18.2522C56.9601 18.2764 56.7978 18.4305 56.8013 18.1912C56.8047 17.9519 56.8416 17.4664 56.8646 17.1558C56.8748 17.0733 56.8655 16.9895 56.8376 16.9112C56.8096 16.8329 56.7637 16.7622 56.7035 16.7048C56.0132 17.05 54.077 17.5101 53.3603 17.5803C52.838 17.6816 52.7057 18.1843 53.2636 18.358H53.2717C53.7183 18.4812 54.1446 18.6688 54.5372 18.9149C54.7581 19.0851 54.7339 19.3279 54.7339 19.5223C54.7581 21.1502 54.7581 23.6536 54.6844 25.0146C54.6603 25.5495 54.5119 25.744 54.1184 25.8418L54.1552 25.8291C53.8556 25.9042 53.5517 25.961 53.2452 25.9994C53.1221 26.1202 53.1221 26.8254 53.2452 26.9715C53.4914 26.9715 54.7408 26.899 55.7762 26.899C57.2005 26.899 57.9379 26.9715 58.3072 26.9715C58.4556 26.8012 58.504 26.1455 58.4062 25.9994C58.0659 25.984 57.7279 25.935 57.3972 25.8533C57.0049 25.7566 56.906 25.561 56.8818 25.125C56.8335 23.9815 56.8335 21.5517 56.8335 19.8985C56.8335 19.4383 56.9554 19.2186 57.1027 19.0932C57.594 18.656 58.4062 18.3649 59.1183 18.3649C59.8086 18.3649 60.2688 18.5835 60.6139 18.8746C61.0159 19.2254 61.2679 19.7171 61.318 20.2482C61.4158 21.1686 61.3905 23.0197 61.3905 24.62C61.3905 25.4955 61.318 25.7152 60.9982 25.8118C60.8509 25.8843 60.4574 25.958 59.9904 26.0063C59.8431 26.1524 59.8914 26.8323 59.9904 26.9784C60.6289 26.9784 61.3709 26.9059 62.4477 26.9059C63.7995 26.9059 64.6601 26.9784 65.004 26.9784C65.1513 26.8081 65.2008 26.1731 65.103 26.0063" fill="white"/>
</svg>
