<svg width="76" height="60" viewBox="0 0 97 67" fill="none" xmlns="http://www.w3.org/2000/svg">
<g clip-path="url(#clip0)">
<path fill-rule="evenodd" clip-rule="evenodd" d="M66.3412 7.37646C65.8793 7.37646 65.5328 7.4342 65.2441 7.49194V7.54968H65.3019C65.5328 7.95385 65.8793 8.30027 66.1679 8.6467C66.3989 9.05087 66.5721 9.51277 66.8031 9.91694L66.8608 9.8592C67.265 9.57051 67.4382 9.16635 67.4382 8.53123C67.265 8.35801 67.265 8.12706 67.0918 7.95385C66.8608 7.72289 66.5144 7.54968 66.3412 7.37646Z" fill="white"/>
<path d="M23.3262 60.7275H19.5732C19.4577 54.3763 19.1113 48.4292 18.4762 42.8864L12.7601 60.7275H9.93095L4.21488 42.8864C3.81071 48.1983 3.52202 54.1453 3.40655 60.7275H0C0.230952 52.7596 0.750595 45.3114 1.6744 38.3828H6.29345L11.7208 54.8382H11.7786L17.206 38.3828H21.6518C22.5756 46.4661 23.153 53.9721 23.3262 60.7275Z" fill="white"/>
<path d="M39.5494 44.2147C38.0482 52.4713 36.0274 58.476 33.5446 62.229C31.5815 65.1159 29.4452 66.5594 27.1357 66.5594C26.5006 66.5594 25.75 66.3861 24.8262 65.982V63.9611C25.2881 64.0189 25.8077 64.0766 26.3851 64.0766C27.4821 64.0766 28.3482 63.7879 28.9833 63.1528C29.7916 62.4022 30.1958 61.5939 30.1958 60.7278C30.1958 60.0927 29.9071 58.8225 29.272 56.9171L25.1726 44.157H28.8678L31.8125 53.6838C32.4476 55.8778 32.7363 57.379 32.6208 58.2451C34.2375 53.9147 35.3345 49.2379 36.0274 44.157H39.5494V44.2147Z" fill="white"/>
<path d="M89.3797 60.7273H78.7559V38.325H82.3356V57.9559H89.3797V60.7273Z" fill="#F29111"/>
<path fill-rule="evenodd" clip-rule="evenodd" d="M75.9829 61.2464L71.8835 59.2255C72.2299 58.9368 72.5764 58.5904 72.9228 58.244C74.6549 56.1654 75.521 53.163 75.521 49.1214C75.521 41.7309 72.6341 38.0356 66.8025 38.0356C63.9734 38.0356 61.7216 38.9595 60.1627 40.8648C58.4305 42.9434 57.5645 45.9458 57.5645 49.9297C57.5645 53.8559 58.315 56.7428 59.874 58.5904C61.2597 60.2648 63.396 61.0731 66.2829 61.0731C67.3222 61.0731 68.3037 60.9577 69.2276 60.669L74.5972 63.7868L75.9829 61.2464ZM62.6454 56.2231C61.7216 54.7797 61.2597 52.4124 61.2597 49.1791C61.2597 43.5208 62.9918 40.7493 66.3984 40.7493C68.1883 40.7493 69.5162 41.4422 70.3246 42.7702C71.2484 44.2136 71.7103 46.5231 71.7103 49.7565C71.7103 55.4148 69.9781 58.3017 66.5716 58.3017C64.7817 58.244 63.5115 57.5511 62.6454 56.2231Z" fill="#F29111"/>
<path d="M55.9483 54.491C55.9483 56.3964 55.2555 57.9553 53.8698 59.1678C52.484 60.3803 50.6364 61.0154 48.2692 61.0154C46.0751 61.0154 43.9388 60.3226 41.918 58.9368L42.8995 57.0315C44.6894 57.8976 46.2483 58.3595 47.6918 58.3595C49.0198 58.3595 50.1168 58.0708 50.8674 57.4934C51.618 56.916 52.0799 56.0499 52.0799 55.0106C52.0799 53.6827 51.1561 52.5279 49.4817 51.6041C47.9227 50.738 44.8049 48.9481 44.8049 48.9481C43.015 47.6202 42.1489 46.2922 42.1489 44.0981C42.1489 42.3083 42.784 40.8071 44.0543 39.7101C45.3245 38.613 46.9412 38.0356 48.962 38.0356C51.0406 38.0356 52.9459 38.613 54.6203 39.7101L53.7543 41.6154C52.3108 40.9803 50.8674 40.6916 49.4239 40.6916C48.2692 40.6916 47.4031 40.9803 46.768 41.4999C46.1329 42.0773 45.7864 42.7702 45.7864 43.6362C45.7864 44.9642 46.7102 46.119 48.5001 47.1005C50.1168 47.9666 53.2924 49.8142 53.2924 49.8142C55.0823 51.0267 55.9483 52.3547 55.9483 54.491Z" fill="#F29111"/>
<path fill-rule="evenodd" clip-rule="evenodd" d="M93.8807 30.8193C91.7444 30.7615 90.07 30.9925 88.6265 31.5698C88.2224 31.7431 87.5872 31.7431 87.5295 32.2627C87.7605 32.4937 87.7605 32.8401 87.9914 33.1288C88.3378 33.6484 88.8575 34.399 89.3771 34.8032C89.9545 35.2073 90.5319 35.6693 91.1093 36.0734C92.1486 36.7085 93.3611 37.1127 94.4003 37.7478C94.9777 38.152 95.6128 38.6139 96.1902 39.0181C96.4789 39.249 96.6521 39.5954 97.0563 39.7109V39.6532C96.8831 39.4222 96.8253 39.0758 96.6521 38.7871C96.3634 38.4984 96.1325 38.2675 95.8438 37.9788C95.0355 36.9395 94.1117 36.0157 93.0146 35.2651C92.1486 34.6877 90.2432 33.8794 89.8968 32.8401C89.8968 32.8401 89.8968 32.8401 89.839 32.7823C90.4164 32.7246 91.1093 32.4937 91.6866 32.3204C92.6105 32.0895 93.4188 32.1472 94.4003 31.9163C94.8622 31.8008 95.2664 31.6853 95.7283 31.5121V31.2812C95.2664 30.8193 94.8622 30.1264 94.4003 29.6645C93.0146 28.452 91.5134 27.2972 89.9545 26.3157C89.0884 25.796 88.0491 25.4496 87.1253 24.9877C86.7789 24.8145 86.2593 24.7568 86.0861 24.4681C85.6242 23.8907 85.3355 23.0823 84.989 22.3895C84.1807 20.8883 83.4301 19.2716 82.795 17.7127C82.3331 16.6734 81.9866 15.6341 81.4093 14.6526C78.6378 10.0335 75.5777 7.26211 70.9587 4.54842C69.9771 3.97104 68.7646 3.74009 67.4944 3.4514C66.8015 3.4514 66.1664 3.39366 65.4736 3.33592C65.0116 3.16271 64.6075 2.64306 64.2033 2.41211C62.6444 1.43056 58.7182 -0.648007 57.5634 2.12342C56.8128 3.85556 58.6605 5.58771 59.2378 6.51152C59.6997 7.14664 60.2771 7.83949 60.6236 8.53235C60.7968 8.99425 60.8545 9.45616 61.0855 9.9758C61.4896 11.1883 61.8938 12.5163 62.4712 13.6133C62.7599 14.1907 63.1063 14.7681 63.4527 15.2877C63.6837 15.5764 64.0301 15.6919 64.1456 16.2115C63.7414 16.7312 63.7414 17.5395 63.5105 18.2323C62.5289 21.2925 62.9331 25.0454 64.3188 27.2972C64.723 27.9901 65.7622 29.4335 67.148 28.9139C68.3605 28.452 68.0718 26.8931 68.4182 25.5651C68.4759 25.2187 68.4182 25.0454 68.5914 24.8145V24.8722C68.9956 25.6228 69.342 26.3734 69.6884 27.124C70.5545 28.452 71.998 29.8377 73.2105 30.7615C73.8456 31.2234 74.3652 32.0895 75.1736 32.3782V32.3204H75.0581C74.8849 32.0895 74.6539 31.974 74.423 31.8008C73.9611 31.3389 73.3837 30.7038 73.0372 30.1841C71.8825 28.6829 70.9009 27.0085 70.0349 25.2764C69.573 24.4103 69.2265 23.5443 68.8801 22.6782C68.7069 22.3318 68.7069 21.8699 68.4759 21.6966C68.0718 22.274 67.4944 22.7937 67.2057 23.5443C66.6861 24.699 66.6283 26.1425 66.4551 27.6437C66.3396 27.6437 66.3974 27.6437 66.3396 27.7014C65.4736 27.4704 65.1849 26.6044 64.8384 25.8538C64.0301 23.9484 63.9146 20.8306 64.6075 18.6365C64.7807 18.0591 65.589 16.2693 65.3003 15.7496C65.1271 15.23 64.6075 14.9413 64.3188 14.5371C63.9724 14.0175 63.5682 13.3823 63.3372 12.805C62.7021 11.3038 62.3557 9.62937 61.6628 8.12818C61.3164 7.43533 60.7968 6.68473 60.3349 6.04961C59.8152 5.29902 59.2378 4.77937 58.8337 3.97104C58.7182 3.68235 58.4872 3.16271 58.7182 2.87402C58.7759 2.64306 58.8914 2.58533 59.1224 2.52759C59.4688 2.2389 60.4503 2.58533 60.7968 2.75854C61.7783 3.16271 62.6444 3.56687 63.4527 4.08652C63.8569 4.37521 64.2611 4.89485 64.723 5.01033H65.3003C66.1664 5.18354 67.148 5.06806 67.9563 5.29902C69.3997 5.76092 70.67 6.45378 71.8247 7.14664C75.3468 9.39842 78.2914 12.574 80.2545 16.3847C80.6009 17.0198 80.7164 17.5972 81.0051 18.2323C81.5825 19.5603 82.2753 20.8883 82.8527 22.2163C83.4301 23.4865 83.9497 24.7568 84.7581 25.8538C85.1622 26.4312 86.7789 26.7198 87.5295 27.0085C88.0492 27.2395 88.9152 27.4704 89.3771 27.7591C90.3009 28.3365 91.2247 28.9716 92.0908 29.6068C92.4372 29.6068 93.823 30.2996 93.8807 30.8193Z" fill="white"/>
<path d="M96.4801 60.7275H97.0575V58.0138H96.1914L95.4986 59.8614L94.748 58.0138H93.9396V60.7275H94.4593V58.6489H94.517L95.3254 60.7275H95.7295L96.4801 58.6489V60.7275ZM91.9188 60.7275H92.4962V58.418H93.2468V57.9561H91.0527V58.418H91.8611V60.7275H91.9188Z" fill="#F29111"/>
</g>
<defs>
<clipPath id="clip0">
<rect width="97" height="65.8792" fill="white" transform="translate(0 0.679688)"/>
</clipPath>
</defs>
</svg>
