<svg width="60" height="60" viewBox="0 0 60 60" fill="none" xmlns="http://www.w3.org/2000/svg">
<rect x="6" y="8" width="49" height="43" fill="white"/>
<path d="M55.6051 4.39493C58.427 7.21688 59.892 10.7518 59.999 14.9998V45.0003C59.892 49.2472 58.427 52.7831 55.6051 55.6051C52.7831 58.427 49.2472 59.892 44.9993 60H14.9998C10.7518 59.892 7.21688 58.427 4.39493 55.6051C1.57297 52.7831 0.107998 49.2472 0 45.0003V14.9998C0.107998 10.7518 1.57297 7.21688 4.39493 4.39493C7.21688 1.57297 10.7518 0.107998 14.9998 0H44.9993C49.2472 0.107998 52.7831 1.57297 55.6051 4.39493ZM51.4671 28.5355C50.5242 27.5975 50.0342 26.4206 49.9952 25.0046V14.9998C49.9652 13.5838 49.4792 12.4048 48.5372 11.4628C47.5952 10.5198 46.4152 10.0348 44.9993 10.0048H40.0043V34.9954L19.9957 10.0048H14.9998C13.5838 10.0348 12.4048 10.5198 11.4628 11.4628C10.5198 12.4048 10.0348 13.5838 10.0048 14.9998V25.0046C9.96583 26.4206 9.47584 27.5975 8.53286 28.5355C7.59087 29.4725 6.41189 29.9605 4.99592 29.9995C6.41189 30.0395 7.59087 30.5275 8.53286 31.4645C9.47584 32.4025 9.96583 33.5794 10.0048 34.9954V45.0003C10.0348 46.4152 10.5198 47.5952 11.4628 48.5372C12.4048 49.4792 13.5838 49.9652 14.9998 49.9952H19.9957V25.0046L40.0043 49.9952H44.9993C46.4152 49.9652 47.5952 49.4792 48.5372 48.5372C49.4792 47.5952 49.9652 46.4152 49.9952 45.0003V34.9954C50.0342 33.5794 50.5242 32.4025 51.4671 31.4645C52.4091 30.5275 53.5881 30.0395 55.0041 29.9995C53.5881 29.9605 52.4091 29.4725 51.4671 28.5355Z" fill="#3C5AFD"/>
</svg>
