<svg width="113" height="31" viewBox="0 0 113 31" fill="none" xmlns="http://www.w3.org/2000/svg">
<path fill-rule="evenodd" clip-rule="evenodd" d="M41.025 9.97653L41.1196 11.6662C42.1981 10.3593 43.6141 9.70595 45.3667 9.70595C48.4039 9.70595 49.9497 11.4494 50.0036 14.9362V24.5973H46.7289V15.1253C46.7289 14.1975 46.529 13.5111 46.1293 13.0644C45.7295 12.6186 45.0754 12.3957 44.1675 12.3957C42.8461 12.3957 41.8614 12.9952 41.2157 14.1929V24.5973H37.9395V9.97653H41.0266H41.025ZM59.7646 24.8679C57.6891 24.8679 56.0056 24.213 54.7165 22.9023C53.4266 21.5917 52.7817 19.846 52.7817 17.6659V17.2608C52.7817 15.8018 53.0622 14.4973 53.6242 13.3489C54.1853 12.2004 54.9748 11.3064 55.9902 10.6661C57.0057 10.0273 58.138 9.70748 59.3879 9.70748C61.3735 9.70748 62.9086 10.3424 63.991 11.6123C65.0748 12.883 65.616 14.6795 65.616 17.0041V18.3285H56.084C56.184 19.5354 56.5852 20.4901 57.2909 21.1927C57.9966 21.8953 58.8844 22.2466 59.9537 22.2466C61.4542 22.2466 62.6765 21.6394 63.6204 20.4225L65.3862 22.1121C64.8019 22.9854 64.0225 23.6634 63.0477 24.1453C62.0723 24.6273 60.9784 24.8679 59.7654 24.8679H59.7646ZM59.3741 12.3426C58.4747 12.3426 57.7498 12.6578 57.1971 13.2881C56.6436 13.9185 56.2916 14.7971 56.1386 15.9233H62.3805V15.6796C62.3083 14.5803 62.0161 13.7501 61.5042 13.1867C60.9915 12.624 60.2819 12.3426 59.3741 12.3426ZM72.2615 6.42357V9.9773H74.8366V12.4095H72.2615V20.5709C72.2615 21.1289 72.3722 21.5317 72.592 21.78C72.8119 22.0276 73.2054 22.1513 73.772 22.1513C74.1577 22.1502 74.542 22.1048 74.9174 22.016V24.5566C74.1717 24.7642 73.453 24.8672 72.7604 24.8672C70.2444 24.8672 68.986 23.4758 68.986 20.6923V12.4087H66.5846V9.97653H68.9845V6.4228H72.2599L72.2615 6.42357ZM80.8226 24.5981H77.5463V3.84302H80.8226V24.5981ZM87.8732 24.5981H84.5969V9.9773H87.8732V24.5981ZM84.3948 6.17989C84.3948 5.67638 84.5539 5.25744 84.8729 4.92382C85.1927 4.59097 85.6485 4.42416 86.2412 4.42416C86.8346 4.42416 87.2928 4.59097 87.6172 4.92382C87.94 5.25744 88.1015 5.67638 88.1015 6.18065C88.1015 6.6757 87.94 7.08773 87.6172 7.41674C87.2928 7.74574 86.8346 7.91025 86.2412 7.91025C85.6485 7.91025 85.1927 7.74574 84.8729 7.41674C84.5539 7.0885 84.3948 6.6757 84.3948 6.18065V6.17989ZM92.5915 24.5981V12.4087H90.3668V9.97653H92.5915V8.63898C92.5915 7.01701 93.0404 5.76555 93.939 4.88231C94.8384 3.99983 96.096 3.55859 97.7134 3.55859C98.2891 3.55859 98.9003 3.63931 99.5475 3.80151L99.4668 6.36899C99.0534 6.29226 98.6335 6.25621 98.213 6.26137C96.6487 6.26137 95.8669 7.06697 95.8669 8.67972V9.97653H98.8326V12.4087H95.8669V24.5973H92.5915V24.5981ZM106.328 19.8959L109.294 9.9773H112.785L106.989 26.8143C106.099 29.2734 104.589 30.5033 102.459 30.5033C101.983 30.5033 101.457 30.4218 100.882 30.2596V27.7191L101.502 27.7598C102.329 27.7598 102.951 27.6091 103.37 27.307C103.787 27.0057 104.117 26.4991 104.36 25.7873L104.832 24.5305L99.7089 9.9773H103.241L106.328 19.8959Z" fill="white"/>
<path d="M21.4354 10.8657L21.4247 10.8611C21.4185 10.8588 21.4124 10.8565 21.407 10.8511C21.3982 10.8416 21.3916 10.8302 21.3879 10.8178C21.3842 10.8054 21.3834 10.7924 21.3855 10.7796L21.9797 7.14667L24.7662 9.93401L21.8682 11.167C21.8602 11.1703 21.8515 11.1718 21.8429 11.1716H21.8313C21.8275 11.1693 21.8236 11.1662 21.816 11.1586C21.7081 11.0385 21.5791 10.9392 21.4354 10.8657ZM25.4773 10.6443L28.4568 13.6238C29.0756 14.2434 29.3854 14.5524 29.4984 14.9106C29.5153 14.9637 29.5292 15.0167 29.5399 15.0713L22.4194 12.0556C22.4156 12.0541 22.4117 12.0525 22.4079 12.051C22.3794 12.0395 22.3464 12.0264 22.3464 11.9972C22.3464 11.968 22.3802 11.9542 22.4086 11.9426L22.4178 11.9388L25.4773 10.6443ZM29.4185 16.0276C29.2647 16.3166 28.9649 16.6164 28.4576 17.1245L25.0983 20.483L20.7536 19.5782L20.7305 19.5736C20.6921 19.5674 20.6514 19.5605 20.6514 19.5259C20.6349 19.3467 20.5816 19.1728 20.495 19.015C20.4084 18.8572 20.2902 18.719 20.1479 18.6089C20.1302 18.5912 20.1348 18.5635 20.1402 18.5381C20.1402 18.5343 20.1402 18.5305 20.1417 18.5274L20.9588 13.5108L20.9619 13.4939C20.9665 13.4555 20.9734 13.4109 21.008 13.4109C21.1832 13.3891 21.3522 13.3327 21.5053 13.2449C21.6584 13.1571 21.7925 13.0398 21.8997 12.8997C21.9067 12.892 21.9113 12.8835 21.9205 12.8789C21.9451 12.8674 21.9743 12.8789 21.9997 12.8897L29.4177 16.0276H29.4185ZM24.3258 21.2555L18.8018 26.7795L19.7474 20.968L19.7489 20.9603C19.7497 20.9527 19.7512 20.945 19.7535 20.9381C19.7612 20.9196 19.7812 20.9119 19.8004 20.9042L19.8096 20.9004C20.0166 20.8121 20.1998 20.6759 20.3439 20.503C20.3623 20.4814 20.3846 20.4607 20.4131 20.4568C20.4204 20.4556 20.428 20.4556 20.4354 20.4568L24.325 21.2563L24.3258 21.2555ZM17.6326 27.9487L17.01 28.5713L10.1262 18.6227C10.1237 18.6191 10.1212 18.6155 10.1185 18.6119C10.1078 18.5973 10.0962 18.5827 10.0985 18.5658C10.0985 18.5535 10.107 18.5428 10.1155 18.5335L10.1231 18.5235C10.1439 18.4928 10.1616 18.462 10.1808 18.429L10.1962 18.4021L10.1985 18.3998C10.2092 18.3813 10.2192 18.3637 10.2377 18.3537C10.2538 18.346 10.2761 18.349 10.2938 18.3529L17.9201 19.9257C17.9415 19.929 17.9616 19.9377 17.9786 19.951C17.9886 19.961 17.9909 19.9718 17.9932 19.9841C18.0464 20.1854 18.1454 20.3716 18.2824 20.5283C18.4195 20.685 18.591 20.8079 18.7834 20.8873C18.8049 20.8981 18.7957 20.9219 18.7857 20.9473C18.7807 20.9584 18.7769 20.97 18.7742 20.9819C18.6781 21.5661 17.854 26.5919 17.6326 27.9487ZM16.332 29.2485C15.8731 29.7029 15.6025 29.9435 15.2965 30.0403C14.9949 30.1357 14.6711 30.1357 14.3695 30.0403C14.0113 29.9265 13.7015 29.6175 13.0827 28.9979L6.16968 22.085L7.97537 19.2846C7.98383 19.2707 7.99228 19.2584 8.00612 19.2484C8.02534 19.2346 8.05301 19.2407 8.07607 19.2484C8.49053 19.3735 8.93552 19.3509 9.33521 19.1846C9.35597 19.1769 9.37672 19.1716 9.39287 19.1862C9.40094 19.1935 9.40816 19.2018 9.41439 19.2108L16.332 29.2493V29.2485ZM5.50321 21.4185L3.91736 19.8327L7.04908 18.4966C7.05708 18.4931 7.06571 18.4913 7.07445 18.4913C7.10058 18.4913 7.11596 18.5174 7.12979 18.5412C7.16126 18.5896 7.1946 18.6368 7.22972 18.6827L7.23972 18.695C7.24894 18.708 7.24279 18.7211 7.23357 18.7334L5.50398 21.4185H5.50321ZM3.21553 19.1308L1.20921 17.1245C0.867901 16.7832 0.620377 16.5357 0.448187 16.3227L6.54865 17.588C6.55631 17.5894 6.564 17.5907 6.57171 17.5919C6.60938 17.598 6.65089 17.6049 6.65089 17.6403C6.65089 17.6787 6.60553 17.6964 6.5671 17.711L6.54942 17.7187L3.21553 19.1308ZM0.0976562 15.2911C0.104609 15.1619 0.127854 15.034 0.16684 14.9106C0.280609 14.5524 0.589629 14.2434 1.20921 13.6238L3.77669 11.0563C4.95883 12.772 6.14418 14.4854 7.33273 16.1967C7.35349 16.2243 7.37655 16.2551 7.35272 16.2782C7.24049 16.4019 7.12825 16.5372 7.04908 16.684C7.04049 16.7029 7.02727 16.7193 7.01064 16.7317C7.00065 16.7378 6.98989 16.7355 6.97836 16.7332H6.97682L0.0976562 15.2904V15.2911ZM4.46392 10.3691L7.91464 6.91683C8.23981 7.05904 9.42131 7.55793 10.4767 8.00378C11.2762 8.34201 12.0049 8.6495 12.234 8.74943C12.2571 8.75865 12.2778 8.76788 12.2878 8.79094C12.294 8.80478 12.2909 8.82246 12.2878 8.83706C12.2332 9.08626 12.2413 9.34513 12.3115 9.5904C12.3817 9.83568 12.5117 10.0597 12.6899 10.2423C12.7129 10.2653 12.6899 10.2984 12.6699 10.3268L12.6591 10.343L9.1538 15.7723C9.14458 15.7877 9.13612 15.8008 9.12074 15.8108C9.1023 15.8223 9.07616 15.8169 9.05464 15.8115C8.9183 15.7758 8.77815 15.7567 8.63723 15.7547C8.51116 15.7547 8.37433 15.7777 8.23596 15.8031H8.23519C8.21982 15.8054 8.20598 15.8085 8.19368 15.7992C8.1801 15.7881 8.16842 15.7749 8.15909 15.76L4.46315 10.3691H4.46392ZM8.6134 6.21961L13.0827 1.75035C13.7015 1.13154 14.0113 0.821749 14.3695 0.708749C14.6711 0.61336 14.9949 0.61336 15.2965 0.708749C15.6548 0.821749 15.9645 1.13154 16.5834 1.75035L17.5519 2.71892L14.3733 7.64172C14.3655 7.65605 14.3547 7.66861 14.3418 7.67862C14.3226 7.69169 14.2957 7.68631 14.2726 7.67862C14.022 7.60257 13.7566 7.58872 13.4995 7.63828C13.2423 7.68783 13.0011 7.7993 12.7967 7.96304C12.7759 7.98456 12.7452 7.97227 12.7191 7.96073C12.304 7.78009 9.07539 6.41563 8.6134 6.21961ZM18.2269 3.39384L21.1618 6.32877L20.4546 10.7089V10.7204C20.4539 10.7304 20.4519 10.7402 20.4484 10.7496C20.4407 10.765 20.4254 10.7681 20.41 10.7727C20.2588 10.8185 20.1164 10.8894 19.9887 10.9825C19.9832 10.9864 19.9781 10.9908 19.9734 10.9956C19.9649 11.0048 19.9564 11.0133 19.9426 11.0148C19.9313 11.0152 19.9201 11.0133 19.9096 11.0094L15.4372 9.10918L15.4288 9.10534C15.4003 9.09381 15.3665 9.07997 15.3665 9.05076C15.3402 8.80153 15.2588 8.56128 15.1282 8.34739C15.1067 8.31203 15.0828 8.27514 15.1013 8.23901L18.2269 3.39384ZM15.2043 10.0093L19.3968 11.7851C19.4199 11.7958 19.4453 11.8058 19.4552 11.8296C19.4592 11.844 19.4592 11.8591 19.4552 11.8735C19.443 11.935 19.4322 12.0049 19.4322 12.0756V12.1932C19.4322 12.2224 19.4022 12.2347 19.3745 12.2463L19.3661 12.2494C18.7019 12.533 10.0417 16.2259 10.0286 16.2259C10.0155 16.2259 10.0017 16.2259 9.98862 16.2128C9.96555 16.1897 9.98862 16.1575 10.0094 16.1283C10.013 16.1232 10.0166 16.1181 10.0201 16.1129L13.4655 10.778L13.4716 10.7688C13.4916 10.7365 13.5147 10.7004 13.5516 10.7004L13.5862 10.7058C13.6646 10.7166 13.7338 10.7265 13.8037 10.7265C14.3264 10.7265 14.8107 10.4721 15.1028 10.037C15.1098 10.0254 15.1186 10.015 15.129 10.0063C15.1497 9.99089 15.1805 9.99858 15.2043 10.0093ZM10.4029 17.0699L19.8427 13.0442C19.8427 13.0442 19.8565 13.0442 19.8696 13.0573C19.9211 13.1088 19.9649 13.1434 20.0072 13.1756L20.0279 13.1887C20.0472 13.1995 20.0664 13.2118 20.0679 13.2318C20.0679 13.2394 20.0679 13.2441 20.0664 13.251L19.2577 18.2184L19.2546 18.2384C19.2492 18.2768 19.2439 18.3206 19.2077 18.3206C18.9921 18.3352 18.7833 18.4021 18.5994 18.5155C18.4155 18.629 18.262 18.7856 18.1523 18.9717L18.1484 18.9778C18.1377 18.9955 18.1277 19.0124 18.11 19.0217C18.0939 19.0294 18.0731 19.0263 18.0562 19.0224L10.5282 17.4696C10.5206 17.4681 10.4114 17.0707 10.4029 17.0699Z" fill="url(#paint0_radial)"/>
<defs>
<radialGradient id="paint0_radial" cx="0" cy="0" r="1" gradientUnits="userSpaceOnUse" gradientTransform="translate(-0.890847 14.9587) rotate(90) scale(29.4422 33.9922)">
<stop stop-color="#20C6B7"/>
<stop offset="1" stop-color="#4D9ABF"/>
</radialGradient>
</defs>
</svg>
