<svg width="105" height="60" viewBox="0 0 110 68" fill="none" xmlns="http://www.w3.org/2000/svg">
<g clip-path="url(#clip0)">
<path d="M54.5557 67.5004C54.1841 67.5004 53.8372 67.4013 53.5152 67.2279L50.2202 65.2707C49.7247 64.9982 49.9725 64.8991 50.1211 64.8496C50.79 64.6266 50.9139 64.5771 51.6076 64.1807C51.6819 64.1311 51.781 64.1559 51.8553 64.2055L54.3822 65.7167C54.4813 65.7662 54.6052 65.7662 54.6795 65.7167L64.5643 59.9939C64.6634 59.9443 64.713 59.8452 64.713 59.7214V48.3006C64.713 48.1767 64.6634 48.0776 64.5643 48.0281L54.6795 42.33C54.5804 42.2805 54.4566 42.2805 54.3822 42.33L44.4974 48.0281C44.3983 48.0776 44.3488 48.2015 44.3488 48.3006V59.7214C44.3488 59.8205 44.3983 59.9443 44.4974 59.9939L47.1978 61.5546C48.6595 62.2979 49.5761 61.4308 49.5761 60.5637V49.2915C49.5761 49.1429 49.7 48.9942 49.8734 48.9942H51.1369C51.2855 48.9942 51.4341 49.1181 51.4341 49.2915V60.5637C51.4341 62.5208 50.3689 63.6604 48.5108 63.6604C47.941 63.6604 47.4951 63.6604 46.2316 63.0411L43.6303 61.5546C42.9862 61.183 42.5898 60.4894 42.5898 59.7461V48.3253C42.5898 47.5821 42.9862 46.8885 43.6303 46.5168L53.5152 40.7941C54.1345 40.4472 54.9768 40.4472 55.5962 40.7941L65.481 46.5168C66.1251 46.8885 66.5215 47.5821 66.5215 48.3253V59.7461C66.5215 60.4894 66.1251 61.183 65.481 61.5546L55.5962 67.2774C55.2989 67.4013 54.9273 67.5004 54.5557 67.5004Z" fill="#679E63"/>
<path d="M57.6277 59.6467C53.2923 59.6467 52.4004 57.6648 52.4004 55.9802C52.4004 55.8315 52.5243 55.6829 52.6977 55.6829H53.9859C54.1346 55.6829 54.2584 55.782 54.2584 55.9306C54.4566 57.2437 55.0264 57.8878 57.6525 57.8878C59.7335 57.8878 60.6253 57.4171 60.6253 56.3022C60.6253 55.6581 60.3776 55.1874 57.1322 54.8654C54.4319 54.5928 52.7472 53.9983 52.7472 51.8429C52.7472 49.8362 54.4319 48.6471 57.2561 48.6471C60.4272 48.6471 61.9879 49.7371 62.1861 52.1154C62.1861 52.1898 62.1613 52.2641 62.1118 52.3384C62.0622 52.388 61.9879 52.4375 61.9136 52.4375H60.6006C60.4767 52.4375 60.3528 52.3384 60.3281 52.2145C60.0308 50.852 59.2628 50.406 57.2313 50.406C54.9521 50.406 54.6796 51.1988 54.6796 51.7934C54.6796 52.5118 55.0017 52.7348 58.0736 53.1312C61.1208 53.5276 62.5577 54.0974 62.5577 56.2279C62.5577 58.408 60.7492 59.6467 57.6277 59.6467Z" fill="#679E63"/>
<path d="M71.8972 47.6564C71.8972 48.6969 71.0301 49.564 69.9896 49.564C68.9491 49.564 68.082 48.7217 68.082 47.6564C68.082 46.5663 68.9739 45.7488 69.9896 45.7488C71.0054 45.7488 71.8972 46.5911 71.8972 47.6564ZM68.3793 47.6564C68.3793 48.5482 69.0978 49.2667 69.9648 49.2667C70.8567 49.2667 71.5752 48.5235 71.5752 47.6564C71.5752 46.7645 70.8567 46.0708 69.9648 46.0708C69.1225 46.0708 68.3793 46.7645 68.3793 47.6564ZM69.2712 46.5911H70.0144C70.2621 46.5911 70.7576 46.5911 70.7576 47.1609C70.7576 47.5573 70.5099 47.6316 70.3612 47.6811C70.6585 47.7059 70.6833 47.9041 70.7081 48.1766C70.7328 48.35 70.7576 48.6473 70.8072 48.7464H70.3612C70.3612 48.6473 70.2869 48.1023 70.2869 48.0775C70.2621 47.9537 70.2126 47.9041 70.0639 47.9041H69.6923V48.7712H69.2712V46.5911ZM69.6676 47.5325H69.9896C70.2621 47.5325 70.3117 47.3343 70.3117 47.2352C70.3117 46.9379 70.1135 46.9379 69.9896 46.9379H69.6428V47.5325H69.6676Z" fill="#679E63"/>
<path fill-rule="evenodd" clip-rule="evenodd" d="M23.9109 22.8335C23.9109 22.3875 23.6631 21.9664 23.2668 21.7434L12.7874 15.6738C12.614 15.5747 12.4158 15.5251 12.2176 15.5004C12.1928 15.5004 12.1185 15.5004 12.1185 15.5004C11.9203 15.5004 11.7221 15.5747 11.5487 15.6738L1.04451 21.7186C0.64813 21.9416 0.400391 22.3628 0.400391 22.8335L0.425165 39.0852C0.425165 39.3081 0.549034 39.5311 0.747226 39.6302C0.945418 39.7541 1.19316 39.7541 1.36658 39.6302L7.60961 36.0628C8.006 35.8398 8.25374 35.4186 8.25374 34.9727V27.3671C8.25374 26.9212 8.50148 26.5 8.89786 26.277L11.5487 24.7411C11.7469 24.6172 11.9698 24.5676 12.1928 24.5676C12.4158 24.5676 12.6387 24.6172 12.8121 24.7411L15.463 26.277C15.8593 26.5 16.1071 26.9212 16.1071 27.3671V34.9727C16.1071 35.4186 16.3548 35.8398 16.7512 36.0628L22.9447 39.6302C23.1429 39.7541 23.3906 39.7541 23.5888 39.6302C23.787 39.5311 23.9109 39.3081 23.9109 39.0852V22.8335Z" fill="white"/>
<path fill-rule="evenodd" clip-rule="evenodd" d="M74.4001 0.462139C74.2019 0.363043 73.9541 0.363043 73.7807 0.462139C73.5825 0.586009 73.4586 0.784201 73.4586 1.00717V17.1102C73.4586 17.2589 73.3843 17.4075 73.2357 17.5066C73.087 17.5809 72.9384 17.5809 72.7898 17.5066L70.1637 15.9954C69.7673 15.7724 69.2966 15.7724 68.9002 15.9954L58.3961 22.065C57.9997 22.288 57.752 22.7092 57.752 23.1551V35.2696C57.752 35.7155 57.9997 36.1366 58.3961 36.3596L68.9002 42.4292C69.2966 42.6522 69.7673 42.6522 70.1637 42.4292L80.6679 36.3596C81.0643 36.1366 81.312 35.7155 81.312 35.2696V5.0701C81.312 4.59939 81.0643 4.17823 80.6679 3.95527L74.4001 0.462139ZM73.4339 31.2809C73.4339 31.4048 73.3843 31.5039 73.2852 31.5535L69.693 33.6345C69.5939 33.684 69.47 33.684 69.3709 33.6345L65.7787 31.5535C65.6796 31.5039 65.6301 31.38 65.6301 31.2809V27.1189C65.6301 26.9951 65.6796 26.896 65.7787 26.8464L69.3709 24.7654C69.47 24.7158 69.5939 24.7158 69.693 24.7654L73.2852 26.8464C73.3843 26.896 73.4339 27.0198 73.4339 27.1189V31.2809Z" fill="white"/>
<path fill-rule="evenodd" clip-rule="evenodd" d="M109.357 27.0196C109.754 26.7966 109.977 26.3755 109.977 25.9295V22.9814C109.977 22.5355 109.729 22.1144 109.357 21.8914L98.9274 15.8465C98.531 15.6236 98.0603 15.6236 97.6639 15.8465L87.1597 21.9162C86.7634 22.1391 86.5156 22.5603 86.5156 23.0062V35.1207C86.5156 35.5666 86.7634 35.9878 87.1597 36.2107L97.5896 42.1565C97.986 42.3795 98.4567 42.3795 98.8283 42.1565L105.146 38.6386C105.344 38.5395 105.468 38.3165 105.468 38.0936C105.468 37.8706 105.344 37.6476 105.146 37.5485L94.5919 31.4789C94.3937 31.355 94.2699 31.1569 94.2699 30.9339V27.1435C94.2699 26.9205 94.3937 26.6975 94.5919 26.5984L97.8869 24.7156C98.0851 24.5918 98.3328 24.5918 98.531 24.7156L101.826 26.5984C102.024 26.7223 102.148 26.9205 102.148 27.1435V30.1163C102.148 30.3393 102.272 30.5623 102.47 30.6614C102.668 30.7852 102.916 30.7852 103.114 30.6614L109.357 27.0196Z" fill="white"/>
<path fill-rule="evenodd" clip-rule="evenodd" d="M98.1325 26.4494C98.2068 26.3998 98.3059 26.3998 98.3803 26.4494L100.387 27.6138C100.461 27.6633 100.511 27.7376 100.511 27.8367V30.1655C100.511 30.2646 100.461 30.3389 100.387 30.3885L98.3803 31.5528C98.3059 31.6024 98.2068 31.6024 98.1325 31.5528L96.1258 30.3885C96.0515 30.3389 96.002 30.2646 96.002 30.1655V27.8367C96.002 27.7376 96.0515 27.6633 96.1258 27.6138L98.1325 26.4494Z" fill="#679E63"/>
<path d="M41.4767 15.8968C41.0803 15.6739 40.6096 15.6739 40.2132 15.8968L29.7834 21.9169C29.387 22.1399 29.1641 22.561 29.1641 23.007V35.0719C29.1641 35.5178 29.4118 35.939 29.7834 36.1619L40.2132 42.182C40.6096 42.405 41.0803 42.405 41.4767 42.182L51.9066 36.1619C52.3029 35.939 52.5259 35.5178 52.5259 35.0719V23.007C52.5259 22.561 52.2782 22.1399 51.9066 21.9169L41.4767 15.8968Z" fill="url(#paint0_linear)"/>
<path d="M51.931 21.9179L41.4516 15.8978C41.3525 15.8482 41.2287 15.7987 41.1296 15.7739L29.3867 35.8656C29.4858 35.9895 29.6097 36.0886 29.7336 36.1629L40.2129 42.183C40.5102 42.3564 40.8571 42.4059 41.1791 42.3068L52.2035 22.1408C52.1292 22.0417 52.0301 21.9674 51.931 21.9179Z" fill="url(#paint1_linear)"/>
<path d="M39.8654 13.6923L39.7168 13.7666H39.915L39.8654 13.6923Z" fill="url(#paint2_linear)"/>
<path d="M51.9292 36.1616C52.2265 35.9882 52.4494 35.6909 52.5485 35.3689L41.0782 15.7479C40.7809 15.6983 40.4588 15.7231 40.1863 15.8965L29.7812 21.8918L41.0039 42.3551C41.1525 42.3303 41.3259 42.2808 41.4746 42.2065L51.9292 36.1616Z" fill="url(#paint3_linear)"/>
<path d="M52.9239 35.9641L52.8496 35.8402V36.0136L52.9239 35.9641Z" fill="url(#paint4_linear)"/>
<path d="M51.9292 36.163L41.4746 42.1831C41.326 42.2574 41.1773 42.3069 41.0039 42.3317L41.2021 42.7033L52.7963 35.9896V35.8409L52.499 35.3455C52.4743 35.6923 52.2513 35.9896 51.9292 36.163Z" fill="url(#paint5_linear)"/>
<path d="M51.9292 36.163L41.4746 42.1831C41.326 42.2574 41.1773 42.3069 41.0039 42.3317L41.2021 42.7033L52.7963 35.9896V35.8409L52.499 35.3455C52.4743 35.6923 52.2513 35.9896 51.9292 36.163Z" fill="url(#paint6_linear)"/>
</g>
<defs>
<linearGradient id="paint0_linear" x1="45.0927" y1="20.3803" x2="35.6625" y2="39.6179" gradientUnits="userSpaceOnUse">
<stop stop-color="#3F873F"/>
<stop offset="0.3296" stop-color="#3F8B3D"/>
<stop offset="0.6367" stop-color="#3E9638"/>
<stop offset="0.9341" stop-color="#3DA92E"/>
<stop offset="1" stop-color="#3DAE2B"/>
</linearGradient>
<linearGradient id="paint1_linear" x1="39.2596" y1="30.4492" x2="65.72" y2="10.8988" gradientUnits="userSpaceOnUse">
<stop offset="0.1376" stop-color="#3F873F"/>
<stop offset="0.4016" stop-color="#52A044"/>
<stop offset="0.7129" stop-color="#64B749"/>
<stop offset="0.9081" stop-color="#6ABF4B"/>
</linearGradient>
<linearGradient id="paint2_linear" x1="28.7807" y1="13.7213" x2="52.9148" y2="13.7213" gradientUnits="userSpaceOnUse">
<stop offset="0.0919165" stop-color="#6ABF4B"/>
<stop offset="0.2871" stop-color="#64B749"/>
<stop offset="0.5984" stop-color="#52A044"/>
<stop offset="0.8624" stop-color="#3F873F"/>
</linearGradient>
<linearGradient id="paint3_linear" x1="28.7795" y1="29.0353" x2="52.9136" y2="29.0353" gradientUnits="userSpaceOnUse">
<stop offset="0.0919165" stop-color="#6ABF4B"/>
<stop offset="0.2871" stop-color="#64B749"/>
<stop offset="0.5984" stop-color="#52A044"/>
<stop offset="0.8624" stop-color="#3F873F"/>
</linearGradient>
<linearGradient id="paint4_linear" x1="28.7831" y1="35.9257" x2="52.9174" y2="35.9257" gradientUnits="userSpaceOnUse">
<stop offset="0.0919165" stop-color="#6ABF4B"/>
<stop offset="0.2871" stop-color="#64B749"/>
<stop offset="0.5984" stop-color="#52A044"/>
<stop offset="0.8624" stop-color="#3F873F"/>
</linearGradient>
<linearGradient id="paint5_linear" x1="28.7796" y1="39.0404" x2="52.9136" y2="39.0404" gradientUnits="userSpaceOnUse">
<stop offset="0.0919165" stop-color="#6ABF4B"/>
<stop offset="0.2871" stop-color="#64B749"/>
<stop offset="0.5984" stop-color="#52A044"/>
<stop offset="0.8624" stop-color="#3F873F"/>
</linearGradient>
<linearGradient id="paint6_linear" x1="56.4297" y1="19.811" x2="41.5453" y2="50.1751" gradientUnits="userSpaceOnUse">
<stop stop-color="#3F873F"/>
<stop offset="0.3296" stop-color="#3F8B3D"/>
<stop offset="0.6367" stop-color="#3E9638"/>
<stop offset="0.9341" stop-color="#3DA92E"/>
<stop offset="1" stop-color="#3DAE2B"/>
</linearGradient>
<clipPath id="clip0">
<rect width="109.6" height="67.1127" fill="white" transform="translate(0.400391 0.387695)"/>
</clipPath>
</defs>
</svg>
