<svg width="62" height="60" viewBox="0 0 62 60" fill="none" xmlns="http://www.w3.org/2000/svg">
<g clip-path="url(#clip0)">
<path d="M10.8974 0H50.641C56.6667 0 61.5385 4.8718 61.5385 10.8974V49.1026C61.5385 55.1282 56.6667 60 50.641 60H10.8974C4.8718 60 0 55.1282 0 49.1026V10.8974C0 4.8718 4.8718 0 10.8974 0Z" fill="#001E36"/>
<path d="M13.8467 42.0771V15.6925C13.8467 15.513 13.9236 15.4104 14.1031 15.4104C14.539 15.4104 14.9492 15.4104 15.539 15.3848C16.1544 15.3592 16.7954 15.3592 17.4877 15.3335C18.18 15.3079 18.9236 15.3079 19.7185 15.2822C20.5133 15.2566 21.2826 15.2566 22.0518 15.2566C24.1544 15.2566 25.898 15.513 27.3339 16.0515C28.6159 16.4874 29.7954 17.2053 30.7698 18.154C31.5903 18.9745 32.2313 19.9745 32.6416 21.0771C33.0262 22.154 33.2313 23.2566 33.2313 24.4104C33.2313 26.6156 32.7185 28.4361 31.6928 29.872C30.6672 31.3079 29.2313 32.3848 27.5646 33.0002C25.821 33.6412 23.898 33.872 21.7954 33.872C21.18 33.872 20.7698 33.872 20.5133 33.8463C20.2569 33.8207 19.898 33.8207 19.4108 33.8207V42.0515C19.4364 42.2309 19.3082 42.3848 19.1287 42.4104C19.1031 42.4104 19.0774 42.4104 19.0262 42.4104H14.1544C13.9492 42.4104 13.8467 42.3079 13.8467 42.0771ZM19.4364 20.3592V28.9745C19.7954 29.0002 20.1287 29.0258 20.4364 29.0258H21.7954C22.7954 29.0258 23.7954 28.872 24.7441 28.5643C25.5646 28.3335 26.2826 27.8463 26.8467 27.2053C27.3851 26.5643 27.6416 25.6925 27.6416 24.5643C27.6672 23.7694 27.4621 22.9745 27.0518 22.2822C26.6159 21.6156 26.0005 21.1027 25.2569 20.8207C24.3082 20.4361 23.2826 20.2822 22.2313 20.3079C21.5646 20.3079 20.9749 20.3079 20.4877 20.3335C19.9749 20.3079 19.6159 20.3335 19.4364 20.3592Z" fill="#31A8FF"/>
<path d="M49.2314 27.4106C48.4621 27.0003 47.6416 26.7183 46.7698 26.5388C45.8211 26.3337 44.8724 26.2055 43.898 26.2055C43.3852 26.1798 42.8467 26.2567 42.3596 26.385C42.0262 26.4619 41.7442 26.6414 41.5647 26.8978C41.4365 27.1029 41.3596 27.3593 41.3596 27.5901C41.3596 27.8208 41.4621 28.0516 41.616 28.2567C41.8467 28.5388 42.1544 28.7696 42.4878 28.9491C43.0775 29.2567 43.6929 29.5388 44.3083 29.7952C45.6929 30.2567 47.0262 30.8978 48.257 31.667C49.1031 32.2055 49.7955 32.9234 50.2826 33.7952C50.6929 34.6157 50.898 35.5132 50.8724 36.4362C50.898 37.6414 50.539 38.8465 49.8724 39.8465C49.1544 40.8721 48.1544 41.667 47.0006 42.1285C45.7442 42.667 44.2057 42.9491 42.3596 42.9491C41.1801 42.9491 40.0262 42.8465 38.8724 42.6157C37.9749 42.4619 37.0775 42.1798 36.257 41.7952C36.0775 41.6926 35.9493 41.5132 35.9749 41.308V36.8465C35.9749 36.7696 36.0006 36.667 36.0775 36.6157C36.1544 36.5644 36.2314 36.5901 36.3083 36.6414C37.3083 37.2311 38.3596 37.6414 39.4878 37.8978C40.4621 38.1542 41.4878 38.2824 42.5134 38.2824C43.4878 38.2824 44.1801 38.1542 44.6416 37.9234C45.0519 37.7439 45.3339 37.308 45.3339 36.8465C45.3339 36.4875 45.1288 36.1542 44.7185 35.8208C44.3083 35.4875 43.4621 35.1029 42.2057 34.6157C40.898 34.1542 39.6929 33.5388 38.5647 32.7696C37.7698 32.2055 37.1032 31.4619 36.616 30.5901C36.2057 29.7696 36.0006 28.8721 36.0262 27.9747C36.0262 26.8721 36.3339 25.8208 36.898 24.8721C37.539 23.8465 38.4878 23.026 39.5903 22.5132C40.7955 21.8978 42.3083 21.6157 44.1288 21.6157C45.1801 21.6157 46.257 21.6926 47.3083 21.8465C48.0775 21.9491 48.8211 22.1542 49.5134 22.4362C49.616 22.4619 49.7185 22.5644 49.7698 22.667C49.7955 22.7696 49.8211 22.8721 49.8211 22.9747V27.1542C49.8211 27.2567 49.7698 27.3593 49.6929 27.4106C49.4621 27.4619 49.3339 27.4619 49.2314 27.4106Z" fill="#31A8FF"/>
</g>
<defs>
<clipPath id="clip0">
<rect width="61.5385" height="60" fill="white"/>
</clipPath>
</defs>
</svg>
