<svg width="96" height="52" viewBox="0 0 96 52" fill="none" xmlns="http://www.w3.org/2000/svg">
<path d="M2.125 25.7986C2.125 39.2403 22.8402 50.1372 48.3928 50.1372C73.9453 50.1372 94.6607 39.2403 94.6607 25.7986C94.6607 12.357 73.9453 1.45998 48.3928 1.45998C22.8402 1.45998 2.125 12.357 2.125 25.7986Z" fill="url(#paint0_radial)"/>
<path d="M48.394 48.3297C72.9485 48.3297 92.8545 38.2419 92.8545 25.7981C92.8545 13.3544 72.9485 3.26648 48.394 3.26648C23.8396 3.26648 3.93359 13.3544 3.93359 25.7981C3.93359 38.2419 23.8396 48.3297 48.394 48.3297Z" fill="#777BB3"/>
<path d="M27.2623 28.5919C29.2813 28.5919 30.7886 28.2195 31.7423 27.4856C32.6858 26.7591 33.3374 25.5005 33.679 23.7449C33.9974 22.1039 33.8761 20.9581 33.3185 20.3397C32.7484 19.7082 31.5157 19.3879 29.6548 19.3879H26.4282L24.6395 28.5919H27.2623ZM16.7089 39.9296C16.5592 39.9296 16.4169 39.8626 16.3217 39.7468C16.2263 39.6312 16.1876 39.4789 16.2163 39.3318L20.9568 14.941C21.0027 14.7052 21.2094 14.5348 21.4497 14.5348H31.6668C34.8778 14.5348 37.2679 15.4067 38.7701 17.1265C40.2804 18.8554 40.7468 21.272 40.1563 24.3092C39.916 25.5465 39.5026 26.6957 38.9278 27.7245C38.3523 28.7545 37.5917 29.7076 36.6668 30.5577C35.5596 31.5939 34.3065 32.3453 32.9457 32.7874C31.6064 33.2237 29.8864 33.4449 27.8336 33.4449H23.6965L22.515 39.5232C22.4691 39.7592 22.2626 39.9296 22.0223 39.9296H16.7089Z" fill="black"/>
<path d="M26.8441 19.8891H29.6569C31.9028 19.8891 32.683 20.3819 32.9481 20.6756C33.3879 21.1632 33.4709 22.1914 33.1882 23.6488C32.8706 25.2805 32.2819 26.4373 31.4381 27.087C30.5743 27.752 29.1699 28.089 27.2643 28.089H25.2505L26.8441 19.8891ZM31.6689 14.032H21.4516C20.971 14.032 20.5578 14.3727 20.4661 14.8444L15.7255 39.2353C15.6683 39.5296 15.7456 39.834 15.9362 40.0655C16.127 40.2969 16.4111 40.4308 16.711 40.4308H22.0242C22.505 40.4308 22.9182 40.0901 23.0099 39.6183L24.1124 33.9461H27.8357C29.9412 33.9461 31.7137 33.7165 33.1035 33.2639C34.5328 32.7995 35.8478 32.0121 37.0117 30.9237C37.9743 30.0381 38.7672 29.0441 39.368 27.9689C39.9689 26.8933 40.4006 25.694 40.6512 24.4041C41.2729 21.2071 40.7678 18.647 39.1502 16.7955C37.5484 14.9617 35.0312 14.032 31.6689 14.032ZM24.0324 29.0931H27.2643C29.4065 29.0931 31.0022 28.6896 32.0506 27.8825C33.0992 27.0752 33.8064 25.7279 34.1739 23.8399C34.5255 22.0273 34.3653 20.7481 33.6934 20.0029C33.0207 19.2577 31.6754 18.885 29.6569 18.885H26.0164L24.0324 29.0931ZM31.6689 15.036C34.7425 15.036 36.9848 15.8427 38.3942 17.456C39.8034 19.0694 40.2278 21.3214 39.6655 24.2126C39.4341 25.4036 39.0426 26.4925 38.4916 27.4791C37.9398 28.4662 37.2194 29.3689 36.3291 30.1874C35.2682 31.1802 34.0895 31.8878 32.7926 32.3092C31.4957 32.7317 29.8438 32.9421 27.8357 32.9421H23.2845L22.0242 39.4267H16.711L21.4516 15.036H31.6689Z" fill="white"/>
<path d="M52.3413 33.4446C52.1914 33.4446 52.0493 33.3776 51.9541 33.2618C51.8585 33.1462 51.8199 32.9941 51.8485 32.8468L53.9455 22.0549C54.145 21.0285 54.0958 20.2919 53.8071 19.9806C53.6304 19.7903 53.0996 19.4712 51.53 19.4712H47.731L45.0944 33.0383C45.0486 33.2742 44.8419 33.4446 44.6016 33.4446H39.3302C39.1803 33.4446 39.0382 33.3776 38.9428 33.2618C38.8474 33.1462 38.8087 32.9939 38.8374 32.8468L43.5779 8.45599C43.6238 8.2202 43.8305 8.04984 44.0708 8.04984H49.3422C49.4921 8.04984 49.6342 8.11678 49.7296 8.23242C49.825 8.34822 49.8636 8.50034 49.835 8.64761L48.691 14.5345H52.7779C55.8914 14.5345 58.0026 15.0834 59.2323 16.2126C60.4857 17.3647 60.8768 19.2066 60.3949 21.688L58.1892 33.0383C58.1434 33.2742 57.9369 33.4446 57.6964 33.4446H52.3413Z" fill="black"/>
<path d="M49.3423 7.54784H44.0709C43.5901 7.54784 43.1769 7.88856 43.0852 8.36031L38.3446 32.7511C38.2874 33.0455 38.3647 33.3499 38.5555 33.5813C38.7463 33.8128 39.0304 33.9467 39.3303 33.9467H44.6017C45.0823 33.9467 45.4957 33.6059 45.5874 33.1342L48.1449 19.9733H51.5302C53.097 19.9733 53.4258 20.308 53.4391 20.3224C53.5341 20.4246 53.6591 20.8982 53.4528 21.9592L51.3558 32.7511C51.2985 33.0455 51.3759 33.3499 51.5666 33.5813C51.7574 33.8128 52.0416 33.9467 52.3414 33.9467H57.6965C58.1771 33.9467 58.5905 33.6059 58.6822 33.1342L60.8876 21.784C61.4052 19.1196 60.9624 17.121 59.5721 15.8432C58.2454 14.6247 56.0231 14.0325 52.7781 14.0325H49.2999L50.3279 8.74353C50.385 8.44917 50.3079 8.1446 50.1171 7.91333C49.9263 7.68189 49.6422 7.54784 49.3423 7.54784ZM49.3423 8.55192L48.082 15.0366H52.7781C55.7329 15.0366 57.771 15.5523 58.8927 16.5825C60.0144 17.6134 60.3505 19.2836 59.9021 21.5925L57.6965 32.9426H52.3414L54.4385 22.1508C54.6771 20.9231 54.5894 20.0857 54.1751 19.6393C53.7605 19.1928 52.8788 18.9692 51.5302 18.9692H47.3171L44.6017 32.9426H39.3303L44.0709 8.55192H49.3423Z" fill="white"/>
<path d="M68.7349 28.5919C70.7539 28.5919 72.2612 28.2195 73.2149 27.4856C74.1584 26.7593 74.8101 25.5007 75.1518 23.7449C75.4702 22.1039 75.3489 20.9581 74.7911 20.3397C74.221 19.7082 72.9883 19.3879 71.1274 19.3879H67.9008L66.1121 28.5919H68.7349ZM58.1817 39.9296C58.032 39.9296 57.8897 39.8626 57.7945 39.7468C57.6991 39.6312 57.6603 39.4789 57.6889 39.3318L62.4295 14.941C62.4755 14.7052 62.682 14.5348 62.9225 14.5348H73.1394C76.3506 14.5348 78.7405 15.4067 80.2429 17.1265C81.7532 18.8552 82.2195 21.2718 81.6291 24.3092C81.3884 25.5465 80.9752 26.6957 80.4004 27.7245C79.8249 28.7545 79.0643 29.7076 78.1394 30.5577C77.0322 31.5939 75.7792 32.3453 74.4183 32.7874C73.079 33.2237 71.3591 33.4449 69.3062 33.4449H65.1689L63.988 39.5232C63.9419 39.7592 63.7354 39.9296 63.495 39.9296H58.1817Z" fill="black"/>
<path d="M68.3127 19.8892H71.1255C73.3714 19.8892 74.1516 20.382 74.4166 20.6757C74.8566 21.1634 74.9396 22.1915 74.6568 23.6488C74.3392 25.2806 73.7503 26.4374 72.9067 27.0871C72.0428 27.7521 70.6385 28.0891 68.7329 28.0891H66.7192L68.3127 19.8892ZM73.1375 14.0321H62.9203C62.4397 14.0321 62.0265 14.3728 61.9348 14.8446L57.1942 39.2354C57.137 39.5298 57.2143 39.8342 57.4049 40.0656C57.5957 40.297 57.8799 40.4309 58.1798 40.4309H63.493C63.9736 40.4309 64.3869 40.0902 64.4786 39.6184L65.581 33.9463H69.3042C71.4098 33.9463 73.1823 33.7167 74.5721 33.264C76.0014 32.7996 77.3168 32.0121 78.4806 30.9235C79.4432 30.0381 80.2358 29.0442 80.8365 27.969C81.4375 26.8935 81.8692 25.6941 82.1197 24.4042C82.7414 21.2071 82.2364 18.647 80.6188 16.7955C79.017 14.9619 76.4999 14.0321 73.1375 14.0321ZM65.5011 29.0932H68.7329C70.8751 29.0932 72.4708 28.6898 73.5192 27.8826C74.5679 27.0754 75.275 25.7281 75.6425 23.8401C75.9942 22.0274 75.8341 20.7482 75.162 20.003C74.4893 19.2578 73.144 18.8851 71.1255 18.8851H67.485L65.5011 29.0932ZM73.1375 15.0362C76.2111 15.0362 78.4534 15.8428 79.8628 17.4562C81.2721 19.0695 81.6964 21.3215 81.1341 24.2127C80.9026 25.4037 80.5112 26.4927 79.9601 27.4792C79.4084 28.4663 78.688 29.369 77.7977 30.1875C76.7367 31.1804 75.5581 31.8879 74.2612 32.3093C72.9643 32.7318 71.3124 32.9422 69.3042 32.9422H64.7531L63.493 39.4268H58.1798L62.9203 15.0362H73.1375Z" fill="white"/>
<defs>
<radialGradient id="paint0_radial" cx="0" cy="0" r="1" gradientUnits="userSpaceOnUse" gradientTransform="translate(29.9044 10.0167) scale(60.7562)">
<stop stop-color="#AEB2D5"/>
<stop offset="0.3" stop-color="#AEB2D5"/>
<stop offset="0.75" stop-color="#484C89"/>
<stop offset="1" stop-color="#484C89"/>
</radialGradient>
</defs>
</svg>
