<svg width="65" height="60" viewBox="0 0 69 72" fill="none" xmlns="http://www.w3.org/2000/svg">
<g clip-path="url(#clip0)">
<path d="M51.6598 51.9822C52.111 48.2229 51.9758 47.6716 54.7759 48.2805L55.4868 48.343C57.6398 48.4409 60.4563 47.9967 62.111 47.228C65.6729 45.5753 67.785 42.8158 64.2728 43.5409C56.2612 45.1936 55.7104 42.4808 55.7104 42.4808C64.1702 29.9287 67.7066 13.9949 64.6541 10.0947C56.3283 -0.543809 41.9165 4.48689 41.6753 4.6175L41.5985 4.63168C40.0156 4.30323 38.244 4.10699 36.2539 4.07482C32.6284 4.01525 29.8774 5.02527 27.7906 6.60809C27.7906 6.60809 2.08073 -3.98405 3.2768 19.9288C3.53118 25.0157 10.5684 58.4208 18.9616 48.3309C22.0293 44.6414 24.9939 41.5218 24.9939 41.5218C26.466 42.4998 28.2285 42.9987 30.077 42.8195L30.2199 42.6976C30.1751 43.1557 30.1949 43.6038 30.277 44.1342C28.1152 46.5501 28.7505 46.9742 24.4276 47.864C20.0541 48.7654 22.6236 50.3702 24.3007 50.7896C26.3344 51.2982 31.0392 52.0186 34.219 47.5682L34.0924 48.076C34.9406 48.7546 34.8833 52.9532 35.0035 55.953C35.1239 58.953 35.3248 61.7524 35.9363 63.4029C36.5478 65.0531 37.2693 69.3044 42.9506 68.0868C47.6987 67.0693 51.3289 65.6049 51.6598 51.982" fill="black"/>
<path d="M51.6598 51.9822C52.111 48.2229 51.9758 47.6716 54.7759 48.2805L55.4868 48.343C57.6398 48.4409 60.4563 47.9967 62.111 47.228C65.6729 45.5753 67.785 42.8158 64.2728 43.5409C56.2612 45.1936 55.7104 42.4808 55.7104 42.4808C64.1702 29.9287 67.7066 13.9949 64.6541 10.0947C56.3283 -0.54381 41.9165 4.48689 41.6753 4.6175L41.5985 4.63168C40.0156 4.30323 38.244 4.10699 36.2539 4.07482C32.6284 4.01525 29.8774 5.02527 27.7906 6.60809C27.7906 6.60809 2.08073 -3.98405 3.2768 19.9288C3.53118 25.0157 10.5684 58.4208 18.9616 48.3309C22.0293 44.6414 24.9939 41.5218 24.9939 41.5218C26.466 42.4998 28.2285 42.9987 30.077 42.8195L30.2199 42.6976C30.1751 43.1557 30.1949 43.6038 30.277 44.1342C28.1152 46.5501 28.7505 46.9742 24.4276 47.864C20.0541 48.7654 22.6236 50.3702 24.3007 50.7896C26.3344 51.2982 31.0392 52.0186 34.219 47.5682L34.0924 48.076C34.9406 48.7546 34.8833 52.9532 35.0035 55.953C35.1239 58.953 35.3248 61.7524 35.9363 63.4029C36.5478 65.0531 37.2693 69.3044 42.9506 68.0868C47.6987 67.0693 51.3289 65.6049 51.6598 51.982" stroke="black" stroke-width="5.95651"/>
<path d="M64.2743 43.5408C56.262 45.1935 55.7112 42.4807 55.7112 42.4807C64.171 29.9278 67.7074 13.9937 64.6555 10.094C56.3297 -0.5439 41.9173 4.48712 41.6767 4.61773L41.5993 4.63159C40.0163 4.30298 38.2448 4.10722 36.2537 4.07473C32.6282 4.01532 29.8782 5.02518 27.7914 6.60768C27.7914 6.60768 2.08103 -3.98398 3.27678 19.9287C3.53116 25.0159 10.5682 58.421 18.9617 48.3311C22.0296 44.6416 24.9937 41.522 24.9937 41.522C26.466 42.5 28.2285 42.9989 30.0762 42.8197L30.2197 42.6978C30.1751 43.1559 30.1955 43.604 30.2772 44.1344C28.1149 46.5503 28.7503 46.9745 24.4278 47.8642C20.054 48.7656 22.6234 50.3704 24.301 50.7898C26.3347 51.2984 31.0398 52.0189 34.219 47.5685L34.0922 48.0763C34.9395 48.7548 35.5344 52.4902 35.4347 55.8763C35.335 59.2625 35.2684 61.5873 35.9359 63.4031C36.6035 65.219 37.2688 69.3046 42.9512 68.0871C47.6993 67.0696 50.1598 64.4328 50.5021 60.0344C50.745 56.9075 51.2947 57.3697 51.3294 54.5741L51.7703 53.2506C52.2787 49.0119 51.8511 47.6444 54.7763 48.2805L55.4872 48.3429C57.6403 48.4409 60.4582 47.9966 62.112 47.2279C65.6733 45.5752 67.7855 42.8157 64.274 43.5408H64.2743Z" fill="#336791"/>
<path d="M34.5598 45.9712C34.3392 53.8583 34.6153 61.8005 35.387 63.7307C36.1592 65.6609 37.8118 69.4152 43.4946 68.1978C48.2423 67.18 49.9697 65.2103 50.7193 60.8626C51.2714 57.6638 52.3357 48.7802 52.4722 46.96" stroke="white" stroke-width="1.9855" stroke-linecap="round" stroke-linejoin="round"/>
<path d="M27.75 6.43166C27.75 6.43166 2.02211 -4.0837 3.21818 19.829C3.47256 24.9162 10.5101 58.3224 18.9035 48.232C21.9706 44.542 24.7446 41.648 24.7446 41.648" stroke="white" stroke-width="1.9855" stroke-linecap="round" stroke-linejoin="round"/>
<path d="M41.6449 4.51262C40.7543 4.79185 55.9563 -1.04467 64.5958 9.99474C67.6475 13.8947 64.1111 29.8287 55.6514 42.382" stroke="white" stroke-width="1.9855" stroke-linecap="round" stroke-linejoin="round"/>
<path d="M55.6525 42.3815C55.6525 42.3815 56.2038 45.095 64.2163 43.4412C67.727 42.7161 65.6142 45.4759 62.0537 47.1294C59.1316 48.4856 52.5804 48.8331 52.4734 46.9591C52.198 42.1241 55.9214 43.593 55.6527 42.3815C55.4098 41.2904 53.7446 40.2195 52.6432 37.5491C51.6816 35.2183 39.455 17.3439 56.0339 19.9986C56.6412 19.8729 51.7099 4.22903 36.1944 3.97466C20.6825 3.72028 21.1914 23.0509 21.1914 23.0509" stroke="white" stroke-width="1.9855" stroke-linecap="round" stroke-linejoin="bevel"/>
<path d="M30.2208 44.0353C28.0582 46.451 28.6942 46.8752 24.3714 47.7652C19.9975 48.6668 22.5673 50.2713 24.2444 50.6905C26.2782 51.1994 30.9833 51.9199 34.1624 47.4683C35.1306 46.113 34.1567 43.9504 32.8268 43.3991C32.1843 43.1329 31.3251 42.7994 30.2208 44.0353V44.0353Z" stroke="white" stroke-width="1.9855" stroke-linecap="round" stroke-linejoin="round"/>
<path d="M30.0775 43.993C29.8596 42.5727 30.5442 40.8825 31.2779 38.9051C32.3804 35.9383 34.9244 32.971 32.8893 23.5598C31.3725 16.5466 21.1985 22.1002 21.1921 23.0512C21.1859 24.0018 21.6523 27.8711 21.0221 32.377C20.1999 38.2567 24.7634 43.2294 30.0184 42.7206" stroke="white" stroke-width="1.9855" stroke-linecap="round" stroke-linejoin="round"/>
<path d="M27.6566 22.9094C27.6107 23.2342 28.2512 24.1008 29.0864 24.2166C29.9201 24.3329 30.6337 23.6556 30.6789 23.3312C30.7241 23.0064 30.0844 22.6486 29.249 22.5324C28.4148 22.4159 27.7009 22.5854 27.6568 22.9094H27.6566Z" fill="white" stroke="white" stroke-width="0.661829"/>
<path d="M53.0509 22.2472C53.0962 22.572 52.4565 23.4387 51.6212 23.5545C50.7869 23.6707 50.0733 22.9935 50.0275 22.669C49.9834 22.3442 50.6233 21.9865 51.4578 21.8702C52.2923 21.7539 53.0057 21.9232 53.0509 22.2474V22.2472Z" fill="white" stroke="white" stroke-width="0.330915"/>
<path d="M56.0346 19.9993C56.172 22.5469 55.4858 24.2821 55.3993 26.9941C55.2713 30.9361 57.2787 35.448 54.2539 39.9655" stroke="white" stroke-width="1.9855" stroke-linecap="round" stroke-linejoin="round"/>
</g>
<defs>
<clipPath id="clip0">
<rect width="68.8224" height="70.9428" fill="white" transform="translate(0.177734 0.336914)"/>
</clipPath>
</defs>
</svg>
