<svg width="125" height="32" viewBox="0 0 125 32" fill="none" xmlns="http://www.w3.org/2000/svg">
<path d="M47.2469 16.4154C47.2469 12.5874 46.1554 10.6222 43.9724 10.5146C43.1038 10.4736 42.2557 10.612 41.4307 10.9323C40.7722 11.168 40.3289 11.4011 40.0958 11.6369V20.7737C41.4922 21.65 42.7323 22.0574 43.8136 21.9934C46.1016 21.8422 47.2469 19.9846 47.2469 16.4154ZM49.9398 16.5743C49.9398 18.519 49.4838 20.1332 48.5665 21.4169C47.5442 22.8696 46.1272 23.6178 44.3158 23.6588C42.9501 23.7024 41.5434 23.2745 40.0958 22.3777V30.6818L37.7539 29.8466V11.4139C38.1382 10.9425 38.6327 10.5377 39.2323 10.1943C40.6262 9.38211 42.3198 8.96447 44.3132 8.94397L44.3465 8.97728C46.1682 8.95422 47.5723 9.70239 48.5588 11.2192C49.4786 12.6105 49.9398 14.3938 49.9398 16.5743Z" fill="white"/>
<path d="M64.2533 22.0241C64.2533 24.6324 63.9919 26.4388 63.4692 27.4432C62.944 28.4476 61.9447 29.2496 60.4689 29.8466C59.2723 30.318 57.9784 30.5742 56.5897 30.6178L56.2028 29.142C57.6146 28.9498 58.6087 28.7576 59.1852 28.5655C60.3203 28.1811 61.0992 27.5918 61.5271 26.8026C61.8704 26.1595 62.0395 24.9322 62.0395 23.1156V22.5058C60.4381 23.2335 58.7599 23.5947 57.0047 23.5947C55.8517 23.5947 54.8345 23.2335 53.9583 22.5058C52.9744 21.7141 52.4824 20.7097 52.4824 19.4926V9.74595L54.8243 8.94397V18.7547C54.8243 19.8027 55.1625 20.6098 55.8389 21.176C56.5154 21.7423 57.3916 22.0139 58.4652 21.9934C59.5388 21.9703 60.6892 21.5552 61.9114 20.743V9.29756H64.2533V22.0241Z" fill="white"/>
<path d="M73.393 23.5309C73.1137 23.5539 72.8575 23.5642 72.6218 23.5642C71.2971 23.5642 70.2645 23.249 69.5266 22.6161C68.7913 21.9833 68.4223 21.1096 68.4223 19.995V10.771H66.8184V9.29772H68.4223V5.38521L70.7616 4.55249V9.29772H73.393V10.771H70.7616V19.9309C70.7616 20.8098 70.9973 21.4324 71.4688 21.7962C71.8736 22.096 72.5167 22.2677 73.393 22.3112V23.5309Z" fill="white"/>
<path d="M87.5735 23.3383H85.2316V14.2988C85.2316 13.3789 85.0164 12.5872 84.5885 11.9262C84.094 11.178 83.4073 10.8039 82.5259 10.8039C81.4524 10.8039 80.1098 11.3702 78.4981 12.5027V23.3383H76.1562V1.73108L78.4981 0.993164V10.8347C79.9945 9.74571 81.6292 9.19996 83.4048 9.19996C84.6449 9.19996 85.6493 9.6176 86.4179 10.4503C87.1892 11.283 87.5735 12.3207 87.5735 13.5609V23.3383Z" fill="white"/>
<path d="M100.022 16.0464C100.022 14.5757 99.7423 13.3612 99.1863 12.4004C98.5252 11.2295 97.4978 10.612 96.1091 10.5479C93.5417 10.6965 92.2606 12.5362 92.2606 16.0618C92.2606 17.6786 92.5271 19.0289 93.0651 20.1127C93.7518 21.4937 94.7818 22.1753 96.1552 22.1522C98.7328 22.1317 100.022 20.0973 100.022 16.0464ZM102.586 16.0618C102.586 18.1552 102.051 19.8975 100.982 21.2887C99.8063 22.8466 98.1819 23.6281 96.1091 23.6281C94.0542 23.6281 92.4528 22.8466 91.2972 21.2887C90.2493 19.8975 89.7266 18.1552 89.7266 16.0618C89.7266 14.094 90.2928 12.4388 91.4253 11.0911C92.6219 9.66139 94.1951 8.94397 96.1398 8.94397C98.0845 8.94397 99.668 9.66139 100.888 11.0911C102.02 12.4388 102.586 14.094 102.586 16.0618Z" fill="white"/>
<path d="M116.012 23.3385H113.67V13.7866C113.67 12.7386 113.355 11.9213 112.725 11.332C112.094 10.7452 111.254 10.4608 110.206 10.4839C109.094 10.5044 108.036 10.8682 107.031 11.5728V23.3385H104.689V11.2833C106.037 10.3019 107.277 9.66139 108.41 9.36161C109.478 9.08233 110.421 8.94397 111.233 8.94397C111.789 8.94397 112.312 8.99778 112.804 9.10539C113.724 9.31805 114.472 9.71263 115.049 10.2917C115.692 10.9323 116.012 11.7009 116.012 12.6003V23.3385Z" fill="white"/>
<path d="M14.624 1.81787C13.4191 1.82347 12.2685 1.92623 11.256 2.10538C8.27341 2.63231 7.73189 3.73521 7.73189 5.76914V8.45534H14.7801V9.35074H7.73189H5.08675C3.03835 9.35074 1.24471 10.582 0.683677 12.9241C0.0365376 15.6088 0.00783345 17.2841 0.683677 20.0874C1.18469 22.174 2.38117 23.6607 4.42958 23.6607H6.85291V20.4406C6.85291 18.1142 8.86575 16.0622 11.256 16.0622H18.296C20.2557 16.0622 21.8201 14.4486 21.8201 12.4805V5.76914C21.8201 3.85903 20.2087 2.42417 18.296 2.10538C17.0852 1.90383 15.8289 1.81227 14.624 1.81787ZM10.8124 3.97833C11.5404 3.97833 12.135 4.58258 12.135 5.32554C12.135 6.06587 11.5404 6.66454 10.8124 6.66454C10.0818 6.66454 9.48983 6.06587 9.48983 5.32554C9.48983 4.58258 10.0818 3.97833 10.8124 3.97833Z" fill="url(#paint0_linear)"/>
<path d="M22.6976 9.35144V12.4812C22.6976 14.9077 20.6405 16.95 18.2946 16.95H11.2546C9.3262 16.95 7.73047 18.6005 7.73047 20.5316V27.243C7.73047 29.1532 9.39144 30.2767 11.2546 30.8247C13.4856 31.4807 15.6251 31.5992 18.2946 30.8247C20.069 30.3109 21.8187 29.277 21.8187 27.243V24.5568H14.7787V23.6614H21.8187H25.3428C27.3912 23.6614 28.1545 22.2326 28.8669 20.088C29.6027 17.8802 29.5714 15.7571 28.8669 12.9248C28.3606 10.8856 27.3938 9.35144 25.3428 9.35144H22.6976ZM18.7382 26.3476C19.4688 26.3476 20.0607 26.9463 20.0607 27.6866C20.0607 28.4296 19.4688 29.0339 18.7382 29.0339C18.0101 29.0339 17.4156 28.4296 17.4156 27.6866C17.4156 26.9463 18.0101 26.3476 18.7382 26.3476Z" fill="url(#paint1_linear)"/>
<path d="M120.572 7.20923H120.983V4.63409H121.956V4.32715H119.6V4.63409H120.572V7.20923ZM122.32 7.20923H122.67V4.85732L123.432 7.20894H123.822L124.616 4.8653V7.20923H124.998V4.32715H124.492L123.625 6.79625L122.886 4.32715H122.32V7.20923Z" fill="white"/>
<defs>
<linearGradient id="paint0_linear" x1="0.1875" y1="1.81763" x2="16.4399" y2="15.6669" gradientUnits="userSpaceOnUse">
<stop stop-color="#5A9FD4"/>
<stop offset="1" stop-color="#306998"/>
</linearGradient>
<linearGradient id="paint1_linear" x1="18.5688" y1="27.4608" x2="12.738" y2="19.2902" gradientUnits="userSpaceOnUse">
<stop stop-color="#FFD43B"/>
<stop offset="1" stop-color="#FFE873"/>
</linearGradient>
</defs>
</svg>
