<svg width="68" height="60" viewBox="0 0 68 60" fill="none" xmlns="http://www.w3.org/2000/svg">
<path d="M67.3747 30.0069C67.3747 25.5436 61.7853 21.3138 53.2158 18.6908C55.1934 9.95651 54.3145 3.00755 50.4417 0.782787C49.5491 0.260929 48.5054 0.0137329 47.3655 0.0137329V3.07622C47.9972 3.07622 48.5054 3.19982 48.9311 3.43328C50.7988 4.50446 51.6091 8.5832 50.9773 13.8293C50.8263 15.1202 50.5791 16.4797 50.2769 17.8668C47.5852 17.2076 44.6464 16.6995 41.5564 16.3699C39.7024 13.8293 37.7798 11.5221 35.8434 9.50332C40.3204 5.34218 44.5228 3.06249 47.3793 3.06249V0C43.6026 0 38.6587 2.69169 33.6599 7.36095C28.661 2.71916 23.7171 0.0549327 19.9405 0.0549327V3.11742C22.7832 3.11742 26.9993 5.38338 31.4763 9.51705C29.5537 11.5358 27.631 13.8293 25.8045 16.3699C22.7008 16.6995 19.762 17.2076 17.0703 17.8805C16.7544 16.5072 16.5209 15.1751 16.3561 13.8979C15.7107 8.65186 16.5072 4.57313 18.3612 3.48821C18.7732 3.24102 19.3088 3.13115 19.9405 3.13115V0.0686656C18.7869 0.0686656 17.7432 0.315862 16.8368 0.83772C12.9778 3.06249 12.1126 9.99771 14.1039 18.7045C5.56191 21.3413 0 25.5573 0 30.0069C0 34.4701 5.58938 38.6999 14.1588 41.323C12.1813 50.0572 13.0602 57.0062 16.9329 59.2309C17.8256 59.7528 18.8693 60 20.0229 60C23.7995 60 28.7434 57.3083 33.7423 52.639C38.7411 57.2808 43.685 59.9451 47.4617 59.9451C48.6152 59.9451 49.659 59.6979 50.5653 59.176C54.4243 56.9512 55.2895 50.016 53.2982 41.3092C61.8128 38.6862 67.3747 34.4564 67.3747 30.0069ZM49.4941 20.8469C48.986 22.6184 48.3543 24.445 47.6402 26.2715C47.0771 25.1728 46.4866 24.0742 45.8411 22.9755C45.2094 21.8769 44.5365 20.8057 43.8636 19.762C45.8137 20.0504 47.6951 20.4074 49.4941 20.8469ZM43.2044 35.4726C42.1332 37.3266 41.0346 39.0845 39.8947 40.7187C37.8485 40.8972 35.7748 40.9934 33.6873 40.9934C31.6136 40.9934 29.5399 40.8972 27.5074 40.7324C26.3676 39.0982 25.2552 37.3541 24.184 35.5138C23.1403 33.7148 22.1927 31.8883 21.3275 30.0481C22.179 28.2078 23.1403 26.3676 24.1703 24.5685C25.2415 22.7146 26.3401 20.9567 27.48 19.3225C29.5262 19.144 31.5999 19.0478 33.6873 19.0478C35.761 19.0478 37.8347 19.144 39.8672 19.3088C41.0071 20.943 42.1195 22.6871 43.1907 24.5274C44.2344 26.3264 45.182 28.1529 46.0471 29.9931C45.182 31.8334 44.2344 33.6736 43.2044 35.4726ZM47.6402 33.6873C48.3818 35.5276 49.0135 37.3678 49.5354 39.1531C47.7363 39.5926 45.8411 39.9634 43.8773 40.2518C44.5502 39.1943 45.2232 38.1094 45.8549 36.997C46.4866 35.8984 47.0771 34.786 47.6402 33.6873ZM33.7148 48.3406C32.4376 47.0222 31.1604 45.5528 29.897 43.946C31.133 44.0009 32.3964 44.0421 33.6736 44.0421C34.9645 44.0421 36.2417 44.0146 37.4914 43.946C36.2554 45.5528 34.9783 47.0222 33.7148 48.3406ZM23.4974 40.2518C21.5473 39.9634 19.6658 39.6063 17.8668 39.1669C18.3749 37.3953 19.0066 35.5688 19.7208 33.7423C20.2838 34.8409 20.8743 35.9396 21.5198 37.0382C22.1653 38.1369 22.8244 39.2081 23.4974 40.2518ZM33.6461 11.6732C34.9233 12.9915 36.2005 14.461 37.4639 16.0677C36.228 16.0128 34.9645 15.9716 33.6873 15.9716C32.3964 15.9716 31.1192 15.9991 29.8695 16.0677C31.1055 14.461 32.3827 12.9915 33.6461 11.6732ZM23.4836 19.762C22.8107 20.8194 22.1378 21.9043 21.5061 23.0167C20.8743 24.1154 20.2838 25.214 19.7208 26.3127C18.9792 24.4724 18.3474 22.6322 17.8256 20.8469C19.6246 20.4211 21.5198 20.0504 23.4836 19.762ZM11.0552 36.9558C6.19364 34.8821 3.04875 32.163 3.04875 30.0069C3.04875 27.8508 6.19364 25.1179 11.0552 23.0579C12.2362 22.5498 13.5271 22.0966 14.8592 21.6709C15.642 24.3626 16.672 27.1641 17.9492 30.0343C16.6857 32.8908 15.6695 35.6786 14.9004 38.3566C13.5409 37.9309 12.2499 37.4639 11.0552 36.9558ZM18.4436 56.5804C16.5759 55.5093 15.7656 51.4305 16.3973 46.1845C16.5484 44.8936 16.7956 43.534 17.0977 42.1469C19.7894 42.8061 22.7283 43.3143 25.8183 43.6438C27.6722 46.1845 29.5949 48.4916 31.5312 50.5104C27.0542 54.6715 22.8519 56.9512 19.9954 56.9512C19.3774 56.9375 18.8556 56.8139 18.4436 56.5804ZM51.0185 46.1158C51.664 51.3619 50.8675 55.4406 49.0135 56.5255C48.6015 56.7727 48.0659 56.8826 47.4342 56.8826C44.5914 56.8826 40.3754 54.6166 35.8984 50.4829C37.821 48.4642 39.7436 46.1707 41.5701 43.6301C44.6738 43.3005 47.6127 42.7924 50.3044 42.1195C50.6203 43.5065 50.8675 44.8386 51.0185 46.1158ZM56.3058 36.9558C55.1247 37.4639 53.8338 37.9171 52.5017 38.3429C51.7189 35.6512 50.6889 32.8496 49.4118 29.9794C50.6752 27.1229 51.6915 24.3351 52.4605 21.6571C53.8201 22.0829 55.111 22.5498 56.3195 23.0579C61.181 25.1316 64.3259 27.8508 64.3259 30.0069C64.3122 32.163 61.1673 34.8959 56.3058 36.9558Z" fill="#61DAFB"/>
<path d="M33.6725 36.2834C37.1387 36.2834 39.9486 33.4736 39.9486 30.0074C39.9486 26.5412 37.1387 23.7314 33.6725 23.7314C30.2064 23.7314 27.3965 26.5412 27.3965 30.0074C27.3965 33.4736 30.2064 36.2834 33.6725 36.2834Z" fill="#61DAFB"/>
</svg>
