<svg width="125" height="42" viewBox="0 0 125 42" fill="none" xmlns="http://www.w3.org/2000/svg">
<path d="M68.2861 13.7515C68.2861 14.7193 67.4911 15.583 66.4543 15.583C65.6593 15.583 64.9683 15.7905 64.3808 16.2398C63.7243 16.6548 63.2058 17.242 62.7913 17.8985C61.9618 19.0045 61.5476 20.3175 61.3746 20.801V27.367C61.3746 28.3693 60.5108 29.1988 59.4741 29.1988C58.4718 29.1988 57.6426 28.3693 57.6426 27.367V13.7515C57.6426 12.7492 58.4718 11.9545 59.4741 11.9545C60.5108 11.9545 61.3746 12.7495 61.3746 13.7515V13.9935C61.5818 13.7515 61.8583 13.4753 62.1003 13.3022C63.2408 12.5423 64.7266 11.92 66.4543 11.9545C67.4911 11.9545 68.2861 12.7495 68.2861 13.7515Z" fill="white"/>
<path d="M67.2725 20.5592C67.3072 15.8594 70.9702 11.9199 75.7042 11.9199C80.1967 11.9199 83.756 15.2719 84.0327 19.9369V20.1097C84.0327 20.1789 84.0327 20.3514 83.9982 20.4207C83.8942 21.2502 83.1687 21.8032 82.201 21.8032H71.212C71.3847 22.5982 71.7647 23.4964 72.387 24.0839C73.1127 24.9134 74.495 25.5349 75.7042 25.6387C76.9482 25.7422 78.4342 25.4314 79.2982 24.7749C80.0237 24.0144 81.4407 24.1184 81.89 24.6709C82.3392 25.1552 82.6847 26.1919 81.89 26.9172C80.1965 28.4719 78.1577 29.1979 75.7039 29.1979C70.9702 29.1639 67.3072 25.2589 67.2725 20.5592ZM71.0392 18.8659H80.8187C80.4732 17.4837 78.7107 15.4449 75.7042 15.2029C72.7672 15.3409 71.3157 17.4492 71.0392 18.8659Z" fill="white"/>
<path d="M101.638 27.3328C101.638 28.3351 100.808 29.1991 99.7713 29.1991C98.8383 29.1991 98.1128 28.5426 97.9398 27.7131C96.6268 28.6113 94.968 29.1991 93.24 29.1991C88.575 29.1991 84.8428 25.2596 84.8428 20.5943C84.8428 15.8598 88.575 11.9203 93.24 11.9203C94.9335 11.9203 96.592 12.473 97.8705 13.3715V6.87505C97.8705 5.8728 98.7 5.00879 99.771 5.00879C100.808 5.00879 101.637 5.8728 101.637 6.87505V20.5596V20.5943V27.3328H101.638ZM93.2403 15.6871C91.9963 15.6871 90.8558 16.2053 89.9923 17.1038C89.1283 17.9678 88.6098 19.2115 88.6098 20.5941C88.6098 21.907 89.128 23.1511 89.9923 24.0151C90.8558 24.9138 91.9963 25.4321 93.2403 25.4321C94.5188 25.4321 95.6248 24.9138 96.4885 24.0151C97.3523 23.1513 97.8708 21.907 97.8708 20.5941C97.8708 19.2115 97.3525 17.9678 96.4885 17.1038C95.6248 16.2053 94.5188 15.6871 93.2403 15.6871Z" fill="white"/>
<path d="M108.215 7.59983C108.215 8.63659 107.42 9.50033 106.348 9.50033C105.312 9.50033 104.482 8.63659 104.482 7.59983V6.87408C104.482 5.83732 105.312 5.00781 106.348 5.00781C107.42 5.00781 108.215 5.83732 108.215 6.87408V7.59983ZM108.215 13.8546V27.3319C108.215 28.3686 107.42 29.1981 106.348 29.1981C105.312 29.1981 104.482 28.3686 104.482 27.3319V13.8546C104.482 12.7488 105.312 11.9538 106.348 11.9538C107.42 11.9538 108.215 12.7488 108.215 13.8546Z" fill="white"/>
<path d="M110.589 24.2545C111.211 23.4255 112.421 23.3217 113.181 23.9782C114.079 24.7387 115.634 25.533 116.982 25.4987C117.915 25.4987 118.779 25.188 119.332 24.8422C119.816 24.4275 119.954 24.0822 119.954 23.8055C119.954 23.6327 119.919 23.5637 119.85 23.4597C119.815 23.3562 119.677 23.218 119.401 23.0455C118.917 22.6997 117.88 22.3195 116.636 22.0777H116.602C115.53 21.8705 114.493 21.594 113.595 21.179C112.662 20.73 111.833 20.108 111.211 19.175C110.831 18.553 110.623 17.7927 110.623 16.998C110.623 15.4082 111.522 14.0605 112.662 13.1965C113.872 12.3672 115.323 11.918 116.913 11.918C119.297 11.918 120.99 13.0585 122.096 13.8185C122.926 14.3715 123.168 15.512 122.649 16.3755C122.096 17.205 120.956 17.447 120.092 16.8595C118.986 16.134 118.019 15.5807 116.913 15.5807C116.049 15.5807 115.289 15.8572 114.839 16.2027C114.39 16.514 114.287 16.825 114.287 16.9977C114.287 17.1357 114.287 17.1705 114.356 17.274C114.39 17.3429 114.494 17.4812 114.736 17.6195C115.185 17.9305 116.084 18.2414 117.259 18.449L117.293 18.4837H117.328C118.468 18.6907 119.54 19.002 120.542 19.4857C121.475 19.9005 122.408 20.557 122.995 21.5245C123.41 22.2155 123.652 23.0105 123.652 23.8052C123.652 25.4985 122.719 26.9155 121.475 27.8137C120.231 28.6774 118.675 29.1962 116.982 29.1962C114.287 29.1617 112.213 27.9177 110.831 26.812C110.071 26.19 109.967 25.0147 110.589 24.2545Z" fill="white"/>
<path d="M45.0552 31.7398C42.6277 33.0052 30.0518 38.1759 27.3744 39.5715C24.6971 40.9677 23.2097 40.954 21.0948 39.9429C18.9798 38.9319 5.59685 33.5261 3.18612 32.3738C1.98116 31.7978 1.34766 31.3119 1.34766 30.8528V26.2546C1.34766 26.2546 18.7704 22.4616 21.5833 21.4527C24.396 20.4435 25.3718 20.4071 27.7654 21.2839C30.1593 22.1608 44.4718 24.7432 46.8376 25.6096C46.8376 25.6096 46.8365 29.7163 46.8365 30.1425C46.8368 30.5971 46.291 31.0959 45.0552 31.7398Z" fill="#A41E11"/>
<path d="M45.0558 27.1409C42.6282 28.4057 30.0523 33.577 27.375 34.9726C24.6977 36.3688 23.2103 36.3551 21.0953 35.344C18.9801 34.3335 5.59742 28.9266 3.18669 27.7749C0.775965 26.6226 0.725422 25.8295 3.09363 24.9023C5.46157 23.9747 18.771 18.7529 21.5842 17.7437C24.3968 16.735 25.3726 16.6981 27.7662 17.5752C30.1601 18.4521 42.6609 23.4278 45.0264 24.2943C47.3925 25.1615 47.4834 25.8755 45.0558 27.1409Z" fill="#D82C20"/>
<path d="M45.0552 24.2412C42.6277 25.5066 30.0518 30.6773 27.3744 32.0734C24.6971 33.469 23.2097 33.4554 21.0948 32.4443C18.9795 31.4338 5.59685 26.0275 3.18612 24.8752C1.98116 24.2992 1.34766 23.8138 1.34766 23.3547V18.756C1.34766 18.756 18.7704 14.9633 21.5833 13.954C24.396 12.9451 25.3718 12.9085 27.7654 13.7853C30.1593 14.6621 44.4718 17.244 46.8376 18.1107C46.8376 18.1107 46.8365 22.2174 46.8365 22.6442C46.8368 23.0985 46.291 23.5972 45.0552 24.2412Z" fill="#A41E11"/>
<path d="M45.0558 19.6429C42.6282 20.9083 30.0523 26.079 27.375 27.4752C24.6977 28.8708 23.2103 28.8572 21.0953 27.8461C18.9801 26.8355 5.59742 21.429 3.18669 20.277C0.775965 19.1249 0.725422 18.3318 3.09363 17.4041C5.46157 16.477 18.771 11.255 21.5842 10.246C24.3968 9.23709 25.3726 9.20045 27.7662 10.0773C30.1601 10.9541 42.6609 15.9296 45.0264 16.7963C47.3925 17.6633 47.4834 18.3775 45.0558 19.6429Z" fill="#D82C20"/>
<path d="M45.0552 16.4648C42.6277 17.7302 30.0518 22.9012 27.3744 24.2974C24.6971 25.693 23.2097 25.6793 21.0948 24.6683C18.9795 23.6577 5.59685 18.2512 3.18612 17.0991C1.98116 16.5231 1.34766 16.0375 1.34766 15.5786V10.9799C1.34766 10.9799 18.7704 7.18721 21.5833 6.17826C24.396 5.16904 25.3718 5.13267 27.7654 6.00952C30.1593 6.88637 44.4718 9.46824 46.8376 10.3349C46.8376 10.3349 46.8365 14.4416 46.8365 14.8681C46.8368 15.3222 46.291 15.8209 45.0552 16.4648Z" fill="#A41E11"/>
<path d="M45.0558 11.8644C42.6282 13.1298 30.0523 18.3008 27.375 19.6967C24.6977 21.0923 23.2103 21.0786 21.0953 20.0678C18.9804 19.057 5.59742 13.6507 3.18669 12.4987C0.775965 11.3467 0.725422 10.5533 3.09363 9.62588C5.46157 8.69849 18.771 3.47698 21.5842 2.46777C24.3968 1.45855 25.3726 1.42218 27.7662 2.2993C30.1601 3.17615 42.6609 8.15163 45.0264 9.01832C47.3925 9.88474 47.4834 10.5993 45.0558 11.8644Z" fill="#D82C20"/>
<path d="M30.0547 7.43758L26.113 7.84672L25.2306 9.96996L23.8052 7.6007L19.2539 7.19156L22.65 5.96682L21.6312 4.08691L24.8107 5.33038L27.8084 4.34898L26.9981 6.29306L30.0547 7.43758Z" fill="white"/>
<path d="M24.9952 17.7381L17.6387 14.6869L28.18 13.0691L24.9952 17.7381Z" fill="white"/>
<path d="M14.7962 12.9846C17.9078 12.9846 20.4303 12.0068 20.4303 10.8006C20.4303 9.59448 17.9078 8.6167 14.7962 8.6167C11.6846 8.6167 9.16211 9.59448 9.16211 10.8006C9.16211 12.0068 11.6846 12.9846 14.7962 12.9846Z" fill="white"/>
<path d="M34.7119 8.01782L40.9506 10.4834L34.7173 12.9462L34.7119 8.01782Z" fill="#7A0C00"/>
<path d="M27.8105 10.7481L34.7124 8.01782L34.7178 12.9462L34.0412 13.211L27.8105 10.7481Z" fill="#AD2115"/>
</svg>
