<svg width="113" height="44" viewBox="0 0 113 44" fill="none" xmlns="http://www.w3.org/2000/svg">
<path fill-rule="evenodd" clip-rule="evenodd" d="M96.9432 35.9985V40.9749H105.934C107.776 40.9749 110.938 39.6277 111.048 35.861V33.9364C111.048 30.7196 108.408 28.8226 105.934 28.8226H101.452V26.5131H110.333V21.5092H101.81C99.6101 21.5092 96.6683 23.3238 96.6683 26.7055V28.4376C96.6683 31.8194 99.5826 33.5515 101.81 33.5515C107.996 33.579 100.325 33.5515 106.044 33.5515V35.971L96.9432 35.9985ZM48.7739 34.7887C48.7739 34.7887 53.5853 34.3763 53.5853 28.1627C53.5853 21.9491 47.7566 21.3717 47.7566 21.3717H37.2539V40.9749H42.5327V36.2459L47.0967 40.9749H54.905L48.7739 34.7887ZM46.7393 30.7746H42.5327V26.2931H46.7668C46.7668 26.2931 47.949 26.733 47.949 28.5201C47.949 30.3072 46.7393 30.7746 46.7393 30.7746ZM66.6174 21.5092H61.2561C57.4344 21.5092 56.1422 24.9734 56.1422 26.623V40.9749H61.5035V37.5381H66.5349V40.9749H71.7313V26.623C71.7313 22.444 67.9371 21.5092 66.6174 21.5092ZM66.5349 31.9844H61.4761V27.2279C61.4761 27.2279 61.476 26.1556 63.1532 26.1556H64.9953C66.4799 26.1556 66.5074 27.2279 66.5074 27.2279V31.9844H66.5349Z" fill="#CC0000"/>
<path d="M79.759 21.509H74.1777V40.9747H79.759V21.509Z" fill="#CC0000"/>
<path fill-rule="evenodd" clip-rule="evenodd" d="M87.5948 35.9433V21.509H82.041V35.9433V40.9747H87.5948H95.1006V35.9433H87.5948Z" fill="#CC0000"/>
<path fill-rule="evenodd" clip-rule="evenodd" d="M4.12305 40.9748H25.8432C25.8432 40.9748 21.6917 22.0315 35.4386 14.3607C38.4355 12.9036 47.9758 7.45976 63.5924 19.0072C64.0873 18.5948 64.5547 18.2649 64.5547 18.2649C64.5547 18.2649 50.2578 3.99552 34.3389 5.59017C26.3381 6.30501 16.4953 13.5909 10.7216 23.2138C4.94786 32.8366 4.12305 40.9748 4.12305 40.9748Z" fill="#CC0000"/>
<path fill-rule="evenodd" clip-rule="evenodd" d="M4.12305 40.9748H25.8432C25.8432 40.9748 21.6917 22.0315 35.4386 14.3607C38.4355 12.9036 47.9758 7.45976 63.5924 19.0072C64.0873 18.5948 64.5547 18.2649 64.5547 18.2649C64.5547 18.2649 50.2578 3.99552 34.3389 5.59017C26.3381 6.30501 16.4953 13.5909 10.7216 23.2138C4.94786 32.8366 4.12305 40.9748 4.12305 40.9748Z" fill="#CC0000"/>
<path fill-rule="evenodd" clip-rule="evenodd" d="M4.12305 40.975H25.8432C25.8432 40.975 21.6917 22.0316 35.4386 14.3608C38.4355 12.9037 47.9758 7.45987 63.5924 19.0073C64.0873 18.5949 64.5547 18.265 64.5547 18.265C64.5547 18.265 50.2578 3.99563 34.3389 5.59028C26.3106 6.30512 16.4678 13.591 10.6941 23.2139C4.92037 32.8368 4.12305 40.975 4.12305 40.975ZM49.378 7.12994L49.488 5.28785C49.2406 5.15038 48.5532 4.82045 46.8211 4.32556L46.7111 6.14016C47.6184 6.44259 48.4982 6.77252 49.378 7.12994Z" fill="#CC0000"/>
<path fill-rule="evenodd" clip-rule="evenodd" d="M46.7669 12.9581L46.6569 14.6902C47.5642 14.7177 48.4715 14.8277 49.3788 15.0202L49.4888 13.3155C48.554 13.1231 47.6467 13.0131 46.7669 12.9581ZM36.5941 4.38001H36.8691L36.3192 2.70288C35.4669 2.70288 34.5871 2.75787 33.6798 2.86784L34.2021 4.48999C34.9995 4.4075 35.7968 4.38001 36.5941 4.38001ZM37.9138 14.4978L38.5462 16.3949C39.3435 16.0099 40.1408 15.68 40.9382 15.4326L40.3333 13.618C39.3985 13.8929 38.6012 14.1953 37.9138 14.4978ZM25.4316 7.26687L24.1944 5.36979C23.507 5.72721 22.7922 6.11213 22.0498 6.55203L23.3146 8.4766C24.0294 8.0367 24.7167 7.62429 25.4316 7.26687ZM31.0678 19.6391L32.3875 21.6187C32.8549 20.9313 33.4048 20.299 34.0097 19.6666L32.7725 17.797C32.1401 18.3744 31.5627 19.0068 31.0678 19.6391ZM27.0812 28.4922L29.3082 30.2518C29.4182 29.1795 29.6107 28.1073 29.8856 27.035L27.906 25.4678C27.5486 26.4851 27.3012 27.5024 27.0812 28.4922ZM15.0389 15.4326L13.0868 13.7279C12.372 14.4153 11.6846 15.1026 11.0523 15.79L13.1693 17.6046C13.7467 16.8622 14.379 16.1199 15.0389 15.4326ZM6.73572 27.7223L3.57391 26.5676C3.05153 27.7498 2.47416 29.1245 2.19922 29.8669L5.36102 31.0216C5.71844 30.0868 6.29581 28.7396 6.73572 27.7223ZM26.6688 35.4756C26.7238 36.9328 26.8613 38.115 26.9987 38.9399L30.298 40.1221C30.0506 39.0498 29.8031 37.8401 29.6382 36.5479L26.6688 35.4756Z" fill="#CC0000"/>
</svg>
