<svg width="129" height="27" viewBox="0 0 129 27" fill="none" xmlns="http://www.w3.org/2000/svg">
<g clip-path="url(#clip0)">
<path d="M96.111 9.31833V25.6535H90.8486V6.76025L96.111 9.31833Z" fill="#F37368"/>
<path d="M21.6348 22.6204L25.5815 26.0555L42.209 17.3946L40.4914 13.2651L21.6348 22.6204ZM90.8489 12.0957L104.224 5.15239L101.958 1.24219L90.8489 6.76032V12.0957Z" fill="#F7A199"/>
<path d="M53.2087 8.03935V25.6535H48.1656V0.547852L53.2087 8.03935ZM21.6348 22.6204L25.5815 26.0555L33.1826 7.05267L30.7342 0.547852L21.6348 22.6204Z" fill="#F37368"/>
<path d="M30.7344 0.547852H35.9236L45.5347 25.6535H40.1992L30.7344 0.547852ZM53.9763 0.547852L65.0491 17.6869V25.6535L48.1658 0.547852H53.9763ZM74.5505 0.547852H79.7763V25.6535H74.5505V0.547852ZM90.8491 5.15238H82.8094V0.547852H101.556L104.224 5.15238H96.1114H90.8491Z" fill="#F04939"/>
<path d="M119.681 16.1157V25.6537H114.492V16.1157" fill="#F7A199"/>
<path d="M123.263 0.547852L114.492 16.1156H119.681L128.781 0.547852H123.263Z" fill="#F04939"/>
<path d="M114.493 16.1156L105.43 0.547852H111.131L117.233 11.2187L114.493 16.1156Z" fill="#F37368"/>
<path d="M2.15707 3.47168C2.15707 6.94335 4.31316 9.02635 8.62534 10.1227L13.1933 11.1824C17.2862 12.1326 19.7712 14.4714 19.7712 18.272C19.8078 19.9164 19.2596 21.5244 18.2729 22.84C18.2729 19.0394 16.2996 16.9929 11.5854 15.7504L7.0905 14.7272C3.47265 13.9232 0.695312 11.9864 0.695312 7.85695C0.695312 6.28556 1.20693 4.71417 2.15707 3.47168Z" fill="#F04939"/>
<path d="M65.0488 16.4079V0.547852H70.0919V25.6535H65.0488V16.4079Z" fill="#F37368"/>
<path d="M15.4592 17.3221C17.396 18.5646 18.2731 20.3187 18.2731 22.8403C16.6286 24.9233 13.8147 26.0561 10.4892 26.0561C4.89802 26.0561 0.914729 23.2788 0.0742188 18.4915H5.44617C6.14051 20.6842 7.9677 21.7074 10.4527 21.7074C13.4127 21.7439 15.4227 20.136 15.4592 17.3221ZM2.15722 3.43544C3.72861 1.38898 6.43286 0.146484 9.72181 0.146484C15.4592 0.146484 18.7482 3.17963 19.5887 7.41872H14.3994C13.8147 5.7377 12.3895 4.42212 9.7949 4.42212C6.98102 4.45867 5.08073 6.0666 4.9711 8.62467C3.088 7.58616 2.08413 5.55498 2.15722 3.43544Z" fill="#F37368"/>
</g>
<defs>
<clipPath id="clip0">
<rect width="129" height="26.2031" fill="white"/>
</clipPath>
</defs>
</svg>
