<svg width="124" height="35" viewBox="0 0 124 35" fill="none" xmlns="http://www.w3.org/2000/svg">
<g clip-path="url(#clip0)">
<path d="M26.6091 6.629C26.5852 6.45515 26.4333 6.3587 26.3073 6.3482C26.1822 6.3377 23.7314 6.30046 23.7314 6.30046C23.7314 6.30046 21.6817 4.31002 21.4792 4.10754C21.2768 3.90506 20.8813 3.96618 20.7276 4.01203C20.7257 4.01299 20.3427 4.13142 19.698 4.33103C19.5901 3.98147 19.4315 3.55167 19.2051 3.11996C18.4755 1.72743 17.4067 0.991045 16.1154 0.98914C16.1135 0.98914 16.1125 0.98914 16.1106 0.98914C16.0208 0.98914 15.932 0.997735 15.8423 1.00537C15.804 0.959528 15.7658 0.914642 15.7257 0.870702C15.1631 0.268992 14.4421 -0.0242235 13.5777 0.00156417C11.9101 0.0493192 10.2492 1.2537 8.90251 3.39312C7.95504 4.89836 7.23393 6.78948 7.02955 8.25363C5.11456 8.84674 3.77551 9.26123 3.7459 9.27081C2.77934 9.57451 2.74878 9.60411 2.6227 10.5153C2.52911 11.2039 0 30.7606 0 30.7606L21.1946 34.4262L30.3807 32.1426C30.3807 32.1426 26.6329 6.80285 26.6091 6.629ZM18.6369 4.65958C18.1488 4.81049 17.5939 4.98241 16.9922 5.16866C16.9798 4.32435 16.8795 3.14958 16.486 2.1343C17.7515 2.37403 18.3742 3.80573 18.6369 4.65958ZM15.8833 5.51249C14.7725 5.8563 13.5605 6.23166 12.3447 6.608C12.6866 5.29855 13.3351 3.99484 14.1317 3.14002C14.4277 2.82198 14.8422 2.46763 15.3332 2.26515C15.7945 3.22789 15.8948 4.59082 15.8833 5.51249ZM13.6111 1.11139C14.0027 1.10279 14.3322 1.18875 14.614 1.37404C14.1632 1.60804 13.7276 1.94424 13.3189 2.38263C12.2596 3.5192 11.4478 5.28327 11.124 6.98525C10.1145 7.29756 9.12691 7.60418 8.21766 7.88498C8.79171 5.20591 11.0371 1.18589 13.6111 1.11139Z" fill="#95BF47"/>
<path d="M26.3099 6.34905C26.1848 6.33855 23.734 6.30131 23.734 6.30131C23.734 6.30131 21.6844 4.31087 21.4819 4.10839C21.4065 4.03293 21.3043 3.99377 21.1973 3.97754L21.1982 34.4252L30.3834 32.1425C30.3834 32.1425 26.6356 6.8037 26.6118 6.62985C26.5878 6.456 26.435 6.35955 26.3099 6.34905Z" fill="#5E8E3E"/>
<path d="M16.1039 11.0725L15.037 15.0638C15.037 15.0638 13.847 14.5223 12.4363 14.6111C10.3675 14.742 10.3456 16.0466 10.3666 16.3743C10.4793 18.1593 15.1755 18.549 15.4391 22.7304C15.6464 26.0198 13.6941 28.27 10.8814 28.4476C7.5051 28.6606 5.64648 26.6692 5.64648 26.6692L6.36187 23.6263C6.36187 23.6263 8.23288 25.038 9.73047 24.9434C10.7085 24.8813 11.0581 24.0857 11.0227 23.5231C10.8757 21.1946 7.05142 21.3321 6.80981 17.506C6.60635 14.2864 8.72098 11.0238 13.3866 10.7296C15.1841 10.6141 16.1039 11.0725 16.1039 11.0725Z" fill="white"/>
<path d="M42.478 19.4301C41.4218 18.8569 40.8789 18.3738 40.8789 17.7097C40.8789 16.8647 41.633 16.3219 42.8105 16.3219C44.1813 16.3219 45.4052 16.895 45.4052 16.895L46.3705 13.9375C46.3705 13.9375 45.4829 13.2432 42.8702 13.2432C39.2344 13.2432 36.7146 15.3253 36.7146 18.2525C36.7146 19.9122 37.8912 21.1797 39.4608 22.0844C40.7283 22.8081 41.1812 23.3216 41.1812 24.0757C41.1812 24.8601 40.5474 25.4938 39.3708 25.4938C37.6173 25.4938 35.9614 24.5882 35.9614 24.5882L34.9355 27.5457C34.9355 27.5457 36.4655 28.5716 39.0393 28.5716C42.7812 28.5716 45.4668 26.731 45.4668 23.4116C45.4658 21.6325 44.1084 20.365 42.478 19.4301Z" fill="white"/>
<path d="M57.3848 13.2143C55.544 13.2143 54.0956 14.0896 52.9797 15.4168L52.919 15.3864L54.518 7.02832H50.3537L46.3105 28.3011H50.4749L51.8628 21.0296C52.4055 18.2833 53.8237 16.5943 55.1518 16.5943C56.0868 16.5943 56.4496 17.228 56.4496 18.1336C56.4496 18.7068 56.389 19.4012 56.2687 19.9743L54.6999 28.3021H58.8645L60.4935 19.7024C60.6748 18.7968 60.7958 17.7112 60.7958 16.9865C60.7941 14.6324 59.5571 13.2143 57.3848 13.2143Z" fill="white"/>
<path d="M70.2086 13.2139C65.199 13.2139 61.8809 17.7402 61.8809 22.7789C61.8809 26.0073 63.8718 28.602 67.614 28.602C72.5323 28.602 75.8516 24.197 75.8516 19.037C75.8516 16.0501 74.101 13.2139 70.2086 13.2139ZM68.1568 25.4048C66.7384 25.4048 66.1348 24.198 66.1348 22.6889C66.1348 20.3054 67.3724 16.413 69.6354 16.413C71.114 16.413 71.5959 17.6804 71.5959 18.9177C71.5959 21.482 70.36 25.4048 68.1568 25.4048Z" fill="white"/>
<path d="M86.5044 13.2139C83.6935 13.2139 82.0984 15.6883 82.0984 15.6883H82.0387L82.2803 13.4554H78.599C78.4182 14.9645 78.0855 17.257 77.7544 18.9773L74.8574 34.2148H79.0218L80.1677 28.0592H80.2589C80.2589 28.0592 81.1132 28.602 82.7032 28.602C87.5911 28.602 90.7893 23.5936 90.7893 18.5236C90.7893 15.7186 89.5517 13.2139 86.5044 13.2139ZM82.5213 25.4645C81.4403 25.4645 80.8005 24.8611 80.8005 24.8611L81.4948 20.9686C81.9779 18.3739 83.3355 16.6536 84.7842 16.6536C86.0517 16.6536 86.4436 17.8301 86.4436 18.947C86.4436 21.6326 84.8445 25.4645 82.5213 25.4645Z" fill="white"/>
<path d="M96.733 7.23926C95.4059 7.23926 94.3496 8.29551 94.3496 9.653C94.3496 10.8902 95.134 11.7352 96.3108 11.7352H96.371C97.6689 11.7352 98.7848 10.8599 98.8153 9.32147C98.8153 8.11454 98.0005 7.23926 96.733 7.23926Z" fill="white"/>
<path d="M90.9102 28.3003H95.0734L97.9107 13.5459H93.7159L90.9102 28.3003Z" fill="white"/>
<path d="M108.502 13.5159H105.605L105.756 12.8216C105.997 11.4034 106.842 10.1359 108.23 10.1359C108.971 10.1359 109.557 10.3472 109.557 10.3472L110.372 7.08844C110.372 7.08844 109.648 6.72656 108.109 6.72656C106.63 6.72656 105.153 7.14903 104.035 8.11434C102.617 9.32127 101.953 11.0709 101.622 12.8216L101.502 13.5159H99.5697L98.9661 16.6544H100.898L98.6953 28.3016H102.86L105.062 16.6544H107.929L108.502 13.5159Z" fill="white"/>
<path d="M118.518 13.5469C118.518 13.5469 115.915 20.1051 114.746 23.685H114.685C114.606 22.5321 113.659 13.5469 113.659 13.5469H109.284L111.789 27.0943C111.85 27.3956 111.82 27.5775 111.699 27.7887C111.215 28.7237 110.401 29.6294 109.435 30.2935C108.651 30.8665 107.776 31.2284 107.082 31.47L108.228 35.0006C109.074 34.8197 110.823 34.1253 112.302 32.7375C114.203 30.9575 115.953 28.2112 117.763 24.4693L122.862 13.5459H118.518V13.5469Z" fill="white"/>
</g>
<defs>
<clipPath id="clip0">
<rect width="123.361" height="35" fill="white"/>
</clipPath>
</defs>
</svg>
