<svg width="26" height="21" viewBox="0 0 26 21" fill="none" xmlns="http://www.w3.org/2000/svg">
<path d="M25.9491 2.50079C24.9904 2.91957 23.9667 3.20485 22.8888 3.33511C23.9872 2.67735 24.8322 1.64064 25.2319 0.403701C24.2017 1.00118 23.06 1.4361 21.8445 1.67832C20.8739 0.645922 19.4905 0 17.9544 0C15.0111 0 12.6246 2.37161 12.6246 5.29333C12.6246 5.71318 12.6734 6.11688 12.7622 6.50336C8.33157 6.29559 4.40465 4.18127 1.77659 0.985031C1.31403 1.76229 1.05512 2.6655 1.05512 3.64946C1.05512 5.49034 1.99758 7.10837 3.42536 8.05895C2.55114 8.03096 1.72893 7.79197 1.01179 7.39581V7.46148C1.01179 10.029 2.8458 12.1702 5.28645 12.6579C4.83905 12.7774 4.36673 12.842 3.8825 12.842C3.54235 12.842 3.21628 12.8097 2.89021 12.7494C3.57377 14.8519 5.53885 16.3849 7.87767 16.4279C6.05775 17.8479 3.75143 18.6941 1.26745 18.6941C0.844965 18.6941 0.423566 18.6693 0 18.6219C2.37132 20.1226 5.16512 21 8.18641 21C17.9945 21 23.3514 12.9303 23.3514 5.94356C23.3514 5.71856 23.3514 5.49141 23.3351 5.26534C24.3762 4.52361 25.285 3.58594 26 2.52233L25.9491 2.50079Z" fill="#1DA1F3"/>
</svg>
