<svg width="116" height="30" viewBox="0 0 116 30" fill="none" xmlns="http://www.w3.org/2000/svg">
<g clip-path="url(#clip0)">
<path d="M37.4564 11.4091C37.4564 9.32822 35.4329 7.11815 31.9312 7.11815C27.999 7.11815 23.6793 10.0027 23.0192 15.7575C22.3447 21.5697 25.9612 24.1529 29.6063 24.1529C33.2515 24.1529 35.1602 22.7322 37.112 20.8378C35.4329 18.7282 33.2659 19.7041 32.8497 19.9193C32.3904 20.149 31.8021 20.4647 30.5966 20.4647C29.1902 20.4647 27.755 19.8332 27.755 17.207C36.7675 16.3172 37.4564 13.49 37.4564 11.4091ZM32.9932 11.7536C32.9358 12.3994 32.6775 13.5044 28.1138 14.1215C29.0753 10.7059 30.9123 10.4476 31.759 10.4476C32.5483 10.4476 33.0506 11.0647 32.9932 11.7536ZM17.7236 12.3133C17.7236 12.3133 15.7862 18.3981 15.6284 18.9004C15.571 18.3838 14.1502 7.46258 14.1502 7.46258C10.8494 7.46258 9.08425 9.81616 8.15143 12.2989C8.15143 12.2989 5.79785 18.3981 5.59693 18.9148C5.58258 18.4412 5.23815 12.3707 5.23815 12.3707C5.03724 9.32822 2.25312 7.47693 0 7.47693L2.72671 24.0238C6.18533 24.0094 8.05097 21.6702 9.02685 19.1874C9.02685 19.1874 11.1078 13.8058 11.1939 13.5618C11.2082 13.7914 12.6864 24.0238 12.6864 24.0238C16.1593 24.0238 18.025 21.828 19.0296 19.4314L23.8946 7.47693C20.4647 7.47693 18.6564 9.81616 17.7236 12.3133ZM50.2002 7.08945C48.0619 7.08945 46.4258 8.25189 45.0481 9.95967V9.94532L46.2823 0C43.4408 0 41.1303 2.46839 40.6854 6.14227L38.5327 23.8946C40.1688 23.8946 41.9052 23.421 42.8381 22.2155C43.6704 23.2918 44.919 24.1529 46.7703 24.1529C51.5635 24.1529 54.8499 18.5847 54.8499 13.3609C54.8212 8.59631 52.5107 7.08945 50.2002 7.08945ZM49.7553 15.6284C49.253 18.5416 47.6313 20.5221 46.0671 20.5221C44.4884 20.5221 43.8139 19.8189 43.8139 19.8189C44.1153 17.2644 44.3019 15.7001 44.8759 14.3511C45.45 13.0021 46.8133 10.8494 48.2341 10.8494C49.6261 10.8494 50.2576 12.7007 49.7553 15.6284ZM66.8188 7.47693H63.4749L63.4893 7.30471C63.7189 5.12335 64.2356 3.97526 65.9433 3.78869C67.1058 3.67388 67.6224 3.07114 67.7516 2.41099C67.852 1.89435 68.1678 0.100458 68.1678 0.100458C61.4514 0.0574044 59.3418 2.95633 58.7965 7.37647L58.7821 7.47693H58.7104C57.6197 7.47693 56.4142 8.71112 56.2133 10.2754L56.1415 10.8494H58.3803L56.5003 26.3773L55.9263 29.1614C55.998 29.1614 56.0841 29.1758 56.1559 29.1758C59.2988 29.061 61.3079 26.5783 61.7528 22.9761L63.2166 10.8494H64.2643C65.2975 10.8494 66.503 9.81616 66.7183 8.09402L66.8188 7.47693ZM84.2123 7.1899C80.3518 7.1899 76.7067 10.0314 75.5873 14.4946C74.4679 18.9578 76.1613 24.239 81.8444 24.239C87.513 24.239 90.7851 18.7425 90.7851 14.1645C90.7851 9.61524 87.6996 7.1899 84.2123 7.1899ZM85.7766 15.4848C85.5757 17.5084 84.6859 20.5795 82.2462 20.5795C79.7922 20.5795 80.1366 16.9917 80.3805 15.2839C80.6389 13.4613 81.6578 10.8638 83.8535 10.8638C85.8196 10.8638 86.0062 13.203 85.7766 15.4848ZM109.858 12.3133C109.858 12.3133 107.92 18.3981 107.762 18.9004C107.705 18.3838 106.284 7.46258 106.284 7.46258C102.984 7.46258 101.218 9.81616 100.286 12.2989C100.286 12.2989 97.932 18.3981 97.731 18.9148C97.7167 18.4412 97.3723 12.3707 97.3723 12.3707C97.1713 9.32822 94.3872 7.47693 92.1341 7.47693L94.8465 24.0238C98.3051 24.0094 100.171 21.6702 101.147 19.1874C101.147 19.1874 103.228 13.8058 103.299 13.5618C103.328 13.7914 104.792 24.0238 104.792 24.0238C108.265 24.0238 110.13 21.828 111.135 19.4314L116 7.47693C112.584 7.47693 110.776 9.81616 109.858 12.3133ZM69.976 0.100458L67.1632 22.7896L66.5891 25.588C66.6609 25.588 66.747 25.6024 66.8188 25.6024C69.8468 25.5593 71.9995 22.9044 72.4013 19.5606L74.023 6.5441C74.5109 2.56885 72.143 0.100458 69.976 0.100458Z" fill="white"/>
</g>
<defs>
<clipPath id="clip0">
<rect width="116" height="29.1758" fill="white"/>
</clipPath>
</defs>
</svg>
