<svg width="94" height="37" viewBox="0 0 94 37" fill="none" xmlns="http://www.w3.org/2000/svg">
<g clip-path="url(#clip0)">
<path d="M53.8005 0.695216C51.987 1.60197 51.2012 3.29457 51.2012 7.88879C51.2012 7.88879 52.1079 6.98203 53.5587 6.43798C54.6166 6.04505 55.3722 5.53123 55.9163 5.1383C57.488 3.95952 57.7298 2.53895 57.7298 0.060489C57.6996 0.060489 55.2211 -0.0906364 53.8005 0.695216Z" fill="#FBBD71"/>
<path d="M42.708 1.75381C41.1363 3.05348 40.7434 5.29014 40.7434 5.29014L35.6656 24.7551L31.4945 8.82648C31.1016 7.13387 30.3158 5.04834 29.137 3.59754C27.6862 1.75381 24.6637 1.63291 24.301 1.63291C24.0289 1.63291 21.0367 1.75381 19.465 3.59754C18.2862 5.04834 17.5003 7.13387 17.1074 8.82648L13.1781 24.7551L8.10032 5.29014C8.10032 5.29014 7.7074 3.20461 6.13569 1.75381C3.65723 -0.48285 0 0.0612016 0 0.0612016L9.67203 36.4824C9.67203 36.4824 12.8154 36.7544 14.3871 35.9686C16.4727 34.9107 17.5305 34.1551 18.7093 29.168C19.8881 24.7249 23.0315 11.7885 23.2733 10.8818C23.3942 10.4889 23.6662 9.31008 24.4521 9.31008C25.2379 9.31008 25.51 10.368 25.6309 10.8818C25.9029 11.7885 29.0161 24.7249 30.1949 29.168C31.4945 34.1249 32.4013 34.9107 34.517 35.9686C36.0887 36.7544 39.2322 36.4824 39.2322 36.4824L48.8437 0.0612016C48.8437 0.0612016 45.1865 -0.452625 42.708 1.75381Z" fill="white"/>
<path d="M57.7005 5.92432C57.7005 5.92432 57.0355 6.83107 55.7359 7.61692C54.8291 8.13075 54.0433 8.40277 53.1365 8.9166C51.5648 9.70245 51.1719 10.4883 51.1719 11.6671V12.06V14.0246V14.4176V36.361C51.1719 36.361 53.6503 36.633 55.222 35.8471C57.3076 34.7893 57.7005 33.7616 57.7005 29.3185V7.37512V5.92432Z" fill="white"/>
<path d="M81.7273 18.3464L93.9987 0.181174C93.9987 0.181174 88.9209 -0.725578 86.2913 1.63198C84.5987 3.08278 82.9061 5.80304 82.9061 5.80304L78.463 12.3317C78.191 12.7246 77.9492 12.9966 77.5563 12.9966C77.1633 12.9966 76.7704 12.6037 76.6495 12.3317L72.2064 5.80304C72.2064 5.80304 70.3929 3.20368 68.8212 1.63198C66.2219 -0.725578 61.1138 0.181174 61.1138 0.181174L72.9923 18.3162L60.8418 36.4513C60.8418 36.4513 66.1916 37.1162 68.8212 34.7587C70.5138 33.3079 72.0855 30.8294 72.0855 30.8294L76.5286 24.3008C76.8006 23.9079 77.0424 23.6358 77.4354 23.6358C77.8283 23.6358 78.2212 24.0288 78.3421 24.3008L82.7852 30.8294C82.7852 30.8294 84.4778 33.3079 86.0495 34.7587C88.6489 37.1162 93.8778 36.4513 93.8778 36.4513L81.7273 18.3464Z" fill="white"/>
</g>
<defs>
<clipPath id="clip0">
<rect width="94" height="36.5723" fill="white"/>
</clipPath>
</defs>
</svg>
