<svg width="92" height="55" viewBox="0 0 92 55" fill="none" xmlns="http://www.w3.org/2000/svg">
<g clip-path="url(#clip0)">
<path d="M8.53827 0H83.4244C88.1635 0 92 3.83646 92 8.57561V37.161C92 41.9001 88.1635 45.7366 83.4244 45.7366H56.5692L60.2552 54.7635L44.0443 45.7366H8.57588C3.83673 45.7366 0.000274217 41.9001 0.000274217 37.161V8.57561C-0.0373381 3.87407 3.79912 0 8.53827 0Z" fill="#9B5C8F"/>
<path d="M5.23957 7.81584C5.76315 7.10527 6.54852 6.73129 7.59567 6.65649C9.50299 6.5069 10.5875 7.40446 10.8493 9.34917C12.0087 17.1654 13.2802 23.7849 14.6266 29.2077L22.8168 13.6126C23.5648 12.1915 24.4997 11.4435 25.6217 11.3687C27.2672 11.2565 28.277 12.3036 28.6884 14.5102C29.6233 19.4841 30.8201 23.7102 32.2412 27.3004C33.2136 17.8012 34.8591 10.9573 37.1778 6.73129C37.7388 5.68413 38.5615 5.16056 39.6461 5.08576C40.5062 5.01096 41.2916 5.27275 42.0022 5.83373C42.7127 6.3947 43.0867 7.10527 43.1615 7.96544C43.1989 8.63861 43.0867 9.19958 42.7875 9.76056C41.329 12.4532 40.1323 16.9784 39.1599 23.2614C38.2249 29.3573 37.8884 34.1069 38.1127 37.5102C38.1875 38.4451 38.0379 39.2679 37.664 39.9784C37.2152 40.8012 36.542 41.25 35.6818 41.3248C34.7095 41.3996 33.6997 40.9508 32.7274 39.941C29.2493 36.3882 26.4818 31.0776 24.4623 24.0093C22.0314 28.7963 20.2363 32.3866 19.077 34.7801C16.8705 39.0061 15.0005 41.1752 13.4298 41.2874C12.4201 41.3622 11.5599 40.502 10.8119 38.7069C8.90461 33.8077 6.8477 24.3459 4.6412 10.3215C4.4916 9.34917 4.716 8.48901 5.23957 7.81584ZM85.6087 13.6874C84.2623 11.3313 82.2802 9.91015 79.6249 9.34917C78.9144 9.19958 78.2412 9.12478 77.6054 9.12478C74.0152 9.12478 71.0981 10.9947 68.8168 14.7345C66.8721 17.9134 65.8997 21.4289 65.8997 25.2809C65.8997 28.1606 66.4981 30.6289 67.6949 32.6858C69.0412 35.0419 71.0233 36.463 73.6786 37.024C74.3892 37.1736 75.0623 37.2484 75.6981 37.2484C79.3258 37.2484 82.2428 35.3784 84.4867 31.6386C86.4314 28.4223 87.4038 24.9069 87.4038 21.0549C87.4412 18.1378 86.8054 15.7069 85.6087 13.6874ZM80.8965 24.0467C80.3729 26.515 79.438 28.3476 78.0542 29.5817C76.9697 30.5541 75.9599 30.9654 75.0249 30.7784C74.1274 30.5915 73.3794 29.8061 72.8184 28.3476C72.3697 27.1882 72.1453 26.0289 72.1453 24.9443C72.1453 24.0093 72.2201 23.0744 72.4071 22.2142C72.7436 20.6809 73.3794 19.1849 74.3892 17.7638C75.6233 15.9313 76.9323 15.1833 78.2786 15.4451C79.1762 15.6321 79.9241 16.4175 80.4851 17.876C80.9339 19.0354 81.1583 20.1947 81.1583 21.2793C81.1583 22.2516 81.0835 23.1866 80.8965 24.0467ZM62.1973 13.6874C60.851 11.3313 58.8314 9.91015 56.2136 9.34917C55.503 9.19958 54.8298 9.12478 54.194 9.12478C50.6038 9.12478 47.6867 10.9947 45.4054 14.7345C43.4607 17.9134 42.4884 21.4289 42.4884 25.2809C42.4884 28.1606 43.0867 30.6289 44.2835 32.6858C45.6298 35.0419 47.6119 36.463 50.2672 37.024C50.9778 37.1736 51.651 37.2484 52.2867 37.2484C55.9144 37.2484 58.8314 35.3784 61.0753 31.6386C63.0201 28.4223 63.9924 24.9069 63.9924 21.0549C63.9924 18.1378 63.394 15.7069 62.1973 13.6874ZM57.4477 24.0467C56.9241 26.515 55.9892 28.3476 54.6054 29.5817C53.5209 30.5541 52.5111 30.9654 51.5762 30.7784C50.6786 30.5915 49.9306 29.8061 49.3697 28.3476C48.9209 27.1882 48.6965 26.0289 48.6965 24.9443C48.6965 24.0093 48.7713 23.0744 48.9583 22.2142C49.2949 20.6809 49.9306 19.1849 50.9404 17.7638C52.1745 15.9313 53.4835 15.1833 54.8298 15.4451C55.7274 15.6321 56.4753 16.4175 57.0363 17.876C57.4851 19.0354 57.7095 20.1947 57.7095 21.2793C57.7469 22.2516 57.6347 23.1866 57.4477 24.0467Z" fill="white"/>
</g>
<defs>
<clipPath id="clip0">
<rect width="92" height="54.9844" fill="white"/>
</clipPath>
</defs>
</svg>
