<svg width="64" height="64" viewBox="0 0 64 64" fill="none" xmlns="http://www.w3.org/2000/svg">
<g clip-path="url(#clip0)">
<path fill-rule="evenodd" clip-rule="evenodd" d="M31.9979 4.48288C39.1756 4.48288 45.7109 7.23341 50.6098 11.7367C48.2087 11.6723 45.8125 13.0996 45.7134 16.368C45.5115 22.9755 53.6144 24.3829 49.2482 37.6734L45.6366 48.6669L35.8004 19.6922C35.648 19.2437 35.8251 18.9884 36.3765 18.9884H39.1574C39.3019 18.9884 39.42 18.865 39.42 18.7139V17.0668C39.42 16.9157 39.3016 16.7861 39.1574 16.7923C33.8911 17.0226 28.6558 17.0242 23.4521 16.7923C23.3072 16.7862 23.1894 16.9162 23.1894 17.0674V18.7145C23.1894 18.8655 23.3076 18.989 23.4521 18.989H26.2482C26.8702 18.989 27.0444 19.1963 27.191 19.5972L31.2325 30.6501L25.1529 49.008L15.1593 19.5724C15.0354 19.2032 15.1853 18.9889 15.5409 18.9889H18.7269C18.8714 18.9889 18.9896 18.8655 18.9896 18.7143V17.0672C18.9896 16.9162 18.871 16.7852 18.7269 16.7928C15.3842 16.9703 12.0287 17.006 8.90296 17.0381C13.8079 9.48235 22.3186 4.48234 31.9962 4.48234L31.9962 4.48226L31.9979 4.48288ZM56.1976 18.8959C58.3119 22.7914 59.5125 27.2545 59.5125 31.9968C59.5125 42.4048 53.7296 51.4636 45.2036 56.1395L53.7847 31.8345C55.1141 28.073 56.3482 22.9895 56.197 18.8959H56.197H56.1976ZM41.2097 57.9286C38.3291 58.9532 35.2292 59.512 31.9979 59.512C29.214 59.512 26.5279 59.0969 23.9954 58.3288L32.4719 34.0374L41.2096 57.9298L41.2097 57.9286ZM20.224 56.8705C10.9191 52.4576 4.48277 42.9779 4.48277 31.9981C4.48277 27.9278 5.3682 24.0639 6.95514 20.5876L20.2246 56.871L20.2246 56.871L20.224 56.8705ZM31.9971 1.90086C48.6155 1.90086 62.093 15.3784 62.093 31.9968C62.093 48.6152 48.6155 62.0928 31.9971 62.0928C15.3787 62.0928 1.90111 48.6152 1.90111 31.9968C1.90111 15.3784 15.3787 1.90086 31.9971 1.90086ZM31.9971 -0.00146484C49.6661 -0.00146484 63.9961 14.3285 63.9961 31.9976C63.9961 49.6666 49.6661 63.9966 31.9971 63.9966C14.328 63.9966 -0.00195312 49.6666 -0.00195312 31.9976C-0.00195312 14.3285 14.328 -0.00146484 31.9971 -0.00146484Z" fill="white"/>
</g>
<defs>
<clipPath id="clip0">
<rect width="64" height="64" fill="white"/>
</clipPath>
</defs>
</svg>
