<svg width="74" height="60" viewBox="0 0 74 60" fill="none" xmlns="http://www.w3.org/2000/svg">
<g clip-path="url(#clip0)">
<path d="M11.409 40.782L7.53803 42.1963L7.33203 53.7108L20.7312 48.816C16.1316 47.2756 12.7772 44.5607 11.409 40.782Z" fill="#FDBD39"/>
<path d="M13.433 28.6025L0 33.5096L7.5359 42.1985L11.4068 40.7842C10.0417 37.0178 10.8842 32.7656 13.433 28.6025Z" fill="#F69833"/>
<path d="M36.0352 11.9849C18.9311 18.2325 7.9024 31.1275 11.4075 40.7818L73.3457 18.1556C69.8407 8.50132 53.1393 5.73723 36.0352 11.9849Z" fill="#FECF33"/>
<path d="M48.7148 46.9556C65.819 40.708 76.8661 27.8714 73.3426 18.1587L11.4043 40.7818C14.9278 50.4976 31.6107 53.2032 48.7148 46.9556Z" fill="#EE6723"/>
<path d="M73.3414 18.1553L11.4062 40.7814C12.6177 44.1266 17.245 45.7746 23.7324 45.7746C30.06 45.7746 38.1585 44.2096 46.6014 41.1258C63.7056 34.8781 75.7366 24.7596 73.3414 18.1553Z" fill="#F69833"/>
<path d="M61.0144 13.1655C54.6899 13.1655 46.5883 14.7305 38.1454 17.8144C21.0412 24.062 9.01025 34.1775 11.4054 40.7818L73.3436 18.1556C72.1292 14.8104 67.5049 13.1655 61.0144 13.1655Z" fill="#FDBD39"/>
<path d="M57.5945 54.3204C55.7712 54.3204 53.084 52.6755 49.6035 49.4287C45.4866 45.5885 40.7732 39.9619 36.3242 33.5882C31.8783 27.2146 28.2257 20.8439 26.0366 15.6448C23.6537 9.9813 23.3124 6.50083 25.025 5.29557C25.4216 5.02501 25.8921 4.88665 26.3717 4.89895C27.7645 4.89895 30.4825 5.9351 35.5033 10.8791L35.614 10.9867L35.5986 11.1404C35.5648 11.4971 35.5341 11.8537 35.5064 12.2073L35.4511 12.9053L34.9591 12.4102C29.5478 6.95894 27.168 6.37169 26.3932 6.37169C26.1718 6.37169 25.9966 6.41474 25.8705 6.5039C25.1265 7.02659 25.0773 9.58467 27.3894 15.0729C29.5386 20.1767 33.1389 26.452 37.5264 32.7427C41.917 39.0365 46.5597 44.5769 50.6059 48.3495C54.9657 52.4172 56.9304 52.8569 57.573 52.8569C57.7943 52.8569 57.9727 52.8108 58.1079 52.7155C58.892 52.1651 58.892 49.4256 56.3154 43.5162L56.1955 43.2456L56.4538 43.1042C56.7121 42.9628 56.9642 42.8244 57.1979 42.6891L57.5084 42.5139L57.6529 42.8398C59.4792 47.0274 61.1887 52.3496 58.9473 53.9238C58.5507 54.1944 58.0772 54.3327 57.5945 54.3204ZM57.5945 53.6747V53.9976V53.6747Z" fill="#EE6723"/>
<path d="M49.1304 46.7757L49.1058 47.0955C48.6723 52.4453 47.5347 58.8774 44.5646 59.1388C44.5031 59.1449 44.4416 59.1449 44.3832 59.1449C42.3663 59.1449 40.4569 56.2548 38.7136 50.5575C37.0595 45.1646 35.7773 37.927 35.104 30.1758C34.4276 22.4247 34.4368 15.0733 35.1317 9.47442C35.888 3.37437 37.327 0.189063 39.4116 0.00458519C39.473 -0.00156405 39.5376 -0.00463867 39.5991 -0.00463867C41.0626 -0.00463867 43.2671 1.65258 45.5239 9.36988L44.0512 9.65275C43.2979 7.07622 42.4769 4.97932 41.6622 3.53425C40.9089 2.20294 40.1741 1.46811 39.5991 1.46811C39.5807 1.46811 39.5622 1.46811 39.5407 1.47118C38.6367 1.55112 37.3208 3.74025 36.589 9.65582C35.9065 15.1532 35.8973 22.3971 36.5644 30.0467C37.2316 37.6994 38.4922 44.8295 40.1156 50.124C40.8412 52.4945 41.6376 54.45 42.4216 55.7751C43.1411 56.9988 43.839 57.6722 44.3832 57.6722C44.4017 57.6722 44.4201 57.6722 44.4386 57.6691C45.3025 57.5953 46.9321 55.314 47.6177 47.2923L49.1304 46.7757Z" fill="#EE6723"/>
</g>
<defs>
<clipPath id="clip0">
<rect width="74" height="59.1496" fill="white"/>
</clipPath>
</defs>
</svg>
